SplineFontDB: 3.2
FontName: SeriousShannsBoldItalic
FullName: Serious Shanns Bold Italic
FamilyName: Serious Shanns Bold Italic
Weight: Bold
Copyright: https://github.com/kaBeech/serious-shanns/blob/main/LICENSE
Version: 6.0.0
ItalicAngle: -12.5
UnderlinePosition: 0
UnderlineWidth: 0
Ascent: 800
Descent: 200
InvalidEm: 0
sfntRevision: 0x00003333
LayerCount: 2
Layer: 0 0 "Back" 1
Layer: 1 0 "Fore" 0
XUID: [1021 45 630387186 10904090]
StyleMap: 0x0040
FSType: 4
OS2Version: 3
OS2_WeightWidthSlopeOnly: 0
OS2_UseTypoMetrics: 0
CreationTime: 1532631502
ModificationTime: 315532800
PfmFamily: 81
TTFWeight: 700
TTFWidth: 5
LineGap: 0
VLineGap: 0
Panose: 0 0 0 0 0 0 0 0 0 0
OS2TypoAscent: 613
OS2TypoAOffset: 0
OS2TypoDescent: -188
OS2TypoDOffset: 0
OS2TypoLinegap: 98
OS2WinAscent: 778
OS2WinAOffset: 0
OS2WinDescent: 308
OS2WinDOffset: 0
HheadAscent: 796
HheadAOffset: 0
HheadDescent: -317
HheadDOffset: 0
OS2SubXSize: 317
OS2SubYSize: 293
OS2SubXOff: 0
OS2SubYOff: 37
OS2SupXSize: 317
OS2SupYSize: 293
OS2SupXOff: 0
OS2SupYOff: 171
OS2StrikeYSize: 0
OS2StrikeYPos: 132
OS2CapHeight: 576
OS2XHeight: 485
OS2Vendor: 'NONE'
OS2CodePages: 00000001.00000000
OS2UnicodeRanges: 00000001.00000000.00000000.00000000
MarkAttachClasses: 1
DEI: 91125
LangName: 1033 "" "" "Normal" "" "" "Version 0.2.0"
Encoding: UnicodeBmp
Compacted: 1
UnicodeInterp: none
NameList: AGL For New Fonts
DisplaySize: -48
AntiAlias: 1
FitToEm: 0
WinInfo: 0 17 8
BeginPrivate: 9
BlueValues 32 [-40 -6 499 523 706 718 765 769]
OtherBlues 11 [-297 -287]
BlueScale 9 0.0291667
BlueShift 1 0
StdHW 5 [111]
StdVW 5 [118]
StemSnapH 33 [100 106 110 111 114 116 119 179]
StemSnapV 5 [118]
ForceBold 4 true
EndPrivate
BeginChars: 65537 121

StartChar: .notdef
Encoding: 65536 -1 0
Width: 630
GlyphClass: 1
Flags: W
HStem: -280 78<128.818 404.818> 683 78<332.818 608.818>
LayerCount: 2
Fore
SplineSet
37.818359375 -280 m 1
 278.818359375 761 l 1
 698.818359375 761 l 1
 458.818359375 -280 l 1
 37.818359375 -280 l 1
332.818359375 683 m 1
 128.818359375 -202 l 1
 404.818359375 -202 l 1
 608.818359375 683 l 1
 332.818359375 683 l 1
EndSplineSet
Validated: 524289
EndChar

StartChar: exclam
Encoding: 33 33 8
Width: 630
GlyphClass: 2
Flags: HMW
HStem: -36.998 179<368.26 444.593 379.26 444.593>
VStem: 320.26 309.998
LayerCount: 2
Fore
SplineSet
550.12890625 738 m 0
 548.795898438 732 539.130859375 694.668945312 521.130859375 626.001953125 c 0
 503.130859375 557.334960938 489.463867188 502.334960938 480.130859375 461.001953125 c 0
 475.463867188 441.668945312 470.963867188 421.501953125 466.630859375 400.501953125 c 0
 462.297851562 379.501953125 458.297851562 361.501953125 454.630859375 346.501953125 c 0
 450.963867188 331.501953125 448.130859375 321.168945312 446.130859375 315.501953125 c 0
 444.130859375 309.834960938 442.297851562 302.66796875 440.630859375 294.000976562 c 0
 438.963867188 285.333984375 437.130859375 277.333984375 435.130859375 270.000976562 c 0
 429.130859375 251.333984375 419.130859375 237.000976562 405.130859375 227.000976562 c 0
 391.797851562 217.66796875 377.797851562 212.66796875 363.130859375 212.000976562 c 2
 360.130859375 212.000976562 l 2
 344.797851562 212.000976562 333.46484375 217.66796875 326.131835938 229.000976562 c 0
 321.686523438 235.66796875 319.46484375 243.96484375 319.46484375 253.891601562 c 0
 319.46484375 258.854492188 320.01953125 264.223632812 321.130859375 270.000976562 c 0
 323.130859375 278.000976562 326.630859375 288.500976562 331.630859375 301.500976562 c 0
 336.630859375 314.500976562 340.130859375 324.000976562 342.130859375 330.000976562 c 0
 344.130859375 336.000976562 346.963867188 346.16796875 350.630859375 360.500976562 c 0
 354.297851562 374.833984375 357.630859375 388.666992188 360.630859375 402 c 0
 363.630859375 415.333007812 367.797851562 435.666015625 373.130859375 462.999023438 c 0
 379.130859375 494.999023438 385.463867188 525.666015625 392.130859375 554.999023438 c 0
 398.797851562 584.33203125 404.297851562 607.33203125 408.630859375 623.999023438 c 0
 412.963867188 640.666015625 418.296875 661.333007812 424.629882812 686 c 0
 430.962890625 710.666992188 435.129882812 727 437.129882812 735 c 0
 442.462890625 756.333007812 451.962890625 772.833007812 465.629882812 784.5 c 0
 479.296875 796.166992188 493.796875 802 509.129882812 802 c 2
 513.129882812 802 l 2
 527.796875 802 538.796875 796.666992188 546.129882812 786 c 0
 550.611328125 779.481445312 552.8515625 770.971679688 552.8515625 760.470703125 c 0
 552.8515625 753.787109375 551.944335938 746.296875 550.12890625 738 c 0
299.130859375 -36.998046875 m 2
 277.130859375 -36.998046875 260.797851562 -28.998046875 250.130859375 -12.998046875 c 0
 241.53515625 -0.3310546875 237.23828125 14.0234375 237.23828125 30.06640625 c 0
 237.23828125 37.666015625 238.202148438 45.64453125 240.130859375 54.001953125 c 0
 245.463867188 78.001953125 259.130859375 98.3349609375 281.130859375 115.001953125 c 0
 305.130859375 133.001953125 328.963867188 142.001953125 352.630859375 142.001953125 c 0
 376.297851562 142.001953125 393.797851562 134.001953125 405.130859375 118.001953125 c 0
 413.130859375 106.890625 417.130859375 93.927734375 417.130859375 79.11328125 c 0
 417.130859375 71.7060546875 416.130859375 63.8349609375 414.130859375 55.501953125 c 0
 408.130859375 30.501953125 395.630859375 9.6689453125 376.630859375 -6.998046875 c 0
 357.630859375 -23.6650390625 335.130859375 -33.6650390625 309.130859375 -36.998046875 c 2
 299.130859375 -36.998046875 l 2
EndSplineSet
Validated: 524289
EndChar

StartChar: quotedbl
Encoding: 34 34 9
Width: 630
GlyphClass: 2
Flags: W
LayerCount: 2
Fore
SplineSet
465.477539062 739 m 0
 464.14453125 730.333007812 461.141601562 716.333984375 456.474609375 697.000976562 c 0
 451.807617188 677.66796875 442.807617188 641.66796875 429.474609375 589.000976562 c 0
 415.474609375 533.66796875 404.474609375 495.000976562 396.474609375 473.000976562 c 0
 390.474609375 456.333984375 380.807617188 443.666992188 367.474609375 435 c 0
 355.474609375 427 343.807617188 423 332.474609375 423 c 0
 317.141601562 423 303.80859375 428 292.475585938 438 c 0
 285.942382812 444.533203125 282.67578125 452.700195312 282.67578125 462.5 c 0
 282.67578125 466.700195312 283.275390625 471.200195312 284.475585938 476 c 2
 286.475585938 482 l 2
 293.80859375 508 301.80859375 540 310.475585938 578 c 0
 313.142578125 588.666992188 315.475585938 600 317.475585938 612 c 0
 332.142578125 679.333007812 341.809570312 724.666015625 346.4765625 747.999023438 c 0
 348.4765625 756.666015625 352.143554688 764.333007812 357.4765625 771 c 0
 364.143554688 779 371.810546875 785 380.477539062 789 c 0
 390.9765625 793.083007812 401.221679688 795.125 411.209960938 795.125 c 0
 412.637695312 795.125 414.060546875 795.083007812 415.477539062 795 c 0
 424.810546875 795 432.310546875 794.166992188 437.977539062 792.5 c 0
 443.64453125 790.833007812 449.14453125 788 454.477539062 784 c 0
 459.810546875 780 463.477539062 774 465.477539062 766 c 0
 467.477539062 758 467.477539062 749 465.477539062 739 c 0
614.474609375 738.000976562 m 0
 613.141601562 731.333984375 611.807617188 725.001953125 610.474609375 719.001953125 c 0
 602.474609375 685.001953125 591.807617188 641.668945312 578.474609375 589.001953125 c 0
 564.474609375 533.668945312 553.807617188 495.001953125 546.474609375 473.001953125 c 0
 540.474609375 456.334960938 530.474609375 443.66796875 516.474609375 435.000976562 c 0
 504.474609375 427.000976562 492.474609375 423.000976562 480.474609375 423.000976562 c 0
 465.141601562 423.000976562 452.474609375 428.000976562 442.474609375 438.000976562 c 0
 435.59765625 444.877929688 432.159179688 453.565429688 432.159179688 464.0625 c 0
 432.159179688 467.811523438 432.59765625 471.791015625 433.474609375 476.000976562 c 2
 435.474609375 482.000976562 l 2
 442.141601562 504.66796875 449.141601562 532.000976562 456.474609375 564.000976562 c 0
 471.807617188 631.333984375 484.474609375 691.000976562 494.474609375 743.000976562 c 1
 494.474609375 746.000976562 l 2
 496.474609375 755.333984375 500.641601562 763.833984375 506.974609375 771.500976562 c 0
 513.307617188 779.16796875 520.807617188 785.000976562 529.474609375 789.000976562 c 0
 539.973632812 793.083984375 550.21875 795.125976562 560.20703125 795.125976562 c 0
 561.634765625 795.125976562 563.057617188 795.083984375 564.474609375 795.000976562 c 0
 573.807617188 795.000976562 581.307617188 794.16796875 586.974609375 792.500976562 c 0
 592.641601562 790.833984375 598.141601562 788.333984375 603.474609375 785.000976562 c 0
 609.474609375 781.000976562 613.307617188 774.833984375 614.974609375 766.500976562 c 0
 616.641601562 758.16796875 616.474609375 748.66796875 614.474609375 738.000976562 c 0
EndSplineSet
Validated: 524289
EndChar

StartChar: numbersign
Encoding: 35 35 10
Width: 630
GlyphClass: 2
Flags: HMW
HStem: -14 21G<147.256 154.59> 178.501 108.501<328.59 328.59> 433.002 109.002<435.586 474.586 390.586 516.586>
LayerCount: 2
Fore
SplineSet
273.58984375 431 m 1
 256.256835938 430.333007812 246.5859375 430.334960938 244.5859375 431.001953125 c 0
 227.918945312 431.001953125 215.918945312 435.334960938 208.5859375 444.001953125 c 0
 202.938476562 451.060546875 200.115234375 459.448242188 200.115234375 469.165039062 c 0
 200.115234375 473.212890625 200.60546875 477.4921875 201.5859375 482.001953125 c 2
 201.5859375 485.001953125 l 2
 204.918945312 499.001953125 212.751953125 511.334960938 225.084960938 522.001953125 c 0
 237.41796875 532.668945312 252.91796875 538.3359375 271.584960938 539.002929688 c 0
 282.251953125 539.669921875 297.584960938 540.002929688 317.584960938 540.002929688 c 1
 376.584960938 686.002929688 l 2
 387.251953125 706.669921875 399.918945312 721.002929688 414.5859375 729.002929688 c 0
 424.5859375 734.3359375 434.5859375 737.002929688 444.5859375 737.002929688 c 0
 448.5859375 737.002929688 452.918945312 736.3359375 457.5859375 735.002929688 c 0
 472.918945312 731.669921875 483.251953125 723.336914062 488.584960938 710.00390625 c 0
 490.985351562 704.404296875 492.185546875 698.204101562 492.185546875 691.404296875 c 0
 492.185546875 686.87109375 491.651367188 682.0703125 490.584960938 677.00390625 c 0
 489.251953125 671.00390625 486.918945312 665.00390625 483.5859375 659.00390625 c 2
 435.5859375 542.00390625 l 1
 516.5859375 542.00390625 l 1
 571.5859375 678.00390625 l 2
 582.252929688 699.336914062 594.919921875 714.00390625 609.586914062 722.00390625 c 0
 619.586914062 727.336914062 629.586914062 729.669921875 639.586914062 729.002929688 c 0
 644.25390625 729.002929688 648.920898438 728.669921875 653.587890625 728.002929688 c 0
 668.920898438 724.669921875 679.587890625 716.336914062 685.587890625 703.00390625 c 0
 687.98828125 697.803710938 689.188476562 692.00390625 689.188476562 685.603515625 c 0
 689.188476562 681.336914062 688.654296875 676.803710938 687.587890625 672.00390625 c 0
 686.254882812 665.336914062 683.587890625 658.336914062 679.587890625 651.00390625 c 0
 667.587890625 626.336914062 652.254882812 590.336914062 633.587890625 543.00390625 c 1
 650.254882812 542.336914062 662.921875 537.00390625 671.588867188 527.00390625 c 0
 679.921875 517.559570312 684.088867188 507.189453125 684.088867188 495.892578125 c 0
 684.088867188 493.633789062 683.921875 491.336914062 683.588867188 489.00390625 c 0
 680.255859375 473.670898438 672.422851562 460.670898438 660.08984375 450.00390625 c 0
 647.756835938 439.336914062 632.58984375 433.669921875 614.58984375 433.002929688 c 2
 613.58984375 433.002929688 l 1
 589.58984375 433.002929688 l 1
 532.58984375 286.002929688 l 1
 557.58984375 286.002929688 l 2
 575.58984375 286.002929688 587.256835938 281.3359375 592.58984375 272.002929688 c 0
 596.14453125 265.78125 597.922851562 258.522460938 597.922851562 250.2265625 c 0
 597.922851562 246.078125 597.477539062 241.669921875 596.588867188 237.002929688 c 2
 596.588867188 236.002929688 l 2
 593.255859375 220.002929688 586.922851562 207.669921875 577.58984375 199.002929688 c 0
 565.58984375 186.3359375 550.58984375 180.002929688 532.58984375 180.002929688 c 2
 490.58984375 180.002929688 l 1
 462.58984375 109.3359375 442.922851562 60.6689453125 431.58984375 34.001953125 c 0
 420.922851562 16.6689453125 406.922851562 3.3359375 389.58984375 -5.9970703125 c 0
 379.390625 -11.396484375 370.000976562 -14.0966796875 361.421875 -14.0966796875 c 0
 360.467773438 -14.0966796875 359.524414062 -14.0634765625 358.590820312 -13.9970703125 c 0
 353.2578125 -13.9970703125 348.2578125 -13.330078125 343.590820312 -11.9970703125 c 0
 329.590820312 -8.6640625 320.590820312 1.6689453125 316.590820312 19.001953125 c 0
 314.590820312 28.3349609375 314.923828125 37.66796875 317.590820312 47.0009765625 c 0
 319.590820312 55.0009765625 322.590820312 63.333984375 326.590820312 72.0009765625 c 0
 337.923828125 96.0009765625 353.256835938 131.66796875 372.58984375 179.000976562 c 1
 361.256835938 179.000976562 346.58984375 178.833984375 328.58984375 178.500976562 c 0
 310.58984375 178.16796875 295.922851562 178.000976562 284.58984375 178.000976562 c 1
 246.58984375 88.0009765625 226.922851562 41.333984375 225.58984375 38.0009765625 c 0
 216.256835938 21.333984375 202.256835938 7.6669921875 183.58984375 -3 c 0
 170.922851562 -10.3330078125 159.58984375 -14 149.58984375 -14 c 0
 144.922851562 -14 139.922851562 -13.3330078125 134.58984375 -12 c 0
 120.58984375 -8.6669921875 112.256835938 2.3330078125 109.58984375 21 c 0
 108.256835938 30.3330078125 108.58984375 39.5 110.58984375 48.5 c 0
 112.58984375 57.5 115.922851562 66.6669921875 120.58984375 76 c 0
 128.58984375 92 143.922851562 125.666992188 166.58984375 177 c 1
 152.58984375 177 l 2
 134.58984375 177 121.58984375 181 113.58984375 189 c 0
 107.330078125 195.259765625 104.200195312 203.2578125 104.200195312 212.995117188 c 0
 104.200195312 216.739257812 104.663085938 220.741210938 105.588867188 225 c 2
 105.588867188 229 l 2
 108.921875 243 116.421875 255 128.088867188 265 c 0
 139.755859375 275 154.922851562 280.666992188 173.58984375 282 c 0
 178.922851562 282 185.58984375 282.166992188 193.58984375 282.5 c 0
 201.58984375 282.833007812 207.58984375 283 211.58984375 283 c 2
 273.58984375 431 l 1
474.5859375 433.001953125 m 1
 390.5859375 433.001953125 l 1
 329.5859375 287.001953125 l 1
 415.5859375 287.001953125 l 1
 435.5859375 334.334960938 455.252929688 383.001953125 474.5859375 433.001953125 c 1
EndSplineSet
Validated: 524289
EndChar

StartChar: dollar
Encoding: 36 36 11
Width: 630
GlyphClass: 2
Flags: HMW
HStem: 623.002 101
VStem: 506.361 117.492
LayerCount: 2
Fore
SplineSet
316.850585938 -130 m 0
 302.517578125 -140 287.026367188 -144.999023438 270.359375 -144.999023438 c 2
 269.359375 -144.999023438 l 2
 252.692382812 -144.999023438 241.359375 -138.999023438 235.359375 -126.999023438 c 0
 232.63671875 -121.943359375 231.275390625 -115.866210938 231.275390625 -108.767578125 c 0
 231.275390625 -103.698242188 231.969726562 -98.1083984375 233.358398438 -91.998046875 c 0
 234.025390625 -88.6650390625 235.525390625 -82.83203125 237.858398438 -74.4990234375 c 0
 240.19140625 -66.166015625 244.024414062 -51.9990234375 249.357421875 -31.9990234375 c 1
 227.357421875 -31.33203125 206.357421875 -27.9990234375 186.357421875 -21.9990234375 c 0
 167.690429688 -16.666015625 151.690429688 -8.666015625 138.357421875 2.0009765625 c 0
 113.024414062 22.0009765625 97.0244140625 46.0009765625 90.357421875 74.0009765625 c 0
 88.8330078125 82.3818359375 88.0712890625 90.3271484375 88.0712890625 97.8369140625 c 0
 88.0712890625 103.469726562 88.5 108.857421875 89.357421875 114.000976562 c 0
 90.0244140625 118.000976562 91.357421875 121.66796875 93.357421875 125.000976562 c 0
 100.024414062 139.66796875 111.024414062 150.66796875 126.357421875 158.000976562 c 0
 135.024414062 162.000976562 141.857421875 164.500976562 146.857421875 165.500976562 c 0
 151.857421875 166.500976562 155.857421875 167.000976562 158.857421875 167.000976562 c 2
 167.357421875 167.000976562 l 2
 174.690429688 166.333984375 180.857421875 163.000976562 185.857421875 157.000976562 c 0
 190.857421875 151.000976562 195.357421875 143.333984375 199.357421875 134.000976562 c 0
 207.357421875 115.333984375 218.024414062 100.666992188 231.357421875 90 c 0
 242.690429688 81.3330078125 257.690429688 76.3330078125 276.357421875 75 c 1
 300.357421875 174.333007812 321.690429688 263.666015625 340.357421875 342.999023438 c 1
 338.357421875 342.999023438 334.690429688 343.666015625 329.357421875 344.999023438 c 0
 326.024414062 345.666015625 321.357421875 345.999023438 315.357421875 345.999023438 c 0
 290.024414062 348.666015625 268.357421875 355.333007812 250.357421875 366 c 0
 233.690429688 376.666992188 220.857421875 389.333984375 211.857421875 404.000976562 c 0
 202.857421875 418.66796875 197.024414062 434.500976562 194.357421875 451.500976562 c 0
 193.291015625 458.30078125 192.756835938 465.07421875 192.756835938 471.8203125 c 0
 192.756835938 481.940429688 193.95703125 492.000976562 196.357421875 502.000976562 c 0
 202.357421875 526.66796875 211.524414062 550.334960938 223.857421875 573.001953125 c 0
 236.190429688 595.668945312 252.0234375 616.8359375 271.356445312 636.502929688 c 0
 290.689453125 656.169921875 314.356445312 673.002929688 342.356445312 687.002929688 c 0
 369.0234375 699.669921875 397.356445312 709.002929688 427.356445312 715.002929688 c 1
 430.689453125 728.3359375 434.689453125 744.002929688 439.356445312 762.002929688 c 0
 447.356445312 794.002929688 462.356445312 814.3359375 484.356445312 823.002929688 c 0
 491.689453125 825.669921875 500.356445312 827.002929688 510.356445312 827.002929688 c 0
 531.0234375 827.002929688 544.356445312 820.002929688 550.356445312 806.002929688 c 0
 552.869140625 800.259765625 554.125976562 793.645507812 554.125976562 786.163085938 c 0
 554.125976562 779.748046875 553.203125 772.694335938 551.356445312 765.001953125 c 0
 546.689453125 745.001953125 543.356445312 731.334960938 541.356445312 724.001953125 c 1
 555.356445312 722.668945312 573.689453125 719.001953125 596.356445312 713.001953125 c 0
 618.356445312 707.668945312 635.356445312 702.668945312 647.356445312 698.001953125 c 0
 660.689453125 692.668945312 669.022460938 683.668945312 672.35546875 671.001953125 c 0
 675.022460938 661.668945312 675.35546875 652.001953125 673.35546875 642.001953125 c 0
 672.688476562 638.668945312 671.688476562 635.001953125 670.35546875 631.001953125 c 0
 667.022460938 621.001953125 661.522460938 613.001953125 653.85546875 607.001953125 c 0
 646.188476562 601.001953125 638.021484375 597.334960938 629.354492188 596.001953125 c 0
 625.354492188 595.334960938 621.6875 595.001953125 618.354492188 595.001953125 c 0
 615.021484375 595.001953125 611.354492188 595.168945312 607.354492188 595.501953125 c 0
 603.354492188 595.834960938 598.6875 597.001953125 593.354492188 599.001953125 c 0
 586.6875 600.334960938 579.020507812 603.001953125 570.353515625 607.001953125 c 0
 554.353515625 615.668945312 536.686523438 621.001953125 517.353515625 623.001953125 c 1
 501.353515625 558.334960938 486.020507812 497.001953125 471.353515625 439.001953125 c 1
 498.020507812 434.334960938 522.353515625 427.334960938 544.353515625 418.001953125 c 0
 564.353515625 408.001953125 580.020507812 396.001953125 591.353515625 382.001953125 c 0
 602.686523438 368.001953125 611.01953125 352.168945312 616.352539062 334.501953125 c 0
 621.372070312 317.873046875 623.881835938 301.245117188 623.881835938 284.616210938 c 0
 623.881835938 270.657226562 622.295898438 250.924804688 616.352539062 228.000976562 c 0
 609.01953125 196.66796875 597.01953125 167.000976562 580.352539062 139.000976562 c 0
 563.685546875 111.000976562 544.018554688 86.66796875 521.3515625 66.0009765625 c 0
 498.684570312 45.333984375 473.3515625 27.6669921875 445.3515625 13 c 0
 418.684570312 -0.3330078125 391.017578125 -11 362.350585938 -19 c 1
 354.350585938 -53 349.68359375 -76 348.350585938 -88 c 0
 341.68359375 -106 331.18359375 -120 316.850585938 -130 c 0
348.359375 585.000976562 m 0
 329.692382812 569.66796875 317.692382812 551.666992188 312.359375 531 c 0
 311.359375 526.666992188 310.859375 522.4375 310.859375 518.3125 c 0
 310.859375 505.9375 315.359375 494.5 324.359375 484 c 0
 334.359375 472 348.359375 463 366.359375 457 c 1
 376.359375 498.333007812 389.026367188 551.333007812 404.359375 616 c 1
 383.026367188 608.666992188 364.359375 598.333984375 348.359375 585.000976562 c 0
457.359375 137 m 0
 481.359375 157.666992188 496.360351562 181.33203125 502.360351562 207.999023438 c 0
 505.02734375 219.999023438 506.360351562 230.33203125 506.360351562 238.999023438 c 0
 506.360351562 248.999023438 504.02734375 259.33203125 499.360351562 269.999023438 c 0
 492.02734375 288.666015625 473.02734375 304.333007812 442.360351562 317 c 1
 424.360351562 240.333007812 412.52734375 190.5 406.860351562 167.5 c 0
 401.193359375 144.5 395.026367188 119.666992188 388.359375 93 c 1
 414.359375 105 437.359375 119.666992188 457.359375 137 c 0
EndSplineSet
Validated: 524289
EndChar

StartChar: percent
Encoding: 37 37 12
Width: 630
GlyphClass: 2
Flags: HMW
HStem: -40.0059 100.999<414.881 461.881 427.881 461.881> 158.993 98<489.881 490.878> 420 98.9951<255.207 300.88> 607.994 97.0068<310.88 366.542>
VStem: 332.881 97.998<102.993 103.993 103.993 103.993> 349.881 101.995 511.879 96.002
LayerCount: 2
Fore
SplineSet
175.374023438 491.5 m 0xf6
 173.431640625 500.612304688 172.4609375 509.959960938 172.4609375 519.541015625 c 0
 172.4609375 531.338867188 173.932617188 543.4921875 176.875976562 556 c 0
 176.875976562 556.666992188 177.208984375 557.333984375 177.875976562 558.000976562 c 0
 187.875976562 600.000976562 207.708984375 635.000976562 237.375976562 663.000976562 c 0
 267.04296875 691.000976562 303.875976562 705.000976562 347.875976562 705.000976562 c 0
 385.208984375 705.000976562 413.875976562 693.000976562 433.875976562 669.000976562 c 0
 444.54296875 656.333984375 450.54296875 640.000976562 451.875976562 620.000976562 c 0
 452.171875 616.446289062 452.3203125 612.79296875 452.3203125 609.041015625 c 0
 452.3203125 595.904296875 450.504882812 581.557617188 446.875 566.000976562 c 0
 434.875 515.333984375 412.875 477.666992188 380.875 453 c 0
 352.208007812 431 314.541015625 420 267.874023438 420 c 0
 242.541015625 420 221.874023438 426.833007812 205.874023438 440.5 c 0
 189.874023438 454.166992188 179.70703125 471.166992188 175.374023438 491.5 c 0xf6
83.8759765625 -45 m 0
 76.54296875 -41 70.8798828125 -36.0048828125 66.8798828125 -30.0048828125 c 0
 62.212890625 -22.0048828125 61.212890625 -12.5048828125 63.8798828125 -1.5048828125 c 0
 66.546875 9.4951171875 72.546875 21.328125 81.8798828125 33.9951171875 c 0
 101.212890625 61.9951171875 145.545898438 120.328125 214.87890625 208.995117188 c 0
 361.545898438 387.662109375 434.87890625 477.329101562 434.87890625 477.99609375 c 0
 508.211914062 567.99609375 558.544921875 632.663085938 585.877929688 671.99609375 c 0
 599.2109375 685.99609375 614.2109375 694.99609375 630.877929688 698.99609375 c 2
 644.877929688 700.99609375 l 2
 654.877929688 700.99609375 663.544921875 698.329101562 670.877929688 692.99609375 c 0
 682.911132812 686.030273438 688.927734375 676.356445312 688.927734375 663.975585938 c 0
 688.927734375 659.627929688 688.447265625 656.840820312 687.877929688 653.997070312 c 0
 685.2109375 642.6640625 678.543945312 630.331054688 667.876953125 616.998046875 c 0
 635.876953125 577.665039062 554.876953125 477.33203125 424.876953125 315.999023438 c 0
 294.209960938 154.666015625 207.54296875 45.666015625 164.875976562 -11.0009765625 c 0
 144.701171875 -37.6826171875 125.162109375 -51.0234375 106.258789062 -51.0234375 c 0
 105.797851562 -51.0234375 105.336914062 -51.015625 104.875976562 -51 c 0
 97.54296875 -51 90.54296875 -49 83.8759765625 -45 c 0
347.379882812 597.495117188 m 0
 341.712890625 604.495117188 331.546875 607.994140625 316.879882812 607.994140625 c 0
 304.879882812 607.994140625 295.546875 604.327148438 288.879882812 596.994140625 c 0
 280.212890625 588.327148438 273.212890625 576.327148438 267.879882812 560.994140625 c 0
 267.879882812 559.661132812 267.546875 558.328125 266.879882812 556.995117188 c 0
 264.212890625 544.995117188 264.712890625 535.995117188 268.379882812 529.995117188 c 0
 272.046875 523.995117188 282.546875 520.328125 299.879882812 518.995117188 c 2
 300.879882812 518.995117188 l 2
 312.879882812 518.995117188 322.546875 522.328125 329.879882812 528.995117188 c 0
 338.546875 536.995117188 345.213867188 547.662109375 349.880859375 560.995117188 c 0
 349.880859375 561.662109375 350.213867188 562.662109375 350.880859375 563.995117188 c 0
 352.115234375 569.673828125 352.732421875 574.780273438 352.732421875 579.31640625 c 0
 352.732421875 587.02734375 350.948242188 593.087890625 347.379882812 597.495117188 c 0
331.380859375 33.994140625 m 0
 329.108398438 43.69140625 327.971679688 53.6630859375 327.971679688 63.9111328125 c 0
 327.971679688 76.2080078125 329.608398438 88.90234375 332.880859375 101.993164062 c 1
 332.880859375 103.993164062 l 1xfa
 342.880859375 147.993164062 363.880859375 184.493164062 395.880859375 213.493164062 c 0
 427.880859375 242.493164062 466.880859375 256.993164062 512.880859375 256.993164062 c 0
 548.213867188 256.993164062 574.880859375 244.66015625 592.880859375 219.993164062 c 0
 602.213867188 206.66015625 607.213867188 189.327148438 607.880859375 167.994140625 c 0
 607.963867188 165.993164062 608.005859375 163.966796875 608.005859375 161.9140625 c 0
 608.005859375 147.549804688 605.963867188 131.909179688 601.880859375 114.994140625 c 0
 600.547851562 108.327148438 598.880859375 101.66015625 596.880859375 94.9931640625 c 0
 584.880859375 51.66015625 565.380859375 18.3271484375 538.380859375 -5.005859375 c 0
 511.380859375 -28.3388671875 476.213867188 -40.005859375 432.880859375 -40.005859375 c 2
 427.880859375 -40.005859375 l 2
 401.880859375 -40.005859375 380.547851562 -33.005859375 363.880859375 -19.005859375 c 0
 347.213867188 -5.005859375 336.380859375 12.6611328125 331.380859375 33.994140625 c 0
461.880859375 60.9931640625 m 2
 464.877929688 60.9921875 l 2
 476.2109375 60.9921875 485.2109375 64.3251953125 491.877929688 70.9921875 c 0
 500.544921875 79.6591796875 507.211914062 91.326171875 511.87890625 105.993164062 c 1
 511.87890625 108.993164062 l 2
 513.73046875 117.880859375 514.65625 125.53515625 514.65625 131.954101562 c 0
 514.65625 137.090820312 514.063476562 141.4375 512.877929688 144.993164062 c 0
 508.877929688 154.326171875 498.877929688 158.993164062 482.877929688 158.993164062 c 0
 470.877929688 158.993164062 460.877929688 154.66015625 452.877929688 145.993164062 c 0
 443.544921875 135.993164062 436.211914062 122.66015625 430.87890625 105.993164062 c 1
 430.87890625 102.993164062 l 2
 427.545898438 89.66015625 427.712890625 79.4931640625 431.379882812 72.4931640625 c 0
 435.046875 65.4931640625 445.213867188 61.66015625 461.880859375 60.9931640625 c 2
EndSplineSet
Validated: 524289
EndChar

StartChar: ampersand
Encoding: 38 38 13
Width: 630
GlyphClass: 2
Flags: HMW
HStem: -53.9971 117.999<228.213 281.88> 633.001 103.001<436.212 480.547>
LayerCount: 2
Fore
SplineSet
553.879882812 11 m 0
 553.212890625 7.6669921875 552.212890625 4.0009765625 550.879882812 0.0009765625 c 0
 543.546875 -23.33203125 532.546875 -38.6650390625 517.879882812 -45.998046875 c 0
 505.212890625 -50.6650390625 497.212890625 -52.998046875 493.879882812 -52.998046875 c 2
 492.879882812 -52.998046875 l 2
 484.879882812 -52.998046875 476.879882812 -50.3310546875 468.879882812 -44.998046875 c 0
 454.879882812 -36.3310546875 444.879882812 -21.3310546875 438.879882812 0.001953125 c 0
 438.212890625 3.3349609375 437.045898438 10.8349609375 435.37890625 22.501953125 c 2
 431.87890625 47.001953125 l 1
 423.87890625 38.3349609375 417.711914062 31.8349609375 413.37890625 27.501953125 c 0
 409.045898438 23.1689453125 402.212890625 16.8359375 392.879882812 8.5029296875 c 0
 383.546875 0.169921875 375.713867188 -6.330078125 369.380859375 -10.9970703125 c 0
 363.047851562 -15.6640625 354.547851562 -21.1640625 343.880859375 -27.4970703125 c 0
 333.213867188 -33.830078125 323.213867188 -38.4970703125 313.880859375 -41.4970703125 c 0
 304.547851562 -44.4970703125 294.047851562 -47.330078125 282.380859375 -49.9970703125 c 0
 270.713867188 -52.6640625 258.880859375 -53.9970703125 246.880859375 -53.9970703125 c 0
 209.547851562 -53.9970703125 178.047851562 -43.830078125 152.380859375 -23.4970703125 c 0
 126.713867188 -3.1640625 109.213867188 23.6689453125 99.880859375 57.001953125 c 0
 95.0419921875 74.28515625 92.6220703125 92.28515625 92.6220703125 111.002929688 c 0
 92.6220703125 128.383789062 94.708984375 146.383789062 98.8818359375 165.001953125 c 0
 112.21484375 223.001953125 133.881835938 272.668945312 163.881835938 314.001953125 c 0
 198.548828125 362.668945312 243.881835938 400.668945312 299.881835938 428.001953125 c 1
 289.881835938 455.501953125 l 2
 285.881835938 466.501953125 282.881835938 475.001953125 280.881835938 481.001953125 c 0
 278.881835938 487.001953125 276.71484375 494.834960938 274.381835938 504.501953125 c 0
 272.048828125 514.168945312 270.881835938 522.668945312 270.881835938 530.001953125 c 0
 270.881835938 550.001953125 273.21484375 569.668945312 277.881835938 589.001953125 c 0
 280.548828125 601.668945312 285.048828125 614.501953125 291.381835938 627.501953125 c 0
 297.71484375 640.501953125 306.381835938 653.668945312 317.381835938 667.001953125 c 0
 328.381835938 680.334960938 341.048828125 692.001953125 355.381835938 702.001953125 c 0
 369.71484375 712.001953125 386.881835938 720.168945312 406.881835938 726.501953125 c 0
 426.881835938 732.834960938 448.21484375 736.001953125 470.881835938 736.001953125 c 0
 490.21484375 736.001953125 508.381835938 732.668945312 525.381835938 726.001953125 c 0
 542.381835938 719.334960938 557.21484375 709.834960938 569.881835938 697.501953125 c 0
 582.548828125 685.168945312 591.048828125 668.668945312 595.381835938 648.001953125 c 0
 597.19921875 639.334960938 598.107421875 630.2578125 598.107421875 620.770507812 c 0
 598.107421875 607.633789062 596.365234375 593.7109375 592.881835938 579.001953125 c 0
 587.548828125 556.334960938 580.048828125 535.16796875 570.381835938 515.500976562 c 0
 560.71484375 495.833984375 550.21484375 479.333984375 538.881835938 466.000976562 c 0
 527.548828125 452.66796875 514.215820312 440.16796875 498.8828125 428.500976562 c 0
 483.549804688 416.833984375 470.716796875 408.000976562 460.383789062 402.000976562 c 0
 450.05078125 396.000976562 439.883789062 390.66796875 429.883789062 386.000976562 c 1
 436.55078125 366.000976562 446.55078125 340.833984375 459.883789062 310.500976562 c 0
 473.216796875 280.16796875 482.549804688 257.66796875 487.8828125 243.000976562 c 1
 490.549804688 247.000976562 494.549804688 253.16796875 499.8828125 261.500976562 c 0
 505.215820312 269.833984375 510.548828125 278.000976562 515.881835938 286.000976562 c 0
 521.21484375 294.000976562 525.547851562 300.000976562 528.880859375 304.000976562 c 0
 545.547851562 324.000976562 560.880859375 336.333984375 574.880859375 341.000976562 c 0
 580.213867188 343.000976562 585.546875 344.000976562 590.879882812 344.000976562 c 0
 599.546875 344.000976562 607.879882812 341.66796875 615.879882812 337.000976562 c 0
 627.340820312 330.366210938 633.071289062 319.091796875 633.071289062 303.178710938 c 0
 633.071289062 301.50390625 633.0078125 299.778320312 632.880859375 298.000976562 c 0
 632.880859375 294.000976562 632.213867188 290.000976562 630.880859375 286.000976562 c 0
 627.547851562 272.000976562 620.547851562 257.333984375 609.880859375 242.000976562 c 0
 605.213867188 235.333984375 593.213867188 222.166992188 573.880859375 202.5 c 0
 554.547851562 182.833007812 538.547851562 165.333007812 525.880859375 150 c 1
 529.880859375 138 535.047851562 121.166992188 541.380859375 99.5 c 0
 547.713867188 77.8330078125 551.546875 65 552.879882812 61 c 0
 555.392578125 52.384765625 556.649414062 43.576171875 556.649414062 34.57421875 c 0
 556.649414062 26.8583984375 555.7265625 19 553.879882812 11 c 0
384.879882812 572.000976562 m 0
 383.213867188 564.66796875 382.379882812 557.000976562 382.379882812 549.000976562 c 0
 382.379882812 541.001953125 383.213867188 532.668945312 384.879882812 524.001953125 c 0
 388.212890625 506.668945312 392.879882812 491.668945312 398.879882812 479.001953125 c 1
 410.212890625 482.334960938 420.212890625 486.16796875 428.879882812 490.500976562 c 0
 437.546875 494.833984375 446.379882812 500.333984375 455.379882812 507.000976562 c 0
 464.379882812 513.66796875 471.712890625 522.000976562 477.379882812 532.000976562 c 0
 483.046875 542.000976562 487.546875 554.333984375 490.879882812 569.000976562 c 0
 492.473632812 576.057617188 493.270507812 582.551757812 493.270507812 588.481445312 c 0
 493.270507812 599.916992188 490.306640625 609.256835938 484.379882812 616.500976562 c 0
 475.379882812 627.500976562 462.212890625 633.000976562 444.879882812 633.000976562 c 0
 427.546875 633.000976562 413.879882812 627.333984375 403.879882812 616.000976562 c 0
 395.879882812 606.000976562 389.546875 591.333984375 384.879882812 572.000976562 c 0
216.879882812 174.001953125 m 0
 213.947265625 161.203125 212.48046875 149.310546875 212.48046875 138.32421875 c 0
 212.48046875 121.842773438 215.780273438 107.40234375 222.380859375 95.001953125 c 0
 233.380859375 74.3349609375 250.880859375 64.001953125 274.880859375 64.001953125 c 0
 288.880859375 64.001953125 303.880859375 66.6689453125 319.880859375 72.001953125 c 0
 325.213867188 73.3349609375 331.380859375 76.3349609375 338.380859375 81.001953125 c 2
 354.880859375 92.001953125 l 2
 358.880859375 94.6689453125 363.880859375 99.001953125 369.880859375 105.001953125 c 0
 375.880859375 111.001953125 380.213867188 115.168945312 382.880859375 117.501953125 c 0
 385.547851562 119.834960938 388.880859375 123.501953125 392.880859375 128.501953125 c 0
 396.880859375 133.501953125 399.547851562 136.668945312 400.880859375 138.001953125 c 0
 396.880859375 158.001953125 392.880859375 176.001953125 388.880859375 192.001953125 c 0
 384.880859375 207.334960938 376.380859375 230.834960938 363.380859375 262.501953125 c 0
 350.380859375 294.168945312 340.880859375 318.001953125 334.880859375 334.001953125 c 1
 319.547851562 326.668945312 305.547851562 318.001953125 292.880859375 308.001953125 c 0
 278.213867188 296.001953125 266.046875 283.001953125 256.379882812 269.001953125 c 0
 246.712890625 255.001953125 238.712890625 240.334960938 232.379882812 225.001953125 c 0
 226.046875 209.668945312 220.879882812 192.668945312 216.879882812 174.001953125 c 0
EndSplineSet
Validated: 524289
EndChar

StartChar: quotesingle
Encoding: 39 39 14
Width: 630
GlyphClass: 2
Flags: W
LayerCount: 2
Fore
SplineSet
537.790039062 728 m 0
 535.790039062 719.333007812 532.790039062 705.833007812 528.790039062 687.5 c 0
 524.790039062 669.166992188 518.123046875 641.333984375 508.790039062 604.000976562 c 0
 494.123046875 546.000976562 482.790039062 506.000976562 474.790039062 484.000976562 c 0
 468.790039062 466.66796875 458.790039062 453.66796875 444.790039062 445.000976562 c 0
 432.790039062 437.66796875 421.123046875 434.000976562 409.790039062 434.000976562 c 0
 393.790039062 434.000976562 380.45703125 439.000976562 369.790039062 449.000976562 c 0
 363.256835938 455.534179688 359.990234375 463.701171875 359.990234375 473.500976562 c 0
 359.990234375 477.701171875 360.58984375 482.201171875 361.790039062 487.000976562 c 0
 361.790039062 489.000976562 362.45703125 491.000976562 363.790039062 493.000976562 c 0
 371.790039062 519.66796875 379.123046875 549.66796875 385.790039062 583.000976562 c 0
 396.45703125 630.333984375 407.124023438 680.000976562 417.791015625 732.000976562 c 1
 417.791015625 735.000976562 l 2
 419.791015625 744.333984375 423.791015625 752.666992188 429.791015625 760 c 0
 436.458007812 768.666992188 444.125 774.666992188 452.791992188 778 c 0
 464.791992188 782.666992188 476.791992188 785 488.791992188 785 c 0
 498.125 785 505.458007812 784 510.791015625 782 c 0
 516.124023438 780 521.45703125 777.333007812 526.790039062 774 c 0
 532.790039062 770 536.623046875 763.833007812 538.290039062 755.5 c 0
 539.95703125 747.166992188 539.790039062 738 537.790039062 728 c 0
EndSplineSet
Validated: 524289
EndChar

StartChar: parenleft
Encoding: 40 40 15
Width: 630
GlyphClass: 2
Flags: HMW
HStem: -144 109<355.999 410.662> 721 105<569.666 610.665>
LayerCount: 2
Fore
SplineSet
437.994140625 -93 m 0
 434.661132812 -107.666992188 426.666015625 -119.833007812 413.999023438 -129.5 c 0
 401.33203125 -139.166992188 389.33203125 -144 377.999023438 -144 c 0
 333.999023438 -144 297.999023438 -127 269.999023438 -93 c 0
 241.999023438 -59 223.83203125 -13 215.499023438 45 c 0
 211.844726562 70.4375 210.016601562 97.5419921875 210.016601562 126.314453125 c 0
 210.016601562 163.14453125 213.01171875 202.706054688 219 245 c 0
 221.666992188 265.666992188 226.666992188 291.5 234 322.5 c 0
 241.333007812 354.166992188 252 392.666992188 266 438 c 0
 290.666992188 517.333007812 318 582.333007812 348 633 c 0
 361.333007812 656.333007812 377.666015625 679 396.999023438 701 c 0
 416.33203125 723 436.999023438 743.5 458.999023438 762.5 c 0
 480.999023438 781.5 504.83203125 796.833007812 530.499023438 808.5 c 0
 556.166015625 820.166992188 579.999023438 826 601.999023438 826 c 0
 619.33203125 826 630.999023438 820.333007812 636.999023438 809 c 0
 639.721679688 803.944335938 641.083007812 797.75390625 641.083007812 790.428710938 c 0
 641.083007812 785.197265625 640.388671875 779.387695312 639 773 c 0
 635 755 626.666992188 741.666992188 614 733 c 0
 602.666992188 725 590.166992188 721 576.5 721 c 0
 562.833007812 721 548.666015625 716.5 533.999023438 707.5 c 0
 519.33203125 698.5 505.33203125 685.666992188 491.999023438 669 c 0
 464.666015625 637 440.666015625 597.333007812 419.999023438 550 c 0
 403.999023438 514.666992188 387.666015625 468 370.999023438 410 c 0
 362.33203125 379.333007812 355.165039062 351.833007812 349.498046875 327.5 c 0
 343.831054688 303.166992188 339.6640625 281.666992188 336.997070312 263 c 0
 331.854492188 228.713867188 329.283203125 195.286132812 329.283203125 162.71484375 c 0
 329.283203125 157.286132812 329.354492188 151.880859375 329.497070312 146.5 c 0
 330.497070312 108.833007812 334.6640625 76.8330078125 341.997070312 50.5 c 0
 349.330078125 24.1669921875 358.663085938 3 369.99609375 -13 c 0
 380.663085938 -27 391.663085938 -34.3330078125 402.99609375 -35 c 0
 418.329101562 -35 429.162109375 -39.3330078125 435.495117188 -48 c 0
 439.141601562 -52.990234375 440.963867188 -60.0791015625 440.963867188 -69.2666015625 c 0
 440.963867188 -76.0380859375 439.974609375 -83.94921875 437.994140625 -93 c 0
EndSplineSet
Validated: 524289
EndChar

StartChar: parenright
Encoding: 41 41 16
Width: 630
GlyphClass: 2
Flags: HMW
HStem: -144 108.998<197.233 201.9> 721 105<373.567 414.233>
VStem: 458.9 108.999
LayerCount: 2
Fore
SplineSet
179.900390625 -144 m 0
 168.567382812 -144 158.568359375 -139.169921875 149.901367188 -129.502929688 c 0
 143.641601562 -122.520507812 140.51171875 -114.234375 140.51171875 -104.64453125 c 0
 140.51171875 -100.95703125 140.974609375 -97.076171875 141.900390625 -93.001953125 c 0
 146.567382812 -71.6689453125 154.400390625 -56.6689453125 165.400390625 -48.001953125 c 0
 176.400390625 -39.3349609375 189.567382812 -35.001953125 204.900390625 -35.001953125 c 0
 216.233398438 -35.001953125 230.56640625 -27.6689453125 247.899414062 -13.001953125 c 0
 266.56640625 2.998046875 285.56640625 24.1650390625 304.899414062 50.498046875 c 0
 324.232421875 76.8310546875 343.232421875 108.998046875 361.899414062 146.998046875 c 0
 380.56640625 184.998046875 396.233398438 223.665039062 408.900390625 262.998046875 c 0
 414.900390625 282.998046875 420.567382812 304.831054688 425.900390625 328.498046875 c 0
 431.233398438 352.165039062 436.900390625 379.33203125 442.900390625 409.999023438 c 0
 453.567382812 468.666015625 458.900390625 515.333007812 458.900390625 550 c 0
 458.93359375 552.333984375 458.950195312 554.65234375 458.950195312 556.953125 c 0
 458.950195312 600.65234375 452.93359375 638.333984375 440.900390625 670 c 0
 434.900390625 686 426.733398438 698.5 416.400390625 707.5 c 0
 406.067382812 716.5 394.067382812 721 380.400390625 721 c 0
 366.733398438 721 355.900390625 725 347.900390625 733 c 0
 341.970703125 738.9296875 339.005859375 747.043945312 339.005859375 757.342773438 c 0
 339.005859375 762.096679688 339.63671875 767.315429688 340.900390625 773 c 0
 342.900390625 783 346.567382812 792 351.900390625 800 c 0
 357.233398438 808 363.56640625 814 370.899414062 818 c 0
 380.899414062 823.333007812 391.56640625 826 402.899414062 826 c 0
 425.56640625 826 446.899414062 820.166992188 466.899414062 808.5 c 0
 486.899414062 796.833007812 503.56640625 781.5 516.899414062 762.5 c 0
 530.232421875 743.5 541.399414062 723 550.399414062 701 c 0
 559.399414062 679 565.232421875 656.333007812 567.899414062 633 c 0
 569.9765625 615.231445312 571.014648438 595.825195312 571.014648438 574.78125 c 0
 571.014648438 535.030273438 567.309570312 489.436523438 559.899414062 438 c 0
 553.232421875 392 546.232421875 353.5 538.899414062 322.5 c 0
 531.56640625 291.5 524.56640625 265.666992188 517.899414062 245 c 0
 493.899414062 169.666992188 464.232421875 103 428.899414062 45 c 0
 393.56640625 -13 354.233398438 -59 310.900390625 -93 c 0
 267.567382812 -127 223.900390625 -144 179.900390625 -144 c 0
EndSplineSet
Validated: 524289
EndChar

StartChar: asterisk
Encoding: 42 42 17
Width: 630
GlyphClass: 2
Flags: HMW
HStem: 281.001 127.999<182.601 218.602> 289 119.001<576.934 606.6> 294 101.001
LayerCount: 2
Fore
SplineSet
254.6015625 102 m 2x20
 245.600585938 102.000976562 l 2
 241.600585938 102.000976562 236.43359375 102.66796875 230.100585938 104.000976562 c 0
 223.767578125 105.333984375 217.934570312 108.166992188 212.6015625 112.5 c 0
 207.268554688 116.833007812 202.935546875 122.833007812 199.602539062 130.5 c 0
 196.26953125 138.166992188 195.26953125 147.333984375 196.602539062 158.000976562 c 0
 196.602539062 160.000976562 196.935546875 162.66796875 197.602539062 166.000976562 c 0
 199.602539062 176.66796875 204.602539062 186.66796875 212.602539062 196.000976562 c 2
 283.602539062 285.000976562 l 1
 242.935546875 282.333984375 212.268554688 281.000976562 191.6015625 281.000976562 c 0
 173.6015625 281.000976562 160.6015625 287.66796875 152.6015625 301.000976562 c 0
 147.83984375 309.572265625 145.458984375 319.1640625 145.458984375 329.775390625 c 0
 145.458984375 334.020507812 145.83984375 338.4296875 146.6015625 343.000976562 c 2
 146.6015625 346.000976562 l 2
 149.268554688 359.333984375 155.935546875 372.666992188 166.602539062 386 c 0
 172.602539062 394 180.602539062 400 190.602539062 404 c 0
 197.935546875 407.333007812 205.935546875 409 214.602539062 409 c 2
 218.602539062 409 l 1
 219.602539062 409 l 2x80
 244.26953125 407 278.26953125 404.333007812 321.602539062 401 c 1
 308.935546875 439.666992188 297.935546875 470 288.602539062 492 c 0
 285.3203125 501.026367188 283.6796875 510.177734375 283.6796875 519.456054688 c 0
 283.6796875 525.254882812 284.3203125 531.102539062 285.602539062 537 c 0
 286.26953125 539.666992188 287.26953125 542.333984375 288.602539062 545.000976562 c 0
 295.26953125 563.66796875 305.602539062 576.66796875 319.602539062 584.000976562 c 0
 328.935546875 589.333984375 338.768554688 592.000976562 349.1015625 592.000976562 c 0
 359.434570312 592.000976562 368.934570312 589.000976562 377.6015625 583.000976562 c 0
 386.934570312 576.333984375 392.934570312 566.333984375 395.6015625 553.000976562 c 0
 398.268554688 539.000976562 405.935546875 507.333984375 418.602539062 458.000976562 c 1
 445.26953125 492.66796875 467.602539062 524.000976562 485.602539062 552.000976562 c 0
 494.26953125 564.66796875 504.26953125 574.16796875 515.602539062 580.500976562 c 0
 526.935546875 586.833984375 537.268554688 590.000976562 546.6015625 590.000976562 c 0
 556.6015625 590.000976562 564.934570312 587.333984375 571.6015625 582.000976562 c 0
 578.268554688 578.000976562 583.1015625 571.333984375 586.1015625 562.000976562 c 0
 587.689453125 557.059570312 588.484375 551.745117188 588.484375 546.055664062 c 0
 588.484375 541 587.856445312 535.647460938 586.6015625 530.000976562 c 0
 583.934570312 516.66796875 577.267578125 504.334960938 566.600585938 493.001953125 c 0
 543.267578125 466.334960938 517.600585938 433.66796875 489.600585938 395.000976562 c 1x20
 532.93359375 395.66796875 564.266601562 399.000976562 583.599609375 405.000976562 c 0
 592.266601562 407.000976562 597.93359375 408.000976562 600.600585938 408.000976562 c 0x40
 612.600585938 408.000976562 621.93359375 403.66796875 628.600585938 395.000976562 c 0x20
 636.100585938 385.500976562 639.850585938 375.4375 639.850585938 364.8125 c 0
 639.850585938 361.270507812 639.43359375 357.666992188 638.600585938 354 c 0
 635.267578125 339.333007812 628.600585938 325.333007812 618.600585938 312 c 0
 612.600585938 304 605.267578125 297.666992188 596.600585938 293 c 0
 590.600585938 290.333007812 584.600585938 289 578.600585938 289 c 0x40
 575.267578125 289 571.934570312 289.333007812 568.6015625 290 c 0
 553.934570312 292.666992188 526.934570312 294 487.6015625 294 c 2
 466.6015625 294 l 1
 497.6015625 196 l 2
 499.453125 187.852539062 500.37890625 180.116210938 500.37890625 172.791992188 c 0
 500.37890625 166.931640625 499.786132812 161.333984375 498.600585938 156 c 0
 497.93359375 153.333007812 496.93359375 150.666015625 495.600585938 147.999023438 c 0
 490.267578125 132.666015625 481.267578125 121.333007812 468.600585938 114 c 0
 457.93359375 108 446.266601562 105 433.599609375 105 c 0
 423.599609375 105 414.266601562 107.333007812 405.599609375 112 c 0
 394.266601562 118 388.266601562 128 387.599609375 142 c 0
 386.266601562 164 380.599609375 194.666992188 370.599609375 234 c 1
 336.599609375 184.666992188 314.599609375 151.666992188 304.599609375 135 c 0
 299.266601562 124.333007812 291.93359375 116.333007812 282.600585938 111 c 0
 273.267578125 105.666992188 263.934570312 102.666992188 254.6015625 102 c 2x20
EndSplineSet
Validated: 524289
EndChar

StartChar: plus
Encoding: 43 43 18
Width: 630
GlyphClass: 2
Flags: HMW
HStem: 346 106<528.682 534.682 528.682 528.682>
LayerCount: 2
Fore
SplineSet
438.682617188 348 m 1
 416.685546875 250 l 2
 412.018554688 230.666992188 404.518554688 217 394.185546875 209 c 0
 383.852539062 201 372.01953125 196.333007812 358.686523438 195 c 2
 357.686523438 195 l 2
 343.01953125 195 332.01953125 199 324.686523438 207 c 0
 318.747070312 212.939453125 315.77734375 220.903320312 315.77734375 230.892578125 c 0
 315.77734375 236.599609375 316.747070312 242.96875 318.686523438 249.999023438 c 2
 340.686523438 344.999023438 l 1
 257.686523438 343.999023438 l 2
 239.01953125 343.999023438 226.186523438 349.33203125 219.186523438 359.999023438 c 0
 214.444335938 367.224609375 212.07421875 375.369140625 212.07421875 384.430664062 c 0
 212.07421875 388.745117188 212.611328125 393.268554688 213.686523438 398 c 0
 213.686523438 398.666992188 214.01953125 400 214.686523438 402 c 0
 218.01953125 416 225.352539062 428.333007812 236.685546875 439 c 0
 248.018554688 449.666992188 262.3515625 455 279.684570312 455 c 0
 281.017578125 455 290.850585938 454.833007812 309.18359375 454.5 c 0
 327.516601562 454.166992188 346.349609375 453.666992188 365.682617188 453 c 1
 374.349609375 492.333007812 381.016601562 525.666015625 385.68359375 552.999023438 c 0
 389.68359375 571.666015625 398.68359375 585.333007812 412.68359375 594 c 0
 422.68359375 600.666992188 434.68359375 604 448.68359375 604 c 2
 452.68359375 604 l 2
 466.016601562 604 476.349609375 600.666992188 483.682617188 594 c 0
 489.31640625 588.799804688 492.1328125 581.487304688 492.1328125 572.0625 c 0
 492.1328125 566.987304688 491.31640625 561.299804688 489.682617188 555 c 0
 489.682617188 553 489.349609375 551 488.682617188 549 c 0
 478.682617188 515 470.349609375 482.666992188 463.682617188 452 c 1
 554.682617188 452 l 2
 572.682617188 452 584.349609375 447.333007812 589.682617188 438 c 0
 593.237304688 431.778320312 595.015625 424.51953125 595.015625 416.223632812 c 0
 595.015625 412.075195312 594.5703125 407.666992188 593.681640625 403 c 2
 593.681640625 402 l 2
 592.348632812 394.666992188 590.348632812 388.166992188 587.681640625 382.5 c 0
 585.014648438 376.833007812 581.34765625 371 576.680664062 365 c 0
 571.34765625 357.666992188 564.014648438 352.666992188 554.681640625 350 c 0
 548.681640625 348 542.014648438 346.666992188 534.681640625 346 c 2
 528.681640625 346 l 2
 519.348632812 346.666992188 506.015625 347.166992188 488.682617188 347.5 c 0
 471.349609375 347.833007812 454.682617188 348 438.682617188 348 c 1
EndSplineSet
Validated: 524289
EndChar

StartChar: comma
Encoding: 44 44 19
Width: 630
GlyphClass: 2
Flags: HMW
VStem: 166.631 279.998
LayerCount: 2
Fore
SplineSet
237.626953125 -223 m 0
 226.293945312 -227 216.963867188 -228.999023438 209.630859375 -228.999023438 c 0
 202.297851562 -228.999023438 196.297851562 -227.999023438 191.630859375 -225.999023438 c 0
 184.297851562 -223.33203125 178.130859375 -218.165039062 173.130859375 -210.498046875 c 0
 168.130859375 -202.831054688 165.963867188 -193.331054688 166.630859375 -181.998046875 c 0
 166.630859375 -179.998046875 166.963867188 -177.998046875 167.630859375 -175.998046875 c 0
 169.630859375 -165.998046875 175.297851562 -155.998046875 184.630859375 -145.998046875 c 0
 201.297851562 -127.331054688 228.630859375 -84.3310546875 266.630859375 -16.998046875 c 0
 304.630859375 49.6689453125 328.963867188 96.6689453125 339.630859375 124.001953125 c 0
 344.963867188 136.001953125 352.963867188 145.501953125 363.630859375 152.501953125 c 0
 374.297851562 159.501953125 384.630859375 163.001953125 394.630859375 163.001953125 c 0
 395.297851562 163.001953125 396.297851562 163.334960938 397.630859375 164.001953125 c 0
 404.963867188 164.001953125 412.296875 163.001953125 419.629882812 161.001953125 c 0
 430.962890625 157.001953125 439.295898438 149.334960938 444.62890625 138.001953125 c 0
 447.029296875 132.40234375 448.229492188 126.202148438 448.229492188 119.40234375 c 0
 448.229492188 114.869140625 447.6953125 110.068359375 446.62890625 105.001953125 c 0
 445.961914062 100.334960938 444.62890625 96.66796875 442.62890625 94.0009765625 c 0
 428.62890625 61.333984375 403.62890625 10.333984375 367.62890625 -58.9990234375 c 0
 330.961914062 -128.33203125 304.794921875 -171.33203125 289.127929688 -187.999023438 c 0
 273.4609375 -204.666015625 256.293945312 -216.333007812 237.626953125 -223 c 0
EndSplineSet
Validated: 524289
EndChar

StartChar: hyphen
Encoding: 45 45 20
Width: 630
GlyphClass: 2
Flags: HMW
HStem: 230.001 111.999<254.695 303.695> 234.501 109
VStem: 223.028 313.001<285 296.001>
LayerCount: 2
Fore
SplineSet
286.028320312 342 m 0xa0
 321.361328125 342 363.529296875 342.500976562 412.529296875 343.500976562 c 0
 461.529296875 344.500976562 489.362304688 345.000976562 496.029296875 345.000976562 c 0
 514.029296875 345.000976562 525.862304688 340.333984375 531.529296875 331.000976562 c 0
 535.3828125 324.654296875 537.309570312 317.229492188 537.309570312 308.724609375 c 0
 537.309570312 304.72265625 536.8828125 300.481445312 536.029296875 296.000976562 c 1
 535.029296875 295.000976562 l 1
 531.696289062 279.000976562 525.696289062 266.66796875 517.029296875 258.000976562 c 0
 505.029296875 245.333984375 490.029296875 239.000976562 472.029296875 239.000976562 c 0
 464.029296875 239.000976562 432.529296875 237.500976562 377.529296875 234.500976562 c 0x60
 322.529296875 231.500976562 284.029296875 230.000976562 262.029296875 230.000976562 c 0
 247.362304688 230.000976562 236.6953125 234.000976562 230.028320312 242.000976562 c 0
 224.098632812 248.38671875 221.133789062 257.11328125 221.133789062 268.1796875 c 0
 221.133789062 273.288085938 221.764648438 278.89453125 223.028320312 285 c 0
 223.028320312 286.333007812 223.361328125 288 224.028320312 290 c 0
 228.028320312 308.666992188 236.6953125 322.666992188 250.028320312 332 c 0
 260.028320312 338.666992188 272.028320312 342 286.028320312 342 c 0xa0
EndSplineSet
Validated: 524289
EndChar

StartChar: period
Encoding: 46 46 21
Width: 630
GlyphClass: 2
Flags: HMW
HStem: -26 178.002<290.56 366.893 301.56 366.893>
VStem: 241.56 175.5
LayerCount: 2
Fore
SplineSet
301.559570312 -26 m 2
 279.559570312 -26 262.892578125 -18 251.559570312 -2 c 0
 242.963867188 10.6669921875 238.666992188 24.71484375 238.666992188 40.14453125 c 0
 238.666992188 47.453125 239.630859375 55.072265625 241.559570312 63.0009765625 c 0
 247.559570312 87.66796875 261.559570312 108.334960938 283.559570312 125.001953125 c 0
 307.559570312 143.001953125 331.392578125 152.001953125 355.059570312 152.001953125 c 0
 378.7265625 152.001953125 396.2265625 144.001953125 407.559570312 128.001953125 c 0
 415.7109375 116.680664062 419.786132812 103.514648438 419.786132812 88.5029296875 c 0
 419.786132812 81.4130859375 418.876953125 73.9130859375 417.059570312 66.0009765625 c 0
 411.392578125 41.333984375 398.892578125 20.6669921875 379.559570312 4 c 0
 360.2265625 -12.6669921875 337.559570312 -22.6669921875 311.559570312 -26 c 2
 301.559570312 -26 l 2
EndSplineSet
Validated: 524289
EndChar

StartChar: slash
Encoding: 47 47 22
Width: 630
GlyphClass: 2
Flags: HMW
HStem: 746 20G<668.093 678.093>
LayerCount: 2
Fore
SplineSet
126.091796875 -67 m 0
 116.091796875 -71 106.760742188 -73.16796875 98.09375 -73.5009765625 c 0
 89.4267578125 -73.833984375 82.09375 -71.333984375 76.09375 -66.0009765625 c 0
 67.560546875 -59.6015625 63.2939453125 -48.5078125 63.2939453125 -32.7216796875 c 0
 63.2939453125 -28.775390625 63.560546875 -24.53515625 64.09375 -20.0009765625 c 0
 64.09375 -16.66796875 64.7607421875 -13.0009765625 66.09375 -9.0009765625 c 0
 70.09375 8.33203125 78.09375 24.9990234375 90.09375 40.9990234375 c 0
 217.426757812 200.999023438 327.759765625 342.999023438 421.092773438 466.999023438 c 0
 479.092773438 542.999023438 541.759765625 629.666015625 609.092773438 726.999023438 c 0
 617.759765625 739.666015625 628.092773438 749.333007812 640.092773438 756 c 0
 652.092773438 762.666992188 663.092773438 766 673.092773438 766 c 0
 683.092773438 766 692.42578125 763.666992188 701.092773438 759 c 0
 713.759765625 751 720.426757812 739 721.09375 723 c 0
 721.09375 718.333007812 720.426757812 713.333007812 719.09375 708 c 0
 716.426757812 696.666992188 710.759765625 684.333984375 702.092773438 671.000976562 c 0
 678.092773438 636.333984375 613.42578125 552.500976562 508.092773438 419.500976562 c 0
 402.759765625 286.500976562 338.092773438 204.000976562 314.092773438 172.000976562 c 0
 299.42578125 151.333984375 275.258789062 116.333984375 241.591796875 67.0009765625 c 0
 207.924804688 17.66796875 187.091796875 -12.33203125 179.091796875 -22.9990234375 c 0
 163.091796875 -43.666015625 145.424804688 -58.3330078125 126.091796875 -67 c 0
EndSplineSet
Validated: 524289
EndChar

StartChar: zero
Encoding: 48 48 23
Width: 630
GlyphClass: 2
Flags: HMW
HStem: -24 107.996<267.542 318.21> 611.997 106.003<439.877 512.544>
LayerCount: 2
Fore
SplineSet
662.2109375 491 m 0
 661.543945312 488.333007812 661.54296875 487.999023438 662.209960938 489.999023438 c 1
 656.209960938 450.666015625 648.54296875 410.666015625 639.209960938 369.999023438 c 0
 629.876953125 329.33203125 619.376953125 289.33203125 607.709960938 249.999023438 c 0
 596.04296875 210.666015625 584.875976562 179.666015625 574.208984375 156.999023438 c 0
 553.541992188 114.33203125 531.541992188 79.6650390625 508.208984375 52.998046875 c 0
 496.875976562 39.6650390625 484.54296875 28.33203125 471.209960938 18.9990234375 c 0
 457.876953125 9.666015625 444.876953125 2.3330078125 432.209960938 -3 c 0
 418.876953125 -8.3330078125 403.876953125 -13 387.209960938 -17 c 0
 370.54296875 -20.3330078125 354.375976562 -22.3330078125 338.708984375 -23 c 0
 323.041992188 -23.6669921875 304.875 -24 284.208007812 -24 c 0
 250.875 -24 221.208007812 -18.3330078125 195.208007812 -7 c 0
 171.208007812 4.3330078125 152.208007812 20.5 138.208007812 41.5 c 0
 124.208007812 62.5 115.708007812 87.6669921875 112.708007812 117 c 0
 111.889648438 125 111.48046875 133.173828125 111.48046875 141.520507812 c 0
 111.48046875 163.779296875 114.389648438 187.272460938 120.208007812 212 c 0
 120.208007812 214 120.541015625 216 121.208007812 218 c 0
 128.541015625 250 135.541015625 280.666992188 142.208007812 310 c 0
 146.875 330.666992188 153.041992188 356 160.708984375 386 c 0
 168.375976562 416 175.54296875 440.833007812 182.209960938 460.5 c 0
 188.876953125 480.166992188 197.209960938 501.333984375 207.209960938 524.000976562 c 0
 217.209960938 547.333984375 227.209960938 567.666992188 237.209960938 585 c 0
 263.209960938 628.333007812 297.876953125 661.333007812 341.209960938 684 c 0
 387.876953125 706.666992188 440.209960938 718 498.209960938 718 c 0
 526.876953125 718 552.876953125 713.333007812 576.209960938 704 c 0
 598.876953125 694.666992188 617.543945312 680.666992188 632.2109375 662 c 0
 646.877929688 643.333007812 656.877929688 619.5 662.2109375 590.5 c 0
 664.876953125 576 666.2109375 560.458007812 666.2109375 543.875 c 0
 666.2109375 527.291015625 664.876953125 509.666015625 662.2109375 491 c 0
507.209960938 599.999023438 m 0
 494.2109375 608.046875 478.912109375 612.068359375 461.315429688 612.068359375 c 0
 459.959960938 612.068359375 458.591796875 612.044921875 457.209960938 611.997070312 c 0
 422.54296875 611.997070312 393.709960938 602.830078125 370.709960938 584.497070312 c 0
 347.709960938 566.1640625 325.876953125 534.997070312 305.209960938 490.997070312 c 0
 297.209960938 473.6640625 289.876953125 455.331054688 283.209960938 435.998046875 c 0
 277.209960938 416.665039062 271.54296875 393.998046875 266.209960938 367.998046875 c 0
 256.876953125 327.998046875 246.876953125 281.665039062 236.209960938 228.998046875 c 1
 342.876953125 339.665039062 442.876953125 453.33203125 536.209960938 569.999023438 c 1
 528.876953125 582.666015625 519.209960938 592.666015625 507.209960938 599.999023438 c 0
547.209960938 457.997070312 m 1
 449.876953125 330.6640625 346.876953125 221.99609375 238.209960938 131.99609375 c 1
 247.54296875 100.663085938 271.209960938 84.6630859375 309.209960938 83.99609375 c 0
 327.209960938 83.99609375 343.04296875 85.49609375 356.709960938 88.49609375 c 0
 370.376953125 91.49609375 383.876953125 96.3291015625 397.209960938 102.99609375 c 0
 423.876953125 116.99609375 447.876953125 143.99609375 469.209960938 183.99609375 c 0
 473.209960938 191.99609375 480.876953125 213.329101562 492.209960938 247.99609375 c 0
 503.54296875 282.663085938 515.209960938 323.330078125 527.209960938 369.997070312 c 0
 535.209960938 400.6640625 541.876953125 429.997070312 547.209960938 457.997070312 c 1
EndSplineSet
Validated: 524289
EndChar

StartChar: one
Encoding: 49 49 24
Width: 630
GlyphClass: 2
Flags: HMW
HStem: -9 111 -5 114<106.364 156.363>
LayerCount: 2
Fore
SplineSet
75.033203125 33 m 0x40
 75.033203125 38 76.033203125 43 77.033203125 49 c 0
 77.033203125 50 77.033203125 52 78.033203125 53 c 0
 81.033203125 68 88.033203125 80 97.033203125 91 c 0
 109.033203125 103 124.033203125 109 143.033203125 109 c 0x40
 170.033203125 109 216.033203125 108 281.033203125 107 c 1
 286.033203125 126 289.033203125 143 291.033203125 157 c 0
 292.033203125 163 295.033203125 180 302.033203125 208 c 0
 308.033203125 233 313.033203125 254 318.033203125 271 c 2
 346.033203125 379 l 2
 373.033203125 480 389.033203125 539 394.033203125 556 c 1
 347.033203125 526 313.033203125 507 290.033203125 499 c 0
 282.033203125 497 277.033203125 496 274.033203125 496 c 0
 263.033203125 496 252.033203125 501 243.033203125 511 c 0
 234.033203125 521 229.033203125 532 229.033203125 542 c 0
 229.033203125 545 230.033203125 548 231.033203125 552 c 0
 234.033203125 565 239.033203125 577 247.033203125 587 c 0
 255.033203125 597 266.033203125 607 280.033203125 616 c 0
 301.033203125 630 328.033203125 649 363.033203125 672 c 1
 375.033203125 674 389.033203125 683 404.033203125 699 c 0
 416.033203125 707 429.033203125 714 442.033203125 721 c 0
 454.033203125 727 464.033203125 730 473.033203125 730 c 2
 476.033203125 730 l 2
 493.033203125 730 509.033203125 723 524.033203125 710 c 0
 532.033203125 703 537.033203125 696 540.033203125 690 c 0
 541.033203125 688 542.033203125 686 542.033203125 683 c 0
 542.033203125 672 534.033203125 643 499.033203125 514 c 0
 475.033203125 424 461.033203125 371 457.033203125 356 c 0
 442.033203125 294 431.033203125 242 422.033203125 200 c 2
 422.033203125 200 421.033203125 198 421.033203125 195 c 0
 416.033203125 173 410.033203125 142 402.033203125 103 c 1
 435.033203125 102 456.033203125 102 465.033203125 102 c 2
 500.033203125 102 l 2
 515.033203125 102 524.033203125 101 528.033203125 101 c 0
 549.033203125 101 562.033203125 97 569.033203125 87 c 0
 574.033203125 80 576.033203125 71 576.033203125 62 c 0
 576.033203125 58 576.033203125 54 575.033203125 50 c 0
 575.033203125 49 575.033203125 48 574.033203125 47 c 0
 571.033203125 32 563.033203125 19 552.033203125 8 c 0
 540.033203125 -3 523.033203125 -9 502.033203125 -9 c 0x80
 267.033203125 -7 138.033203125 -6 115.033203125 -5 c 0
 98.033203125 -5 86.033203125 0 80.033203125 11 c 0
 77.033203125 18 75.033203125 25 75.033203125 33 c 0x40
EndSplineSet
Validated: 524289
EndChar

StartChar: two
Encoding: 50 50 25
Width: 630
GlyphClass: 2
Flags: HMW
HStem: -20.0059 113.005 -12.0059 113.006<508.61 508.61 508.61 514.604> 506.997 21G<260.269 263.602> 612.996 109.001<467.272 476.604>
LayerCount: 2
Fore
SplineSet
508.610351562 101 m 1x70
 509.603515625 100.993164062 l 1
 518.270507812 109.66015625 524.603515625 109.993164062 528.603515625 101.993164062 c 0
 530.603515625 101.993164062 534.270507812 101.826171875 539.603515625 101.493164062 c 0
 544.936523438 101.16015625 548.936523438 100.16015625 551.603515625 98.4931640625 c 0
 554.270507812 96.826171875 556.9375 94.9931640625 559.604492188 92.9931640625 c 0
 563.604492188 90.326171875 566.271484375 86.326171875 567.604492188 80.9931640625 c 0
 568.9375 72.9931640625 568.604492188 63.66015625 566.604492188 52.9931640625 c 0
 561.9375 33.66015625 553.604492188 17.3271484375 541.604492188 3.994140625 c 0
 531.604492188 -6.6728515625 520.604492188 -12.005859375 508.604492188 -12.005859375 c 0x70
 465.271484375 -12.005859375 394.271484375 -14.005859375 295.604492188 -18.005859375 c 0
 262.271484375 -19.3388671875 228.271484375 -20.005859375 193.604492188 -20.005859375 c 0
 161.604492188 -20.005859375 136.604492188 -18.6728515625 118.604492188 -16.005859375 c 0
 108.604492188 -14.6728515625 100.9375 -10.33984375 95.6044921875 -3.0068359375 c 0
 91.6044921875 2.326171875 88.9375 9.326171875 87.6044921875 17.9931640625 c 0
 87.16015625 21.8447265625 86.9375 26.0263671875 86.9375 30.5361328125 c 0
 86.9375 46.322265625 89.66015625 66.140625 95.1044921875 89.9931640625 c 0
 102.104492188 120.66015625 115.271484375 151.493164062 134.604492188 182.493164062 c 0
 153.9375 213.493164062 178.604492188 243.66015625 208.604492188 272.993164062 c 0
 238.604492188 302.326171875 272.271484375 325.993164062 309.604492188 343.993164062 c 0
 390.9375 382.66015625 443.604492188 409.327148438 467.604492188 423.994140625 c 0
 497.604492188 442.661132812 518.271484375 462.328125 529.604492188 482.995117188 c 0
 536.271484375 495.662109375 541.604492188 511.329101562 545.604492188 529.99609375 c 0
 547.754882812 539.458007812 548.830078125 548.053710938 548.830078125 555.78125 c 0
 548.830078125 572.010742188 544.087890625 584.415039062 534.604492188 592.99609375 c 0
 519.9375 606.329101562 494.604492188 612.99609375 458.604492188 612.99609375 c 0
 434.604492188 612.99609375 409.771484375 605.663085938 384.104492188 590.99609375 c 0
 358.4375 576.329101562 337.270507812 559.99609375 320.603515625 541.99609375 c 0
 311.936523438 532.663085938 303.76953125 524.830078125 296.102539062 518.497070312 c 0
 288.435546875 512.1640625 280.602539062 508.6640625 272.602539062 507.997070312 c 0
 270.602539062 507.997070312 267.602539062 507.6640625 263.602539062 506.997070312 c 0
 256.935546875 506.997070312 247.935546875 510.330078125 236.602539062 516.997070312 c 0
 224.602539062 524.997070312 218.26953125 536.330078125 217.602539062 550.997070312 c 0
 217.602539062 554.330078125 217.935546875 557.997070312 218.602539062 561.997070312 c 0
 221.26953125 573.997070312 227.936523438 587.6640625 238.603515625 602.997070312 c 0
 248.603515625 616.997070312 261.603515625 630.830078125 277.603515625 644.497070312 c 0
 293.603515625 658.1640625 311.603515625 670.997070312 331.603515625 682.997070312 c 0
 352.270507812 694.997070312 375.9375 704.497070312 402.604492188 711.497070312 c 0
 429.271484375 718.497070312 454.938476562 721.997070312 479.60546875 721.997070312 c 0
 556.272460938 721.997070312 609.60546875 704.997070312 639.60546875 670.997070312 c 0
 658.5859375 648.997070312 668.076171875 619.87890625 668.076171875 583.643554688 c 0
 668.076171875 563.87890625 665.252929688 541.997070312 659.60546875 517.997070312 c 0
 646.272460938 462.6640625 621.939453125 417.331054688 586.606445312 381.998046875 c 0
 560.606445312 357.331054688 517.2734375 330.331054688 456.606445312 300.998046875 c 0
 441.2734375 293.665039062 414.940429688 281.665039062 377.607421875 264.998046875 c 0
 346.274414062 250.998046875 318.94140625 233.831054688 295.608398438 213.498046875 c 0
 272.275390625 193.165039062 253.942382812 172.33203125 240.609375 150.999023438 c 0
 229.276367188 132.999023438 220.276367188 113.666015625 213.609375 92.9990234375 c 1xb0
 249.609375 91.666015625 283.942382812 90.8330078125 316.609375 90.5 c 0
 323.138671875 90.43359375 329.388671875 90.400390625 335.359375 90.400390625 c 0
 359.2578125 90.400390625 378.674804688 90.93359375 393.610351562 92 c 0
 411.610351562 93.3330078125 449.943359375 96.3330078125 508.610351562 101 c 1x70
EndSplineSet
Validated: 524289
EndChar

StartChar: three
Encoding: 51 51 26
Width: 630
GlyphClass: 2
Flags: HMW
HStem: -23.998 107.998<282.704 343.04> 306 125<330.373 336.039> 521.001 21G<265.707 272.374> 613 109.001<429.375 497.374>
VStem: 533.374 115<522.002 538.333>
LayerCount: 2
Fore
SplineSet
602.373046875 279.5 m 0
 602.833984375 274.501953125 603.065429688 269.318359375 603.065429688 263.948242188 c 0
 603.065429688 246.037109375 600.499023438 226.055664062 595.370117188 204.000976562 c 0
 579.370117188 134.000976562 545.703125 78.333984375 494.370117188 37.0009765625 c 0
 443.196289062 -3.67578125 378.140625 -24.013671875 299.202148438 -24.013671875 c 0
 297.928710938 -24.013671875 296.651367188 -24.0087890625 295.370117188 -23.998046875 c 0
 270.037109375 -23.998046875 245.704101562 -20.3310546875 222.37109375 -12.998046875 c 0
 199.038085938 -5.6650390625 180.205078125 3.66796875 165.872070312 15.0009765625 c 0
 151.5390625 26.333984375 139.706054688 39.0009765625 130.373046875 53.0009765625 c 0
 120.373046875 67.0009765625 113.706054688 80.833984375 110.373046875 94.5009765625 c 0
 108.521484375 102.092773438 107.595703125 109.427734375 107.595703125 116.504882812 c 0
 107.595703125 122.16796875 108.188476562 127.666992188 109.374023438 133.000976562 c 0
 110.041015625 137.000976562 111.374023438 141.000976562 113.374023438 145.000976562 c 0
 120.041015625 161.000976562 131.041015625 172.66796875 146.374023438 180.000976562 c 0
 157.70703125 185.333984375 167.70703125 188 176.374023438 188 c 0
 195.041015625 188 209.374023438 177.333984375 219.374023438 156.000976562 c 0
 228.70703125 137.333984375 242.540039062 120.666992188 260.873046875 106 c 0
 279.206054688 91.3330078125 300.373046875 84 324.373046875 84 c 0
 361.706054688 84 394.5390625 93.8330078125 422.872070312 113.5 c 0
 451.205078125 133.166992188 469.038085938 158 476.37109375 188 c 0
 479.09375 199.278320312 480.455078125 209.592773438 480.455078125 218.942382812 c 0
 480.455078125 225.620117188 479.760742188 231.805664062 478.372070312 237.5 c 0
 475.0390625 251.166992188 467.872070312 263.166992188 456.872070312 273.5 c 0
 445.872070312 283.833007812 428.872070312 291.833007812 405.872070312 297.5 c 0
 382.872070312 303.166992188 353.705078125 306 318.372070312 306 c 0
 301.0390625 306 287.706054688 312.666992188 278.373046875 326 c 0
 271.83984375 335.333007812 268.573242188 345.483398438 268.573242188 356.450195312 c 0
 268.573242188 361.150390625 269.172851562 366 270.373046875 371 c 0
 274.373046875 387.666992188 282.040039062 401.666992188 293.373046875 413 c 0
 306.040039062 425 321.373046875 431 339.373046875 431 c 0
 394.040039062 431 438.70703125 440.666992188 473.374023438 460 c 0
 505.374023438 478 525.374023438 504 533.374023438 538 c 0
 533.374023438 538.609375 533.651367188 539.495117188 534.208007812 540.66015625 c 0
 534.2578125 541.064453125 534.3125 541.510742188 534.374023438 541.999023438 c 0
 534.374023438 543.33203125 534.70703125 544.33203125 535.374023438 544.999023438 c 0
 536.75 550.848632812 537.438476562 556.297851562 537.438476562 561.348632812 c 0
 537.438476562 575.868164062 531.75 587.0859375 520.374023438 595 c 0
 503.908203125 607.033203125 477.514648438 613.049804688 441.1953125 613.049804688 c 0
 439.282226562 613.049804688 437.342773438 613.033203125 435.375 613 c 0
 423.375 613 410.375 611 396.375 607 c 0
 392.375 605.666992188 387.375 603.166992188 381.375 599.5 c 0
 375.375 595.833007812 370.708007812 592.833007812 367.375 590.5 c 0
 364.041992188 588.166992188 359.375 584.333984375 353.375 579.000976562 c 0
 347.375 573.66796875 343.375 569.66796875 341.375 567.000976562 c 0
 334.708007812 553.66796875 330.041015625 549.000976562 327.374023438 553.000976562 c 1
 311.374023438 536.333984375 296.374023438 526.000976562 282.374023438 522.000976562 c 0
 278.374023438 521.333984375 274.373046875 521.000976562 270.373046875 521.000976562 c 0
 261.040039062 521.000976562 251.708007812 523.66796875 242.375 529.000976562 c 0
 231.575195312 535.600585938 226.174804688 545.7109375 226.174804688 559.33203125 c 0
 226.174804688 559.499023438 226.229492188 569.130859375 227.375 576.000976562 c 0
 230.041992188 588.000976562 236.375 601.000976562 246.375 615.000976562 c 0
 266.375 643.000976562 292.041992188 667.333984375 323.375 688.000976562 c 0
 340.041992188 698.66796875 360.041992188 707.000976562 383.375 713.000976562 c 0
 406.708007812 719.000976562 431.041015625 722.000976562 456.374023438 722.000976562 c 0
 538.374023438 722.000976562 595.041015625 705.66796875 626.374023438 673.000976562 c 0
 646.828125 650.728515625 657.055664062 621.482421875 657.055664062 585.262695312 c 0
 657.055664062 568.360351562 654.828125 549.939453125 650.374023438 530 c 0
 650.374023438 528.666992188 650.041015625 527.333984375 649.374023438 526.000976562 c 0
 648.70703125 524.66796875 648.374023438 523.333984375 648.374023438 522.000976562 c 0
 644.374023438 503.333984375 637.874023438 486.001953125 628.874023438 470.001953125 c 0
 619.874023438 454.001953125 609.541015625 440.334960938 597.874023438 429.001953125 c 0
 586.20703125 417.668945312 573.20703125 407.668945312 558.874023438 399.001953125 c 0
 544.541015625 390.334960938 530.041015625 383.66796875 515.374023438 379.000976562 c 1
 524.70703125 375.66796875 533.040039062 372.334960938 540.373046875 369.001953125 c 0
 557.040039062 360.334960938 571.040039062 348.66796875 582.373046875 334.000976562 c 0
 593.706054688 319.333984375 600.373046875 301.166992188 602.373046875 279.5 c 0
EndSplineSet
Validated: 524289
EndChar

StartChar: four
Encoding: 52 52 27
Width: 630
GlyphClass: 2
Flags: HMW
HStem: -23.001 21G<426.192 440.859> 218.998 90.002<387.858 388.859 388.859 430.859>
LayerCount: 2
Fore
SplineSet
387.858398438 309 m 2
 450.857421875 309 l 1
 477.524414062 424.333007812 497.19140625 517.666015625 509.858398438 588.999023438 c 1
 394.525390625 469.666015625 311.858398438 375.333007812 261.858398438 306 c 1
 296.525390625 308 338.525390625 309 387.858398438 309 c 2
492.857421875 60 m 0
 492.857421875 52 491.859375 44.33203125 489.859375 36.9990234375 c 0
 487.192382812 23.666015625 482.192382812 11.9990234375 474.859375 1.9990234375 c 0
 462.859375 -14.66796875 448.859375 -23.0009765625 432.859375 -23.0009765625 c 0
 419.526367188 -23.0009765625 407.859375 -17.833984375 397.859375 -7.5009765625 c 0
 389.526367188 1.109375 385.359375 10.068359375 385.359375 19.373046875 c 0
 385.359375 21.234375 385.526367188 23.109375 385.859375 24.998046875 c 0
 387.192382812 32.998046875 389.859375 45.6650390625 393.859375 62.998046875 c 2
 411.859375 138.998046875 l 2
 418.526367188 166.331054688 424.859375 192.998046875 430.859375 218.998046875 c 1
 388.859375 218.998046875 l 2
 296.859375 218.998046875 230.859375 214.665039062 190.859375 205.998046875 c 0
 186.192382812 205.331054688 181.359375 204.998046875 176.359375 204.998046875 c 0
 171.359375 204.998046875 166.859375 205.998046875 162.859375 207.998046875 c 0
 154.859375 211.331054688 149.026367188 216.331054688 145.359375 222.998046875 c 0
 141.692382812 229.665039062 139.525390625 237.498046875 138.858398438 246.498046875 c 0
 138.19140625 255.498046875 138.858398438 264.665039062 140.858398438 273.998046875 c 0
 143.525390625 284.665039062 147.525390625 294.665039062 152.858398438 303.998046875 c 0
 163.525390625 323.331054688 187.358398438 353.831054688 224.358398438 395.498046875 c 0
 261.358398438 437.165039062 309.19140625 488.998046875 367.858398438 550.998046875 c 0
 419.858398438 605.665039062 461.858398438 650.665039062 493.858398438 685.998046875 c 0
 505.858398438 698.665039062 518.19140625 708.33203125 530.858398438 714.999023438 c 0
 543.525390625 721.666015625 554.858398438 724.999023438 564.858398438 724.999023438 c 0
 568.19140625 724.999023438 570.524414062 725.33203125 571.857421875 725.999023438 c 0
 583.190429688 725.999023438 592.857421875 723.33203125 600.857421875 717.999023438 c 0
 610.232421875 711.749023438 614.919921875 701.397460938 614.919921875 686.9453125 c 0
 614.919921875 682.481445312 613.947265625 654.850585938 599.357421875 576.5 c 0
 590.357421875 528.166992188 582.190429688 487.666992188 574.857421875 455 c 0
 564.190429688 405.666992188 553.857421875 356.666992188 543.857421875 308 c 1
 553.190429688 308 563.5234375 307.666992188 574.856445312 307 c 0
 590.856445312 307 601.189453125 303.166992188 605.856445312 295.5 c 0
 610.5234375 287.833007812 611.5234375 278 608.856445312 266 c 0
 605.5234375 252 600.190429688 240.666992188 592.857421875 232 c 0
 582.857421875 222 569.857421875 217 553.857421875 217 c 0
 543.190429688 217 533.190429688 217.333007812 523.857421875 218 c 1
 503.190429688 126 492.857421875 73.3330078125 492.857421875 60 c 0
EndSplineSet
Validated: 524289
EndChar

StartChar: five
Encoding: 53 53 28
Width: 630
GlyphClass: 2
Flags: HMW
HStem: -18.002 109.001<284.247 312.248> 407.998 112.999<425.248 501.247> 594.998 112.999<634.579 674.242> 605.998 103.999
LayerCount: 2
Fore
SplineSet
212.248046875 561 m 0xd0
 218.248046875 581.666992188 222.576171875 596.997070312 225.243164062 606.997070312 c 1
 223.243164062 612.997070312 222.243164062 619.497070312 222.243164062 626.497070312 c 0
 222.243164062 633.497070312 223.243164062 640.997070312 225.243164062 648.997070312 c 0
 229.91015625 670.330078125 239.91015625 686.997070312 255.243164062 698.997070312 c 0
 265.91015625 707.6640625 277.243164062 711.997070312 289.243164062 711.997070312 c 0
 312.576171875 711.997070312 369.909179688 711.330078125 461.2421875 709.997070312 c 0xd0
 554.575195312 708.6640625 623.575195312 707.997070312 668.2421875 707.997070312 c 0
 680.2421875 707.997070312 688.575195312 702.6640625 693.2421875 691.997070312 c 0
 696.6171875 684.497070312 698.3046875 676.047851562 698.3046875 666.649414062 c 0
 698.3046875 659.33984375 697.284179688 651.456054688 695.2421875 642.998046875 c 0
 690.575195312 623.665039062 682.2421875 610.665039062 670.2421875 603.998046875 c 0
 666.909179688 601.998046875 663.576171875 600.165039062 660.243164062 598.498046875 c 0
 656.91015625 596.831054688 652.577148438 595.831054688 647.244140625 595.498046875 c 0
 641.911132812 595.165039062 638.078125 594.998046875 635.745117188 594.998046875 c 0xe0
 633.412109375 594.998046875 630.079101562 595.165039062 625.74609375 595.498046875 c 0
 621.413085938 595.831054688 618.580078125 595.998046875 617.247070312 595.998046875 c 0
 608.580078125 595.998046875 592.580078125 597.331054688 569.247070312 599.998046875 c 0
 545.247070312 601.998046875 523.9140625 603.498046875 505.247070312 604.498046875 c 0
 486.580078125 605.498046875 461.247070312 605.998046875 429.247070312 605.998046875 c 0
 397.247070312 605.998046875 364.9140625 604.998046875 332.247070312 602.998046875 c 1
 318.247070312 552.998046875 309.9140625 522.998046875 307.247070312 512.998046875 c 0
 304.580078125 500.998046875 302.580078125 492.331054688 301.247070312 486.998046875 c 0
 299.9140625 481.665039062 298.247070312 474.665039062 296.247070312 465.998046875 c 1
 316.247070312 479.331054688 339.247070312 490.6640625 365.247070312 499.997070312 c 0
 402.580078125 513.997070312 442.580078125 520.997070312 485.247070312 520.997070312 c 0
 517.247070312 520.997070312 544.580078125 515.330078125 567.247070312 503.997070312 c 0
 587.9140625 491.997070312 603.747070312 475.997070312 614.747070312 455.997070312 c 0
 625.747070312 435.997070312 632.247070312 412.830078125 634.247070312 386.497070312 c 0
 634.67578125 380.854492188 634.889648438 375.112304688 634.889648438 369.271484375 c 0
 634.889648438 347.850585938 632.008789062 325.092773438 626.247070312 300.997070312 c 0
 614.9140625 251.6640625 598.581054688 206.831054688 577.248046875 166.498046875 c 0
 555.915039062 126.165039062 531.248046875 92.498046875 503.248046875 65.498046875 c 0
 475.248046875 38.498046875 443.248046875 17.6650390625 407.248046875 2.998046875 c 0
 370.581054688 -11.001953125 332.248046875 -18.001953125 292.248046875 -18.001953125 c 0
 261.581054688 -18.001953125 233.9140625 -14.6689453125 209.247070312 -8.001953125 c 0
 184.580078125 -1.3349609375 165.247070312 7.33203125 151.247070312 17.9990234375 c 0
 137.247070312 28.666015625 126.247070312 40.3330078125 118.247070312 53 c 0
 110.247070312 65.6669921875 104.247070312 79 100.247070312 93 c 0
 98.9140625 100.666015625 98.2470703125 107.916015625 98.2470703125 114.75 c 0
 98.2470703125 121.583007812 98.9140625 128 100.247070312 134 c 0
 100.9140625 138 101.9140625 142 103.247070312 146 c 0
 109.9140625 160.666992188 121.247070312 172 137.247070312 180 c 0
 145.9140625 183.333007812 152.747070312 185.666015625 157.747070312 186.999023438 c 0
 162.747070312 188.33203125 166.747070312 188.999023438 169.747070312 188.999023438 c 0
 172.747070312 188.999023438 175.580078125 188.666015625 178.247070312 187.999023438 c 0
 186.247070312 187.33203125 192.580078125 183.665039062 197.247070312 176.998046875 c 0
 201.247070312 171.665039062 205.580078125 164.33203125 210.247070312 154.999023438 c 0
 228.247070312 112.33203125 260.747070312 90.9990234375 307.747070312 90.9990234375 c 0
 354.747070312 90.9990234375 395.9140625 108.33203125 431.247070312 142.999023438 c 0
 467.9140625 178.999023438 493.581054688 227.666015625 508.248046875 288.999023438 c 0
 511.768554688 304.166015625 513.529296875 318.01171875 513.529296875 330.538085938 c 0
 513.529296875 348.844726562 509.768554688 364.33203125 502.248046875 376.998046875 c 0
 490.248046875 397.665039062 467.248046875 407.998046875 433.248046875 407.998046875 c 0
 417.248046875 407.998046875 399.915039062 405.998046875 381.248046875 401.998046875 c 0
 371.915039062 399.998046875 358.58203125 395.331054688 341.249023438 387.998046875 c 0
 337.249023438 386.665039062 331.749023438 383.498046875 324.749023438 378.498046875 c 0
 317.749023438 373.498046875 312.916015625 369.998046875 310.249023438 367.998046875 c 0
 297.58203125 358.665039062 287.249023438 350.665039062 279.249023438 343.998046875 c 0
 261.916015625 331.331054688 243.916015625 323.998046875 225.249023438 321.998046875 c 2
 218.249023438 321.998046875 l 2
 209.58203125 321.998046875 201.249023438 323.998046875 193.249023438 327.998046875 c 0
 181.249023438 333.998046875 174.58203125 346.665039062 173.249023438 365.998046875 c 0
 172.916015625 370.165039062 172.749023438 374.581054688 172.749023438 379.248046875 c 0
 172.749023438 393.248046875 174.249023438 409.498046875 177.249023438 427.999023438 c 0
 179.249023438 438.666015625 181.58203125 449.333007812 184.249023438 460 c 0
 189.58203125 483.333007812 198.915039062 517 212.248046875 561 c 0xd0
EndSplineSet
Validated: 524289
EndChar

StartChar: six
Encoding: 54 54 29
Width: 630
GlyphClass: 2
Flags: HMW
HStem: -22.0029 108<285.297 332.964> 379.997 114.001<398.963 484.297>
LayerCount: 2
Fore
SplineSet
627.963867188 361 m 0
 628.31640625 355.471679688 628.493164062 349.787109375 628.493164062 343.948242188 c 0
 628.493164062 316.689453125 624.649414062 286.038085938 616.962890625 251.998046875 c 0
 608.295898438 213.998046875 593.962890625 178.331054688 573.962890625 144.998046875 c 0
 533.962890625 76.3310546875 480.629882812 27.6640625 413.962890625 -1.0029296875 c 0
 378.629882812 -15.0029296875 342.962890625 -22.0029296875 306.962890625 -22.0029296875 c 0
 263.629882812 -22.0029296875 227.296875 -14.0029296875 197.963867188 1.9970703125 c 0
 169.963867188 17.9970703125 149.963867188 41.1640625 137.963867188 71.4970703125 c 0
 126.288085938 101.010742188 120.450195312 134.943359375 120.450195312 173.293945312 c 0
 120.450195312 204.677734375 123.879882812 248.9375 136.963867188 306.997070312 c 0
 150.963867188 366.997070312 168.630859375 420.497070312 189.963867188 467.497070312 c 0
 211.296875 514.497070312 234.963867188 553.830078125 260.963867188 585.497070312 c 0
 286.963867188 617.1640625 316.296875 643.997070312 348.963867188 665.997070312 c 0
 383.630859375 687.997070312 419.130859375 704.497070312 455.463867188 715.497070312 c 0
 491.796875 726.497070312 530.963867188 733.6640625 572.963867188 736.997070312 c 2
 582.963867188 736.997070312 l 2
 596.963867188 736.997070312 608.630859375 734.330078125 617.963867188 728.997070312 c 0
 629.424804688 722.362304688 635.155273438 712.1796875 635.155273438 698.44921875 c 0
 635.155273438 695.75390625 635.155273438 692.376953125 633.96484375 689.998046875 c 0
 631.96484375 679.998046875 624.96484375 669.665039062 612.96484375 658.998046875 c 0
 600.297851562 648.331054688 587.297851562 641.331054688 573.96484375 637.998046875 c 0
 565.96484375 635.998046875 553.797851562 633.331054688 537.46484375 629.998046875 c 0
 521.131835938 626.665039062 507.46484375 623.665039062 496.46484375 620.998046875 c 0
 485.46484375 618.331054688 472.297851562 614.331054688 456.96484375 608.998046875 c 0
 427.631835938 598.331054688 395.631835938 577.998046875 360.96484375 547.998046875 c 0
 343.631835938 531.998046875 325.298828125 510.331054688 305.965820312 482.998046875 c 0
 297.298828125 468.998046875 289.631835938 455.998046875 282.96484375 443.998046875 c 1
 302.297851562 456.665039062 323.630859375 466.665039062 346.963867188 473.998046875 c 0
 384.963867188 487.331054688 425.296875 493.998046875 467.963867188 493.998046875 c 0
 500.630859375 493.998046875 528.963867188 489.331054688 552.963867188 479.998046875 c 0
 574.963867188 470.665039062 592.463867188 456.33203125 605.463867188 436.999023438 c 0
 618.463867188 417.666015625 625.963867188 392.333007812 627.963867188 361 c 0
287.962890625 94.9970703125 m 0
 300.629882812 88.9970703125 314.963867188 85.9970703125 330.963867188 85.9970703125 c 2
 332.963867188 85.9970703125 l 1
 333.963867188 85.9970703125 l 2
 355.963867188 85.9970703125 378.963867188 93.6640625 402.963867188 108.997070312 c 0
 426.963867188 124.330078125 447.796875 143.997070312 465.463867188 167.997070312 c 0
 483.130859375 191.997070312 494.630859375 215.997070312 499.963867188 239.997070312 c 0
 505.889648438 265.181640625 508.852539062 286.6796875 508.852539062 304.490234375 c 0
 508.852539062 326.75390625 504.22265625 343.255859375 494.962890625 353.997070312 c 0
 486.962890625 363.997070312 476.795898438 370.830078125 464.462890625 374.497070312 c 0
 452.129882812 378.1640625 435.629882812 379.997070312 414.962890625 379.997070312 c 0
 382.962890625 379.997070312 351.629882812 372.330078125 320.962890625 356.997070312 c 0
 290.295898438 341.6640625 263.962890625 322.6640625 241.962890625 299.997070312 c 1
 235.962890625 274.6640625 231.629882812 253.6640625 228.962890625 236.997070312 c 0
 227.762695312 228.59765625 227.163085938 220.2578125 227.163085938 211.977539062 c 0
 227.163085938 192.657226562 230.4296875 173.6640625 236.962890625 154.997070312 c 0
 241.629882812 140.997070312 248.129882812 128.997070312 256.462890625 118.997070312 c 0
 264.795898438 108.997070312 275.295898438 100.997070312 287.962890625 94.9970703125 c 0
EndSplineSet
Validated: 524289
EndChar

StartChar: seven
Encoding: 55 55 30
Width: 630
GlyphClass: 2
Flags: HMW
HStem: -22.999 21G<140.931 148.264> 601 113.002<407.263 462.93 407.263 554.597>
LayerCount: 2
Fore
SplineSet
380.59765625 601 m 0
 319.264648438 599.666992188 279.265625 596.670898438 260.598632812 592.00390625 c 0
 256.598632812 591.336914062 252.265625 590.836914062 247.598632812 590.50390625 c 0
 242.931640625 590.170898438 238.264648438 591.00390625 233.59765625 593.00390625 c 0
 226.264648438 596.336914062 221.264648438 601.336914062 218.59765625 608.00390625 c 0
 214.71875 616.731445312 212.779296875 626.340820312 212.779296875 636.831054688 c 0
 212.779296875 640.764648438 213.051757812 644.822265625 213.59765625 649.00390625 c 1
 212.264648438 642.336914062 212.264648438 642.669921875 213.59765625 650.002929688 c 0
 216.930664062 664.002929688 223.263671875 675.669921875 232.596679688 685.002929688 c 0
 242.596679688 694.3359375 256.9296875 700.668945312 275.596679688 704.001953125 c 0
 310.9296875 710.668945312 367.9296875 714.001953125 446.596679688 714.001953125 c 0
 479.263671875 714.001953125 523.263671875 712.668945312 578.596679688 710.001953125 c 0
 631.263671875 708.001953125 658.596679688 707.001953125 660.596679688 707.001953125 c 0
 668.596679688 707.001953125 676.263671875 705.168945312 683.596679688 701.501953125 c 0
 690.9296875 697.834960938 696.9296875 692.001953125 701.596679688 684.001953125 c 0
 704.87890625 678.66796875 706.51953125 672.325195312 706.51953125 664.971679688 c 0
 706.51953125 660.375976562 705.87890625 655.38671875 704.596679688 650.001953125 c 0
 701.9296875 638.001953125 695.596679688 624.668945312 685.596679688 610.001953125 c 0
 671.596679688 590.001953125 648.763671875 560.501953125 617.096679688 521.501953125 c 0
 585.4296875 482.501953125 552.262695312 442.668945312 517.595703125 402.001953125 c 0
 481.595703125 361.334960938 436.595703125 307.16796875 382.595703125 239.500976562 c 0
 328.595703125 171.833984375 276.262695312 102.666992188 225.595703125 32 c 0
 212.262695312 12.6669921875 196.9296875 -1.666015625 179.596679688 -10.9990234375 c 0
 166.263671875 -18.9990234375 153.930664062 -22.9990234375 142.59765625 -22.9990234375 c 0
 139.264648438 -22.9990234375 135.931640625 -22.666015625 132.598632812 -21.9990234375 c 0
 116.598632812 -17.9990234375 106.931640625 -7.9990234375 103.598632812 8.0009765625 c 0
 102.265625 15.333984375 102.598632812 23.1669921875 104.598632812 31.5 c 0
 106.598632812 39.8330078125 110.598632812 49 116.598632812 59 c 0
 163.931640625 125.666992188 214.264648438 192 267.59765625 258 c 0
 322.264648438 324 367.09765625 376.5 402.09765625 415.5 c 0
 437.09765625 454.5 468.09765625 490.166992188 495.09765625 522.5 c 0
 522.09765625 554.833007812 541.930664062 581 554.59765625 601 c 1
 528.263671875 601.666015625 500.59765625 602 471.59765625 602 c 0
 442.59765625 602 412.263671875 601.666015625 380.59765625 601 c 0
EndSplineSet
Validated: 524289
EndChar

StartChar: eight
Encoding: 56 56 31
Width: 630
GlyphClass: 2
Flags: HMW
HStem: -28.0039 110.002<312.625 312.958> 621.996 96.0029<432.625 482.29 446.959 482.29>
VStem: 500.96 111.998
LayerCount: 2
Fore
SplineSet
617.953125 246 m 0
 617.286132812 234 615.625 221.329101562 612.958007812 207.99609375 c 0
 608.291015625 185.99609375 600.458007812 164.329101562 589.458007812 142.99609375 c 0
 578.458007812 121.663085938 563.958007812 100.49609375 545.958007812 79.49609375 c 0
 527.958007812 58.49609375 507.958007812 40.3291015625 485.958007812 24.99609375 c 0
 463.291015625 9.6630859375 434.958007812 -3.00390625 400.958007812 -13.00390625 c 0
 366.958007812 -23.00390625 331.458007812 -28.00390625 294.458007812 -28.00390625 c 0
 257.458007812 -28.00390625 225.625 -23.3369140625 198.958007812 -14.00390625 c 0
 172.958007812 -4.6708984375 153.125 7.49609375 139.458007812 22.49609375 c 0
 125.791015625 37.49609375 115.624023438 55.1630859375 108.95703125 75.49609375 c 0
 102.607421875 94.861328125 99.4326171875 114.37890625 99.4326171875 134.047851562 c 0
 99.4326171875 151.06640625 101.45703125 174.37890625 107.955078125 201.997070312 c 0
 113.288085938 224.6640625 124.62109375 249.1640625 141.954101562 275.497070312 c 0
 159.287109375 301.830078125 180.954101562 326.330078125 206.954101562 348.997070312 c 0
 225.62109375 364.997070312 244.954101562 377.6640625 264.954101562 386.997070312 c 1
 243.62109375 401.6640625 227.954101562 419.997070312 217.954101562 441.997070312 c 0
 209.065429688 460.663085938 204.62109375 479.625976562 204.62109375 498.884765625 c 0
 204.62109375 508.514648438 205.732421875 518.21875 207.955078125 527.997070312 c 0
 209.955078125 536.6640625 212.788085938 545.6640625 216.455078125 554.997070312 c 0
 220.122070312 564.330078125 225.2890625 575.330078125 231.956054688 587.997070312 c 0
 238.623046875 600.6640625 246.290039062 612.831054688 254.95703125 624.498046875 c 0
 263.624023438 636.165039062 274.791015625 647.83203125 288.458007812 659.499023438 c 0
 302.125 671.166015625 316.958007812 680.999023438 332.958007812 688.999023438 c 0
 350.291015625 697.666015625 370.624023438 704.666015625 393.95703125 709.999023438 c 0
 417.290039062 715.33203125 442.290039062 717.999023438 468.95703125 717.999023438 c 0
 495.624023438 717.999023438 519.624023438 715.33203125 540.95703125 709.999023438 c 0
 562.290039062 704.666015625 579.623046875 697.666015625 592.956054688 688.999023438 c 0
 606.2890625 680.33203125 617.122070312 670.33203125 625.455078125 658.999023438 c 0
 633.788085938 647.666015625 639.62109375 636.166015625 642.954101562 624.499023438 c 0
 646.287109375 612.83203125 648.454101562 600.499023438 649.454101562 587.499023438 c 0
 649.954101562 580.999023438 650.204101562 574.916015625 650.204101562 569.249023438 c 0
 650.204101562 563.58203125 649.954101562 558.33203125 649.454101562 553.499023438 c 0
 648.454101562 543.83203125 646.787109375 534.33203125 644.454101562 524.999023438 c 0
 642.12109375 515.666015625 638.954101562 506.833007812 634.954101562 498.5 c 0
 630.954101562 490.166992188 626.62109375 482.666992188 621.954101562 476 c 0
 617.287109375 469.333007812 611.454101562 462.5 604.454101562 455.5 c 0
 597.454101562 448.5 591.12109375 442.666992188 585.454101562 438 c 0
 579.787109375 433.333007812 572.620117188 428 563.953125 422 c 0
 555.286132812 416 548.286132812 411.666992188 542.953125 409 c 0
 537.620117188 406.333007812 531.287109375 402.333007812 523.954101562 397 c 1
 539.287109375 389 552.287109375 380 562.954101562 370 c 0
 577.62109375 356 588.954101562 342.5 596.954101562 329.5 c 0
 604.954101562 316.5 610.62109375 302.333007812 613.954101562 287 c 0
 616.731445312 274.223632812 618.120117188 262.604492188 618.120117188 252.141601562 c 0
 618.120117188 250.047851562 618.064453125 248.000976562 617.953125 246 c 0
365.958984375 591.99609375 m 0
 340.625976562 571.99609375 325.293945312 549.99609375 319.9609375 525.99609375 c 0
 319.072265625 521.99609375 318.627929688 518.078125 318.627929688 514.243164062 c 0
 318.627929688 500.819335938 324.072265625 488.403320312 334.9609375 476.99609375 c 0
 350.293945312 461.663085938 377.9609375 445.663085938 417.9609375 428.99609375 c 1
 445.293945312 439.663085938 470.626953125 453.663085938 493.959960938 470.99609375 c 0
 517.29296875 488.329101562 530.625976562 503.329101562 533.958984375 515.99609375 c 0
 535.5078125 522.189453125 536.28125 528.408203125 536.28125 534.651367188 c 0
 536.28125 544.537109375 534.340820312 554.485351562 530.458984375 564.49609375 c 0
 524.125976562 580.829101562 513.625976562 594.49609375 498.958984375 605.49609375 c 0
 484.291992188 616.49609375 467.291992188 621.99609375 447.958984375 621.99609375 c 2
 446.958984375 621.99609375 l 2
 418.291992188 621.99609375 391.291992188 611.99609375 365.958984375 591.99609375 c 0
258.959960938 96.99609375 m 0
 278.29296875 86.99609375 300.291992188 81.998046875 324.958984375 81.998046875 c 0
 342.291992188 81.998046875 360.458984375 84.6650390625 379.458984375 89.998046875 c 0
 398.458984375 95.3310546875 416.291992188 102.998046875 432.958984375 112.998046875 c 0
 449.625976562 122.998046875 464.29296875 135.665039062 476.959960938 150.998046875 c 0
 488.959960938 166.331054688 496.959960938 182.998046875 500.959960938 200.998046875 c 0
 502.959960938 210.998046875 504.626953125 220.331054688 505.959960938 228.998046875 c 0
 505.959960938 237.665039062 504.459960938 247.665039062 501.459960938 258.998046875 c 0
 498.459960938 270.331054688 493.126953125 280.998046875 485.459960938 290.998046875 c 0
 477.79296875 300.998046875 466.29296875 311.331054688 450.959960938 321.998046875 c 0
 435.626953125 332.665039062 416.959960938 342.665039062 394.959960938 351.998046875 c 1
 347.626953125 339.331054688 306.626953125 318.6640625 271.959960938 289.997070312 c 0
 237.959960938 261.330078125 217.29296875 230.663085938 209.959960938 197.99609375 c 0
 208.020507812 189.99609375 207.05078125 182.260742188 207.05078125 174.790039062 c 0
 207.05078125 161.715820312 210.020507812 149.451171875 215.959960938 137.99609375 c 0
 225.959960938 119.99609375 240.29296875 106.329101562 258.959960938 96.99609375 c 0
EndSplineSet
Validated: 524289
EndChar

StartChar: nine
Encoding: 57 57 32
Width: 630
GlyphClass: 2
Flags: HMW
HStem: -22.9971 78.5 223.001 113.003<319.042 401.038> 630.004 108.995<443.706 524.71 455.039 524.71>
LayerCount: 2
Fore
SplineSet
191.044921875 -22 m 0
 187.711914062 -22 184.708007812 -22.330078125 182.041015625 -22.9970703125 c 0
 168.041015625 -22.9970703125 156.708007812 -19.9970703125 148.041015625 -13.9970703125 c 0
 137.1015625 -7.6640625 131.631835938 1.9013671875 131.631835938 14.69921875 c 0
 131.631835938 16.7197265625 131.768554688 18.8212890625 132.041015625 21.0029296875 c 2
 132.041015625 24.0029296875 l 2
 134.041015625 34.669921875 141.041015625 45.169921875 153.041015625 55.5029296875 c 0
 165.041015625 65.8359375 177.708007812 73.0029296875 191.041015625 77.0029296875 c 0
 199.041015625 79.0029296875 211.874023438 81.669921875 229.541015625 85.0029296875 c 0
 247.208007812 88.3359375 262.875 91.6689453125 276.541992188 95.001953125 c 0
 290.208984375 98.3349609375 305.375976562 102.66796875 322.04296875 108.000976562 c 0
 358.04296875 120.000976562 391.375976562 139.000976562 422.04296875 165.000976562 c 0
 442.04296875 183.000976562 461.375976562 203.66796875 480.04296875 227.000976562 c 0
 487.375976562 236.333984375 493.708984375 245.333984375 499.041992188 254.000976562 c 1
 483.708984375 246.000976562 467.375976562 239.66796875 450.04296875 235.000976562 c 0
 418.04296875 227.000976562 379.709960938 223.000976562 335.04296875 223.000976562 c 0
 303.04296875 223.000976562 274.375976562 230.333984375 249.04296875 245.000976562 c 0
 225.04296875 259.000976562 206.709960938 277.500976562 194.04296875 300.500976562 c 0
 181.375976562 323.500976562 173.04296875 350.16796875 169.04296875 380.500976562 c 0
 167.630859375 391.206054688 166.92578125 401.974609375 166.92578125 412.8046875 c 0
 166.92578125 432.66015625 169.297851562 452.725585938 174.04296875 473 c 0
 182.709960938 511 196.876953125 546.5 216.543945312 579.5 c 0
 236.2109375 612.5 259.2109375 640.666992188 285.543945312 664 c 0
 311.876953125 687.333007812 342.043945312 705.666015625 376.043945312 718.999023438 c 0
 410.7109375 732.33203125 445.7109375 738.999023438 481.043945312 738.999023438 c 0
 568.376953125 738.999023438 624.709960938 707.33203125 650.04296875 643.999023438 c 0
 661.23046875 615.231445312 666.823242188 580.717773438 666.823242188 540.45703125 c 0
 666.823242188 496.745117188 660.23046875 446.259765625 647.04296875 388.999023438 c 0
 633.709960938 331.666015625 615.876953125 280.833007812 593.543945312 236.5 c 0
 571.2109375 192.166992188 546.2109375 155 518.543945312 125 c 0
 490.876953125 95 459.043945312 69.3330078125 423.043945312 48 c 0
 386.376953125 26.6669921875 348.876953125 10.5 310.543945312 -0.5 c 0
 272.2109375 -11.5 232.377929688 -18.6669921875 191.044921875 -22 c 0
325.041015625 555.002929688 m 0
 307.708007812 532.3359375 296.372070312 509.004882812 291.0390625 485.004882812 c 0
 286.33984375 464.549804688 283.990234375 446.200195312 283.990234375 429.956054688 c 0
 283.990234375 367.850585938 318.33984375 336.532226562 387.0390625 336.00390625 c 0
 415.0390625 336.00390625 443.372070312 342.00390625 472.0390625 354.00390625 c 0
 500.706054688 366.00390625 524.706054688 381.336914062 544.0390625 400.00390625 c 0
 544.706054688 402.670898438 545.373046875 405.670898438 546.040039062 409.00390625 c 0
 550.040039062 426.336914062 554.70703125 450.00390625 560.040039062 480.00390625 c 0
 561.240234375 488.403320312 561.83984375 496.743164062 561.83984375 505.0234375 c 0
 561.83984375 524.34375 558.573242188 543.336914062 552.040039062 562.00390625 c 0
 547.373046875 576.00390625 540.873046875 588.00390625 532.540039062 598.00390625 c 0
 524.20703125 608.00390625 513.540039062 615.836914062 500.540039062 621.50390625 c 0
 487.540039062 627.170898438 473.040039062 630.00390625 457.040039062 630.00390625 c 2
 455.040039062 630.00390625 l 2
 432.373046875 630.00390625 409.373046875 623.170898438 386.040039062 609.50390625 c 0
 362.70703125 595.836914062 342.374023438 577.669921875 325.041015625 555.002929688 c 0
EndSplineSet
Validated: 524289
EndChar

StartChar: colon
Encoding: 58 58 33
Width: 630
GlyphClass: 2
Flags: HMW
HStem: 27 180.001<311.477 364.814> 295 179.001<381.149 422.482 381.149 422.482>
VStem: 263.145 216.002
LayerCount: 2
Fore
SplineSet
476.146484375 404 m 0
 471.479492188 384.666992188 464.147460938 364.66796875 454.147460938 344.000976562 c 0
 446.814453125 327.333984375 435.481445312 314.666992188 420.1484375 306 c 0
 406.815429688 298.666992188 394.815429688 295 384.1484375 295 c 2
 381.1484375 295 l 2
 363.1484375 295.666992188 349.1484375 299.666992188 339.1484375 307 c 0
 328.038085938 315.333007812 322.482421875 327.138671875 322.482421875 342.416015625 c 0
 322.482421875 345.471679688 322.705078125 348.666015625 323.149414062 352 c 0
 324.482421875 364 326.649414062 376.166992188 329.649414062 388.5 c 0
 332.649414062 400.833007812 335.649414062 412.333007812 338.649414062 423 c 0
 341.649414062 433.666992188 346.982421875 442.833984375 354.649414062 450.500976562 c 0
 362.31640625 458.16796875 370.649414062 463.66796875 379.649414062 467.000976562 c 0
 388.649414062 470.333984375 396.31640625 472.333984375 402.649414062 473.000976562 c 0
 408.982421875 473.66796875 413.815429688 474.000976562 417.1484375 474.000976562 c 0
 427.815429688 474.000976562 436.315429688 473.333984375 442.6484375 472.000976562 c 0
 448.981445312 470.66796875 455.314453125 468.000976562 461.647460938 464.000976562 c 0
 467.98046875 460.000976562 472.813476562 454.000976562 476.146484375 446.000976562 c 0
 479.479492188 438.000976562 480.479492188 428.66796875 479.146484375 418.000976562 c 0
 477.813476562 413.333984375 476.813476562 408.666992188 476.146484375 404 c 0
414.147460938 125.000976562 m 0
 410.814453125 109.000976562 404.809570312 92.333984375 396.142578125 75.0009765625 c 0
 388.142578125 58.333984375 375.809570312 46.0009765625 359.142578125 38.0009765625 c 0
 345.142578125 31.333984375 331.809570312 27.6669921875 319.142578125 27 c 0
 303.809570312 27 289.9765625 32 277.643554688 42 c 0
 267.502929688 50.2216796875 262.43359375 61.1484375 262.43359375 74.7783203125 c 0
 262.43359375 77.7255859375 262.669921875 80.7998046875 263.14453125 84 c 0
 266.477539062 102.666992188 268.477539062 113.333984375 269.14453125 116.000976562 c 0
 269.811523438 118.66796875 271.478515625 124.66796875 274.145507812 134.000976562 c 0
 276.8125 143.333984375 278.8125 150.666992188 280.145507812 156 c 0
 282.8125 166.666992188 287.979492188 175.833984375 295.646484375 183.500976562 c 0
 303.313476562 191.16796875 311.813476562 196.66796875 321.146484375 200.000976562 c 0
 335.146484375 204.66796875 347.813476562 207.000976562 359.146484375 207.000976562 c 0
 370.479492188 207.000976562 380.146484375 205.500976562 388.146484375 202.500976562 c 0
 396.146484375 199.500976562 403.479492188 193.66796875 410.146484375 185.000976562 c 0
 415.702148438 177.778320312 418.48046875 168.934570312 418.48046875 158.471679688 c 0
 418.48046875 156.379882812 418.369140625 154.22265625 418.147460938 152.000976562 c 0
 417.48046875 143.333984375 416.147460938 134.333984375 414.147460938 125.000976562 c 0
EndSplineSet
Validated: 524289
EndChar

StartChar: semicolon
Encoding: 59 59 34
Width: 630
GlyphClass: 2
Flags: HMW
HStem: 253.001 180.001<399.01 443.344>
VStem: 342.677 155.998
LayerCount: 2
Fore
SplineSet
495.674804688 363 m 0
 491.0078125 343.666992188 483.67578125 323.334960938 473.67578125 302.001953125 c 0
 466.342773438 285.334960938 455.009765625 272.66796875 439.676757812 264.000976562 c 0
 426.34375 256.66796875 414.34375 253.000976562 403.676757812 253.000976562 c 0
 394.34375 253.000976562 384.84375 255.000976562 375.176757812 259.000976562 c 0
 365.509765625 263.000976562 357.676757812 269.000976562 351.676757812 277.000976562 c 0
 345.471679688 284.8984375 342.369140625 293.989257812 342.369140625 304.274414062 c 0
 342.369140625 306.143554688 342.471679688 308.052734375 342.676757812 310.000976562 c 2
 342.676757812 311.000976562 l 2
 344.009765625 323.000976562 346.342773438 335.000976562 349.67578125 347.000976562 c 0
 353.008789062 359.000976562 356.008789062 370.333984375 358.67578125 381.000976562 c 0
 361.342773438 391.66796875 366.509765625 401.000976562 374.176757812 409.000976562 c 0
 381.84375 417.000976562 390.010742188 422.333984375 398.677734375 425.000976562 c 0
 413.344726562 429.66796875 426.677734375 432.334960938 438.677734375 433.001953125 c 0
 448.010742188 433.001953125 455.84375 432.168945312 462.176757812 430.501953125 c 0
 468.509765625 428.834960938 474.842773438 426.16796875 481.17578125 422.500976562 c 0
 487.508789062 418.833984375 492.341796875 413.000976562 495.674804688 405.000976562 c 0
 499.0078125 396.333984375 500.0078125 386.666992188 498.674804688 376 c 0
 497.341796875 372 496.341796875 367.666992188 495.674804688 363 c 0
411.67578125 79.0009765625 m 0
 411.67578125 77.0009765625 411.01171875 75 409.678710938 73 c 0
 403.01171875 51 362.678710938 -36.6669921875 288.678710938 -190 c 0
 280.678710938 -206.666992188 270.01171875 -219.333984375 256.678710938 -228.000976562 c 0
 245.678710938 -234.72265625 234.959960938 -238.083007812 224.520507812 -238.083007812 c 0
 223.5703125 -238.083007812 222.624023438 -238.055664062 221.678710938 -238 c 0
 205.678710938 -238 192.678710938 -233 182.678710938 -223 c 0
 175.801757812 -216.123046875 172.36328125 -207.435546875 172.36328125 -196.938476562 c 0
 172.36328125 -193.189453125 172.801757812 -189.209960938 173.678710938 -185 c 0
 176.345703125 -171.666992188 191.678710938 -132 219.678710938 -66 c 0
 247.678710938 0 269.01171875 49.3330078125 283.678710938 82 c 0
 289.01171875 93.3330078125 294.844726562 102.833007812 301.177734375 110.5 c 0
 307.510742188 118.166992188 314.34375 123.333984375 321.676757812 126.000976562 c 0
 331.009765625 129.333984375 339.676757812 131.333984375 347.676757812 132.000976562 c 0
 350.34375 132.000976562 353.34375 131.66796875 356.676757812 131.000976562 c 0
 370.009765625 131.000976562 382.676757812 127.66796875 394.676757812 121.000976562 c 0
 402.009765625 117.000976562 407.342773438 111.000976562 410.67578125 103.000976562 c 0
 413.342773438 95.66796875 413.67578125 87.66796875 411.67578125 79.0009765625 c 0
EndSplineSet
Validated: 524289
EndChar

StartChar: less
Encoding: 60 60 35
Width: 630
GlyphClass: 2
Flags: HMW
HStem: -24 21G<484.513 489.513 489.513 498.513>
LayerCount: 2
Fore
SplineSet
489.512695312 -24 m 2
 479.512695312 -24 468.846679688 -21.9990234375 457.513671875 -17.9990234375 c 0
 442.180664062 -12.666015625 424.84765625 -0.666015625 405.514648438 18.0009765625 c 0
 386.181640625 36.66796875 366.181640625 58.8349609375 345.514648438 84.501953125 c 0
 324.84765625 110.168945312 304.514648438 135.8359375 284.514648438 161.502929688 c 0
 264.514648438 187.169921875 243.34765625 213.669921875 221.014648438 241.002929688 c 0
 198.681640625 268.3359375 179.181640625 290.002929688 162.514648438 306.002929688 c 0
 154.514648438 314.002929688 150.514648438 325.002929688 150.514648438 339.002929688 c 0
 150.514648438 345.002929688 151.34765625 351.502929688 153.014648438 358.502929688 c 0
 154.681640625 365.502929688 157.181640625 372.669921875 160.514648438 380.002929688 c 0
 167.181640625 394.002929688 176.514648438 404.002929688 188.514648438 410.002929688 c 0
 229.84765625 438.002929688 279.014648438 473.169921875 336.014648438 515.502929688 c 0
 393.014648438 557.8359375 445.34765625 596.168945312 493.014648438 630.501953125 c 0
 540.681640625 664.834960938 582.514648438 692.001953125 618.514648438 712.001953125 c 0
 633.181640625 720.668945312 646.514648438 725.001953125 658.514648438 725.001953125 c 0
 667.84765625 725.001953125 675.514648438 722.668945312 681.514648438 718.001953125 c 0
 693.514648438 709.334960938 700.84765625 697.66796875 703.514648438 683.000976562 c 0
 704.84765625 676.333984375 704.680664062 669.000976562 703.013671875 661.000976562 c 0
 701.346679688 653.000976562 696.846679688 644.66796875 689.513671875 636.000976562 c 0
 678.846679688 622.66796875 660.513671875 607.66796875 634.513671875 591.000976562 c 0
 593.846679688 565.000976562 534.846679688 524.833984375 457.513671875 470.500976562 c 0
 380.180664062 416.16796875 327.513671875 379.334960938 299.513671875 360.001953125 c 1
 316.180664062 342.001953125 335.34765625 319.668945312 357.014648438 293.001953125 c 0
 378.681640625 266.334960938 398.014648438 241.66796875 415.014648438 219.000976562 c 0
 432.014648438 196.333984375 450.681640625 173.166992188 471.014648438 149.5 c 0
 491.34765625 125.833007812 510.180664062 106.833007812 527.513671875 92.5 c 0
 544.846679688 78.1669921875 555.846679688 65 560.513671875 53 c 0
 563.846679688 45 564.1796875 36.3330078125 561.512695312 27 c 0
 560.1796875 20.3330078125 557.512695312 14 553.512695312 8 c 0
 540.845703125 -10 522.512695312 -20.6669921875 498.512695312 -24 c 2
 489.512695312 -24 l 2
EndSplineSet
Validated: 524289
EndChar

StartChar: equal
Encoding: 61 61 36
Width: 630
GlyphClass: 2
Flags: HMW
HStem: 235 107<225.087 258.087> 435 106
LayerCount: 2
Fore
SplineSet
575.751953125 541 m 0
 593.751953125 541 605.419921875 536.33203125 610.752929688 526.999023438 c 0
 614.307617188 520.77734375 616.0859375 513.518554688 616.0859375 505.22265625 c 0
 616.0859375 501.07421875 615.640625 496.666015625 614.751953125 491.999023438 c 2
 614.751953125 490.999023438 l 2
 613.418945312 483.666015625 611.418945312 476.999023438 608.751953125 470.999023438 c 0
 606.084960938 464.999023438 602.084960938 458.83203125 596.751953125 452.499023438 c 0
 591.418945312 446.166015625 584.418945312 441.333007812 575.751953125 438 c 0
 569.751953125 436 563.751953125 435 557.751953125 435 c 2
 549.751953125 435 l 2
 527.751953125 435.666992188 504.751953125 436 480.751953125 436 c 2
 377.751953125 433 l 2
 334.418945312 431.666992188 302.418945312 431 281.751953125 431 c 0
 263.751953125 431 250.418945312 436 241.751953125 446 c 0
 235.4921875 453.22265625 232.362304688 461.8359375 232.362304688 471.840820312 c 0
 232.362304688 475.688476562 232.825195312 479.741210938 233.750976562 484 c 2
 233.750976562 487 l 2
 237.083984375 501 244.583984375 513.5 256.250976562 524.5 c 0
 267.91796875 535.5 282.41796875 541 299.750976562 541 c 2
 303.750976562 541 l 2
 340.150390625 539.799804688 380.149414062 539.200195312 423.749023438 539.200195312 c 0
 452.81640625 539.200195312 483.484375 539.466796875 515.751953125 540 c 0
 549.084960938 540.666992188 569.084960938 541 575.751953125 541 c 0
511.752929688 238.999023438 m 2
 504.75390625 239 l 2
 490.75390625 239.666992188 477.420898438 240 464.75390625 240 c 0
 438.75390625 240 398.75390625 239.166992188 344.75390625 237.5 c 0
 290.75390625 235.833007812 254.086914062 235 234.75390625 235 c 0
 215.420898438 235 202.087890625 240.333007812 194.754882812 251 c 0
 189.712890625 258.333984375 187.192382812 266.770507812 187.192382812 276.309570312 c 0
 187.192382812 280.645507812 187.712890625 285.208984375 188.754882812 290 c 2
 188.754882812 292 l 2
 192.087890625 306 199.920898438 317.833007812 212.25390625 327.5 c 0
 224.586914062 337.166992188 239.75390625 342 257.75390625 342 c 0
 258.420898438 342 263.75390625 341.666992188 273.75390625 341 c 0
 286.87109375 340.77734375 301.434570312 340.666015625 317.443359375 340.666015625 c 0
 349.438476562 340.666015625 387.208007812 341.110351562 430.752929688 341.999023438 c 2
 529.752929688 344.999023438 l 2
 547.752929688 344.999023438 559.5859375 340.33203125 565.252929688 330.999023438 c 0
 569.106445312 324.65234375 571.033203125 317.227539062 571.033203125 308.72265625 c 0
 571.033203125 304.720703125 570.606445312 300.479492188 569.752929688 295.999023438 c 2
 569.752929688 294.999023438 l 2
 568.419921875 287.666015625 566.252929688 281.166015625 563.252929688 275.499023438 c 0
 560.252929688 269.83203125 556.419921875 263.999023438 551.752929688 257.999023438 c 0
 546.419921875 251.33203125 539.419921875 245.999023438 530.752929688 241.999023438 c 0
 524.752929688 239.999023438 518.419921875 238.999023438 511.752929688 238.999023438 c 2
EndSplineSet
Validated: 524289
EndChar

StartChar: greater
Encoding: 62 62 37
Width: 630
GlyphClass: 2
Flags: HMW
HStem: -18 21G<122.89 133.558>
LayerCount: 2
Fore
SplineSet
127.224609375 -18 m 0
 118.557617188 -18 111.221679688 -15.6689453125 105.221679688 -11.001953125 c 0
 99.2216796875 -6.3349609375 94.388671875 -1.001953125 90.7216796875 4.998046875 c 0
 87.0546875 10.998046875 84.5546875 17.3310546875 83.2216796875 23.998046875 c 0
 81.888671875 30.6650390625 82.0556640625 37.998046875 83.72265625 45.998046875 c 0
 85.3896484375 53.998046875 89.556640625 62.3310546875 96.2236328125 70.998046875 c 0
 106.890625 84.3310546875 125.557617188 99.3310546875 152.224609375 115.998046875 c 0
 192.891601562 141.998046875 251.891601562 182.165039062 329.224609375 236.498046875 c 0
 406.557617188 290.831054688 458.890625 327.6640625 486.223632812 346.997070312 c 1
 468.890625 364.997070312 449.723632812 387.330078125 428.723632812 413.997070312 c 0
 407.723632812 440.6640625 388.556640625 465.331054688 371.223632812 487.998046875 c 0
 353.890625 510.665039062 335.057617188 533.83203125 314.724609375 557.499023438 c 0
 294.391601562 581.166015625 275.724609375 600.166015625 258.724609375 614.499023438 c 0
 241.724609375 628.83203125 230.891601562 641.999023438 226.224609375 653.999023438 c 0
 222.891601562 661.999023438 222.55859375 670.666015625 225.225585938 679.999023438 c 0
 226.55859375 686.666015625 229.225585938 692.999023438 233.225585938 698.999023438 c 0
 245.892578125 716.999023438 264.225585938 727.666015625 288.225585938 730.999023438 c 2
 297.225585938 730.999023438 l 2
 307.225585938 730.999023438 317.892578125 728.999023438 329.225585938 724.999023438 c 0
 344.55859375 719.666015625 362.05859375 707.833007812 381.725585938 689.5 c 0
 401.392578125 671.166992188 421.392578125 649 441.725585938 623 c 0
 462.05859375 597 482.225585938 571.166992188 502.225585938 545.5 c 0
 522.225585938 519.833007812 543.392578125 493.333007812 565.725585938 466 c 0
 588.05859375 438.666992188 607.55859375 417 624.225585938 401 c 0
 632.225585938 393 636.225585938 382 636.225585938 368 c 0
 636.225585938 362 635.392578125 355.5 633.725585938 348.5 c 0
 632.05859375 341.5 629.55859375 334.333007812 626.225585938 327 c 0
 619.55859375 313 610.225585938 303 598.225585938 297 c 0
 556.892578125 269.666992188 507.725585938 234.666992188 450.725585938 192 c 0
 393.725585938 149.333007812 341.392578125 110.833007812 293.725585938 76.5 c 0
 246.05859375 42.1669921875 204.225585938 15 168.225585938 -5 c 0
 153.55859375 -13.6669921875 139.891601562 -18 127.224609375 -18 c 0
EndSplineSet
Validated: 524289
EndChar

StartChar: question
Encoding: 63 63 38
Width: 630
GlyphClass: 2
Flags: HMW
HStem: -25.999 178.002<264.876 341.208 275.876 341.208> 508.998 21G<279.208 280.875 280.875 288.875> 625.003 108.995<456.542 462.874>
VStem: 294.876 116
LayerCount: 2
Fore
SplineSet
343.875 201 m 0
 338.541992188 201 332.875976562 201.66796875 326.875976562 203.000976562 c 0
 303.828125 209.810546875 292.3046875 224.028320312 292.3046875 245.655273438 c 0
 292.3046875 251.552734375 293.162109375 258.001953125 294.875976562 265.001953125 c 0
 296.875976562 274.334960938 300.54296875 284.334960938 305.875976562 295.001953125 c 0
 315.208984375 314.334960938 326.041992188 332.334960938 338.375 349.001953125 c 0
 350.708007812 365.668945312 363.375 380.001953125 376.375 392.001953125 c 0
 389.375 404.001953125 402.541992188 415.168945312 415.875 425.501953125 c 0
 429.208007812 435.834960938 441.875 445.501953125 453.875 454.501953125 c 0
 465.875 463.501953125 476.541992188 472.334960938 485.875 481.001953125 c 0
 505.875 499.668945312 518.208007812 519.001953125 522.875 539.001953125 c 0
 525.563476562 550.24609375 526.908203125 560.280273438 526.908203125 569.104492188 c 0
 526.908203125 584.34765625 522.896484375 595.98046875 514.874023438 604.002929688 c 0
 501.541015625 618.002929688 478.874023438 625.002929688 446.874023438 625.002929688 c 0
 439.541015625 625.002929688 431.708007812 623.169921875 423.375 619.502929688 c 0
 415.041992188 615.8359375 407.375 611.668945312 400.375 607.001953125 c 0
 393.375 602.334960938 385.541992188 595.66796875 376.875 587.000976562 c 0
 368.208007812 578.333984375 361.208007812 571.166992188 355.875 565.5 c 0
 350.541992188 559.833007812 343.875 552.166015625 335.875 542.499023438 c 0
 327.875 532.83203125 320.041992188 525.165039062 312.375 519.498046875 c 0
 304.708007812 513.831054688 296.875 510.331054688 288.875 508.998046875 c 2
 280.875 508.998046875 l 2
 277.541992188 508.998046875 273.875 509.665039062 269.875 510.998046875 c 0
 265.875 512.331054688 260.208007812 514.6640625 252.875 517.997070312 c 0
 240.875 525.997070312 234.875 537.330078125 234.875 551.997070312 c 0
 234.875 555.330078125 235.208007812 559.330078125 235.875 563.997070312 c 0
 238.541992188 575.997070312 244.875 589.330078125 254.875 603.997070312 c 0
 265.541992188 618.6640625 277.541992188 632.831054688 290.875 646.498046875 c 0
 304.208007812 660.165039062 320.041015625 673.998046875 338.374023438 687.998046875 c 0
 356.70703125 701.998046875 377.20703125 713.165039062 399.874023438 721.498046875 c 0
 422.541015625 729.831054688 445.208007812 733.998046875 467.875 733.998046875 c 0
 537.208007812 733.998046875 586.375 716.165039062 615.375 680.498046875 c 0
 634.063476562 657.512695312 643.408203125 627.3984375 643.408203125 590.154296875 c 0
 643.408203125 569.60546875 640.563476562 546.88671875 634.875 521.998046875 c 0
 630.208007812 502.665039062 623.208007812 484.83203125 613.875 468.499023438 c 0
 604.541992188 452.166015625 593.708984375 438.333007812 581.375976562 427 c 0
 569.04296875 415.666992188 556.375976562 405.166992188 543.375976562 395.5 c 0
 530.375976562 385.833007812 517.208984375 376.5 503.875976562 367.5 c 0
 490.54296875 358.5 478.04296875 349.166992188 466.375976562 339.5 c 0
 454.708984375 329.833007812 443.875976562 318.333007812 433.875976562 305 c 0
 423.875976562 291.666992188 416.208984375 276.666992188 410.875976562 260 c 0
 403.54296875 240 392.875976562 224.333007812 378.875976562 213 c 0
 368.208984375 205 356.541992188 201 343.875 201 c 0
275.875976562 -25.9990234375 m 2
 253.875976562 -25.9990234375 237.541992188 -17.9990234375 226.875 -1.9990234375 c 0
 218.279296875 10.66796875 213.982421875 24.7158203125 213.982421875 40.1455078125 c 0
 213.982421875 47.4541015625 214.946289062 55.0732421875 216.875 63.001953125 c 0
 222.875 87.6689453125 236.875 108.3359375 258.875 125.002929688 c 0
 282.208007812 143.002929688 305.875 152.002929688 329.875 152.002929688 c 0
 352.541992188 152.002929688 369.875 144.002929688 381.875 128.002929688 c 0
 390.026367188 116.681640625 394.1015625 103.515625 394.1015625 88.50390625 c 0
 394.1015625 81.4140625 393.192382812 73.9140625 391.375 66.001953125 c 0
 385.708007812 41.3349609375 373.208007812 20.66796875 353.875 4.0009765625 c 0
 334.541992188 -12.666015625 312.208984375 -22.666015625 286.875976562 -25.9990234375 c 2
 275.875976562 -25.9990234375 l 2
EndSplineSet
Validated: 524289
EndChar

StartChar: at
Encoding: 64 64 39
Width: 630
GlyphClass: 2
Flags: HMW
HStem: -141.997 110.002<255.792 312.46 273.126 312.46> 105 105.001<344.13 344.797> 369.5 100.5 601.002 113.999<460.127 501.791>
VStem: 98.625 109.002 565.63 98.4951
LayerCount: 2
Fore
SplineSet
415.124023438 148 m 1
 390.45703125 119.333007812 361.463867188 105 328.130859375 105 c 0
 288.130859375 105 259.963867188 118.833007812 243.630859375 146.5 c 0
 234.431640625 162.08203125 229.833007812 181.735351562 229.833007812 205.458984375 c 0
 229.833007812 223.857421875 232.598632812 244.704101562 238.131835938 268 c 0
 244.131835938 294.666992188 252.46484375 319.166992188 263.131835938 341.5 c 0
 273.798828125 363.833007812 285.798828125 383 299.131835938 399 c 0
 312.46484375 415 327.131835938 428.666992188 343.131835938 440 c 0
 371.131835938 460 401.131835938 470 433.131835938 470 c 0
 451.798828125 470 469.465820312 466 486.1328125 458 c 0
 500.799804688 451.333007812 511.799804688 442.333007812 519.1328125 431 c 0
 524.465820312 421.666992188 526.1328125 412.666992188 524.1328125 404 c 0
 523.465820312 399.333007812 521.1328125 394.333007812 517.1328125 389 c 0
 513.1328125 383.666992188 508.465820312 378.666992188 503.1328125 374 c 0
 497.799804688 369.333007812 492.1328125 366 486.1328125 364 c 0
 477.465820312 361.333007812 470.798828125 360 466.131835938 360 c 0
 458.131835938 360 449.46484375 361.333007812 440.131835938 364 c 0
 437.46484375 364.666992188 433.131835938 366 427.131835938 368 c 0
 420.46484375 369.333007812 413.96484375 369.833007812 407.631835938 369.5 c 0
 401.298828125 369.166992188 394.631835938 366.833984375 387.631835938 362.500976562 c 0
 380.631835938 358.16796875 373.798828125 352.66796875 367.131835938 346.000976562 c 0
 360.46484375 339.333984375 354.297851562 330.333984375 348.630859375 319.000976562 c 0
 342.963867188 307.66796875 338.796875 294.66796875 336.129882812 280.000976562 c 0
 334.129882812 272.000976562 332.629882812 264.333984375 331.629882812 257.000976562 c 0
 330.629882812 249.66796875 330.462890625 242.000976562 331.129882812 234.000976562 c 0
 331.796875 218.000976562 338.129882812 210.000976562 350.129882812 210.000976562 c 0
 357.462890625 210.000976562 363.462890625 211.333984375 368.129882812 214.000976562 c 0
 374.796875 216.66796875 380.463867188 221.334960938 385.130859375 228.001953125 c 0
 395.797851562 242.668945312 405.797851562 268.001953125 415.130859375 304.001953125 c 0
 419.130859375 319.334960938 432.463867188 331.66796875 455.130859375 341.000976562 c 0
 467.797851562 345.66796875 479.130859375 348.334960938 489.130859375 349.001953125 c 0
 496.463867188 349.001953125 502.463867188 347.668945312 507.130859375 345.001953125 c 0
 516.3046875 340.684570312 520.891601562 333.52734375 520.891601562 323.53125 c 0
 520.891601562 321.178710938 520.637695312 318.668945312 520.129882812 316.001953125 c 0
 520.129882812 314.668945312 519.462890625 313.3359375 518.129882812 312.002929688 c 0
 510.129882812 288.669921875 504.462890625 269.002929688 501.129882812 253.002929688 c 0
 497.129882812 235.002929688 495.129882812 219.669921875 495.129882812 207.002929688 c 0
 495.129882812 202.3359375 495.796875 199.002929688 497.129882812 197.002929688 c 0
 498.462890625 193.669921875 500.462890625 192.002929688 503.129882812 192.002929688 c 0
 504.462890625 193.3359375 506.129882812 195.3359375 508.129882812 198.002929688 c 0
 512.796875 206.002929688 517.796875 216.3359375 523.129882812 229.002929688 c 0
 531.129882812 253.002929688 537.462890625 275.002929688 542.129882812 295.002929688 c 0
 550.129882812 328.3359375 555.962890625 359.168945312 559.629882812 387.501953125 c 0
 563.296875 415.834960938 565.296875 439.834960938 565.629882812 459.501953125 c 0
 565.666992188 461.684570312 565.685546875 463.845703125 565.685546875 465.983398438 c 0
 565.685546875 483.10546875 564.5 498.778320312 562.12890625 513.001953125 c 0
 559.461914062 529.001953125 556.294921875 541.668945312 552.627929688 551.001953125 c 0
 548.9609375 560.334960938 543.9609375 568.334960938 537.627929688 575.001953125 c 0
 531.294921875 581.668945312 525.627929688 586.501953125 520.627929688 589.501953125 c 0
 515.627929688 592.501953125 509.627929688 595.001953125 502.627929688 597.001953125 c 0
 495.627929688 599.001953125 490.294921875 600.168945312 486.627929688 600.501953125 c 0
 482.9609375 600.834960938 477.793945312 601.001953125 471.126953125 601.001953125 c 0
 449.126953125 601.001953125 426.293945312 593.334960938 402.626953125 578.001953125 c 0
 378.959960938 562.668945312 356.126953125 540.668945312 334.126953125 512.001953125 c 0
 312.126953125 483.334960938 291.459960938 447.501953125 272.126953125 404.501953125 c 0
 252.793945312 361.501953125 237.4609375 314.668945312 226.127929688 264.001953125 c 0
 215.4609375 219.334960938 209.293945312 179.334960938 207.626953125 144.001953125 c 0
 207.188476562 134.703125 206.96875 125.888671875 206.96875 117.559570312 c 0
 206.96875 94.240234375 208.688476562 74.7216796875 212.126953125 59.0029296875 c 0
 216.793945312 37.669921875 224.126953125 19.8369140625 234.126953125 5.50390625 c 0
 244.126953125 -8.8291015625 254.793945312 -18.662109375 266.126953125 -23.9951171875 c 0
 277.459960938 -29.328125 290.459960938 -31.9951171875 305.126953125 -31.9951171875 c 0
 319.793945312 -31.9951171875 333.626953125 -30.328125 346.626953125 -26.9951171875 c 0
 359.626953125 -23.662109375 370.626953125 -19.9951171875 379.626953125 -15.9951171875 c 0
 388.626953125 -11.9951171875 397.626953125 -6.328125 406.626953125 1.0048828125 c 0
 415.626953125 8.337890625 422.959960938 15.1708984375 428.626953125 21.50390625 c 0
 434.293945312 27.8369140625 441.126953125 35.669921875 449.126953125 45.0029296875 c 0
 453.126953125 50.3359375 456.293945312 54.5029296875 458.626953125 57.5029296875 c 0
 460.959960938 60.5029296875 464.126953125 64.169921875 468.126953125 68.5029296875 c 0
 472.126953125 72.8359375 475.626953125 76.0029296875 478.626953125 78.0029296875 c 0
 481.626953125 80.0029296875 485.126953125 82.0029296875 489.126953125 84.0029296875 c 0
 493.126953125 86.0029296875 497.459960938 87.0029296875 502.126953125 87.0029296875 c 0
 506.793945312 87.0029296875 511.126953125 86.0029296875 515.126953125 84.0029296875 c 0
 521.126953125 81.3359375 525.793945312 78.0029296875 529.126953125 74.0029296875 c 0
 532.459960938 70.0029296875 534.626953125 65.169921875 535.626953125 59.5029296875 c 0
 536.626953125 53.8359375 536.459960938 48.0029296875 535.126953125 42.0029296875 c 0
 532.459960938 30.669921875 526.459960938 17.0029296875 517.126953125 1.0029296875 c 0
 511.126953125 -8.9970703125 505.459960938 -17.6640625 500.126953125 -24.9970703125 c 0
 494.793945312 -32.330078125 487.793945312 -41.330078125 479.126953125 -51.9970703125 c 0
 470.459960938 -62.6640625 461.79296875 -71.9970703125 453.125976562 -79.9970703125 c 0
 444.458984375 -87.9970703125 433.458984375 -96.1640625 420.125976562 -104.497070312 c 0
 406.79296875 -112.830078125 393.125976562 -119.497070312 379.125976562 -124.497070312 c 0
 365.125976562 -129.497070312 349.458984375 -133.6640625 332.125976562 -136.997070312 c 0
 314.79296875 -140.330078125 297.125976562 -141.997070312 279.125976562 -141.997070312 c 2
 273.125976562 -141.997070312 l 2
 238.458984375 -141.997070312 208.291992188 -132.6640625 182.625 -113.997070312 c 0
 156.958007812 -95.330078125 136.958007812 -69.9970703125 122.625 -37.9970703125 c 0
 108.291992188 -5.9970703125 100.291992188 32.8359375 98.625 78.5029296875 c 0
 98.421875 84.072265625 98.3203125 89.7041015625 98.3203125 95.3984375 c 0
 98.3203125 136.387695312 103.588867188 180.588867188 114.125 228.002929688 c 0
 128.125 287.3359375 145.291992188 342.8359375 165.625 394.502929688 c 0
 185.958007812 446.169921875 208.625 491.169921875 233.625 529.502929688 c 0
 258.625 567.8359375 285.291992188 601.168945312 313.625 629.501953125 c 0
 341.958007812 657.834960938 371.125 679.16796875 401.125 693.500976562 c 0
 431.125 707.833984375 461.125 715.000976562 491.125 715.000976562 c 0
 512.458007812 715.000976562 531.625 713.16796875 548.625 709.500976562 c 0
 565.625 705.833984375 581.625 699.500976562 596.625 690.500976562 c 0
 611.625 681.500976562 623.791992188 669.66796875 633.125 655.000976562 c 0
 642.458007812 640.333984375 649.958007812 622.000976562 655.625 600.000976562 c 0
 661.291992188 578.000976562 664.125 552.333984375 664.125 523.000976562 c 0
 664.125 461.66796875 653.125 385.000976562 631.125 293.000976562 c 0
 619.125 242.333984375 602.125 198.000976562 580.125 160.000976562 c 0
 567.458007812 138.66796875 552.625 121.500976562 535.625 108.500976562 c 0
 518.625 95.5009765625 500.458007812 89.0009765625 481.125 89.0009765625 c 0
 452.458007812 89.0009765625 432.791015625 99.333984375 422.124023438 120.000976562 c 0
 418.124023438 127.333984375 415.791015625 136.666992188 415.124023438 148 c 1
EndSplineSet
Validated: 524289
EndChar

StartChar: A
Encoding: 65 65 40
Width: 630
GlyphClass: 2
Flags: HMW
HStem: -6.00195 21G<90.8343 98.5013> 251 91.998<481.162 481.162>
VStem: 481.163 109.502 486.168 115.998
LayerCount: 2
Fore
SplineSet
161.162109375 49 m 0xe0
 148.495117188 25 134.500976562 8.998046875 119.16796875 0.998046875 c 0
 110.500976562 -3.6689453125 102.333984375 -6.001953125 94.6669921875 -6.001953125 c 0
 87 -6.001953125 80.1669921875 -4.3349609375 74.1669921875 -1.001953125 c 0
 64.1669921875 4.3310546875 57.833984375 12.6640625 55.1669921875 23.9970703125 c 0
 53.1669921875 32.6640625 53.333984375 42.1640625 55.6669921875 52.4970703125 c 0
 58 62.830078125 61.8330078125 73.6630859375 67.166015625 84.99609375 c 0
 75.8330078125 105.663085938 104.166015625 153.99609375 152.166015625 229.99609375 c 1
 146.610351562 237.21875 143.83203125 245.831054688 143.83203125 255.83203125 c 0
 143.83203125 257.831054688 143.943359375 259.88671875 144.165039062 261.997070312 c 0
 144.165039062 262.6640625 144.498046875 263.331054688 145.165039062 263.998046875 c 0
 147.83203125 275.998046875 155.499023438 286.665039062 168.166015625 295.998046875 c 0
 178.833007812 304.665039062 191.166015625 311.33203125 205.166015625 315.999023438 c 1
 327.166015625 497.999023438 417.499023438 620.33203125 476.166015625 682.999023438 c 0
 490.166015625 696.999023438 502.499023438 707.33203125 513.166015625 713.999023438 c 0
 523.833007812 721.33203125 535.166015625 724.999023438 547.166015625 724.999023438 c 0
 550.499023438 724.999023438 553.166015625 725.33203125 555.166015625 725.999023438 c 0
 567.833007812 725.999023438 578.166015625 722.666015625 586.166015625 715.999023438 c 0
 596.965820312 708.798828125 602.366210938 697.818359375 602.366210938 683.05859375 c 0
 602.366210938 681.41796875 602.298828125 679.732421875 602.166015625 677.999023438 c 0xd0
 597.499023438 597.999023438 593.83203125 484.999023438 591.165039062 338.999023438 c 0
 590.403320312 292.51953125 590.022460938 253.061523438 590.022460938 220.625 c 0
 590.022460938 196.301757812 590.236328125 175.926757812 590.665039062 159.5 c 0
 591.665039062 121.166992188 593.498046875 97.6669921875 596.165039062 89 c 0
 598.248046875 81.5 599.290039062 74.259765625 599.290039062 67.2802734375 c 0
 599.290039062 63.09375 598.915039062 59 598.165039062 55 c 0
 597.498046875 53 596.831054688 50.6669921875 596.1640625 48 c 0
 592.1640625 36 585.997070312 25.8330078125 577.6640625 17.5 c 0
 569.331054688 9.1669921875 560.1640625 3 550.1640625 -1 c 0
 538.831054688 -4.3330078125 531.831054688 -6 529.1640625 -6 c 0
 521.1640625 -6 513.497070312 -3.6669921875 506.1640625 1 c 0
 493.497070312 9 485.830078125 24.6669921875 483.163085938 48 c 0
 481.080078125 61.333984375 480.038085938 92.767578125 480.038085938 142.301757812 c 0
 480.038085938 172.01953125 480.413085938 208.251953125 481.163085938 251 c 1
 402.49609375 247.666992188 330.829101562 241 266.162109375 231 c 1
 232.829101562 179 197.829101562 118.333007812 161.162109375 49 c 0xe0
330.16796875 331.998046875 m 1
 385.500976562 337.998046875 435.834960938 341.665039062 481.16796875 342.998046875 c 1
 486.16796875 567.998046875 l 1
 448.834960938 519.998046875 396.834960938 441.331054688 330.16796875 331.998046875 c 1
EndSplineSet
Validated: 524289
EndChar

StartChar: B
Encoding: 66 66 41
Width: 630
GlyphClass: 2
Flags: HMW
HStem: -23 21G<132.009 139.341> 285.002 97.998 605.004 103.999<409.677 414.676>
LayerCount: 2
Fore
SplineSet
75.6748046875 42 m 0
 81.6748046875 61.3330078125 90.0087890625 94.00390625 100.67578125 140.00390625 c 0
 120.67578125 227.336914062 141.342773438 324.00390625 162.67578125 430.00390625 c 0
 171.342773438 473.336914062 177.342773438 502.50390625 180.67578125 517.50390625 c 0
 184.008789062 532.50390625 189.008789062 552.50390625 195.67578125 577.50390625 c 0
 202.342773438 602.50390625 207.009765625 619.670898438 209.676757812 629.00390625 c 0
 215.009765625 649.670898438 224.509765625 665.670898438 238.176757812 677.00390625 c 0
 251.84375 688.336914062 266.34375 694.00390625 281.676757812 694.00390625 c 2
 284.676757812 694.00390625 l 1
 302.676757812 699.336914062 324.34375 703.336914062 349.676757812 706.00390625 c 0
 360.34375 707.336914062 371.34375 708.169921875 382.676757812 708.502929688 c 0
 394.009765625 708.8359375 403.009765625 709.002929688 409.676757812 709.002929688 c 2
 429.676757812 709.002929688 l 1
 441.676757812 709.002929688 l 2
 489.009765625 709.002929688 529.676757812 700.669921875 563.676757812 684.002929688 c 0
 597.009765625 667.3359375 619.676757812 642.3359375 631.676757812 609.002929688 c 0
 639.295898438 589.955078125 643.10546875 569.166015625 643.10546875 546.634765625 c 0
 643.10546875 529.737304688 640.962890625 511.860351562 636.676757812 493.002929688 c 0
 628.009765625 455.002929688 611.342773438 422.002929688 586.67578125 394.002929688 c 0
 568.67578125 372.669921875 548.008789062 355.669921875 524.67578125 343.002929688 c 1
 537.342773438 336.3359375 549.009765625 328.668945312 559.676757812 320.001953125 c 0
 577.009765625 305.334960938 591.009765625 288.66796875 601.676757812 270.000976562 c 0
 609.434570312 256.424804688 613.313476562 243.026367188 613.313476562 229.802734375 c 0
 613.313476562 224.84375 612.767578125 219.91015625 611.676757812 215.000976562 c 0
 611.676757812 214.333984375 611.34375 214.000976562 610.676757812 214.000976562 c 0
 604.676757812 188.000976562 592.34375 162.333984375 573.676757812 137.000976562 c 0
 555.009765625 111.66796875 531.342773438 88.5009765625 502.67578125 67.5009765625 c 0
 474.008789062 46.5009765625 438.341796875 28.66796875 395.674804688 14.0009765625 c 0
 352.341796875 -0.666015625 306.674804688 -9.9990234375 258.674804688 -13.9990234375 c 1
 253.688476562 -10.7724609375 248.37890625 -9.1591796875 242.747070312 -9.1591796875 c 0
 235.579101562 -9.1591796875 227.888671875 -11.7724609375 219.674804688 -16.9990234375 c 1
 187.0078125 -19.666015625 166.674804688 -21.3330078125 158.674804688 -22 c 0
 150.674804688 -22.6669921875 143.0078125 -23 135.674804688 -23 c 0
 128.341796875 -23 121.674804688 -22.3330078125 115.674804688 -21 c 2
 113.674804688 -21 l 2
 98.341796875 -21 86.6748046875 -15.3330078125 78.6748046875 -4 c 0
 74.5078125 2.25 72.4248046875 9.671875 72.4248046875 18.265625 c 0
 72.4248046875 23.421875 73.1748046875 29 74.6748046875 35 c 0
 74.6748046875 37.6669921875 75.0078125 40 75.6748046875 42 c 0
268.67578125 402.00390625 m 0
 267.342773438 395.336914062 266.006835938 389 264.673828125 383 c 1
 292.006835938 382.333007812 316.673828125 381.833007812 338.673828125 381.5 c 0
 340.872070312 381.466796875 343.04296875 381.450195312 345.184570312 381.450195312 c 0
 364.4765625 381.450195312 381.47265625 382.799804688 396.173828125 385.5 c 0
 412.506835938 388.5 426.506835938 392.333007812 438.173828125 397 c 0
 449.840820312 401.666992188 460.5078125 407.333984375 470.174804688 414.000976562 c 0
 479.841796875 420.66796875 487.508789062 427.334960938 493.17578125 434.001953125 c 0
 498.842773438 440.668945312 504.17578125 448.168945312 509.17578125 456.501953125 c 0
 514.17578125 464.834960938 518.008789062 472.334960938 520.67578125 479.001953125 c 0
 523.342773438 485.668945312 525.342773438 492.668945312 526.67578125 500.001953125 c 0
 528.4296875 507.721679688 529.307617188 515.1640625 529.307617188 522.330078125 c 0
 529.307617188 528.778320312 528.596679688 535.002929688 527.17578125 541.002929688 c 0
 524.17578125 553.669921875 518.67578125 563.836914062 510.67578125 571.50390625 c 0
 502.67578125 579.170898438 493.342773438 585.670898438 482.67578125 591.00390625 c 0
 463.92578125 600.37890625 442.833007812 605.06640625 419.396484375 605.06640625 c 0
 417.833007812 605.06640625 416.259765625 605.045898438 414.67578125 605.00390625 c 0
 382.67578125 605.00390625 350.67578125 602.00390625 318.67578125 596.00390625 c 1
 315.342773438 584.00390625 310.67578125 566.00390625 304.67578125 542.00390625 c 0
 290.67578125 492.670898438 278.67578125 446.00390625 268.67578125 402.00390625 c 0
471.172851562 165.5 m 0
 482.83984375 178.5 489.674804688 189.670898438 491.674804688 199.00390625 c 0
 493.0078125 204.336914062 491.5078125 210.669921875 487.174804688 218.002929688 c 0
 482.841796875 225.3359375 474.841796875 233.168945312 463.174804688 241.501953125 c 0
 451.5078125 249.834960938 433.840820312 258.001953125 410.173828125 266.001953125 c 0
 386.506835938 274.001953125 359.006835938 280.334960938 327.673828125 285.001953125 c 1
 244.673828125 285.001953125 l 1
 226.006835938 193.001953125 212.33984375 124.668945312 203.672851562 80.001953125 c 1
 210.33984375 80.001953125 220.33984375 80.1689453125 233.672851562 80.501953125 c 0
 247.005859375 80.8349609375 258.005859375 81.3349609375 266.672851562 82.001953125 c 0
 296.672851562 83.3349609375 325.672851562 88.16796875 353.672851562 96.5009765625 c 0
 381.672851562 104.833984375 405.33984375 115.166992188 424.672851562 127.5 c 0
 444.005859375 139.833007812 459.505859375 152.5 471.172851562 165.5 c 0
EndSplineSet
Validated: 524289
EndChar

StartChar: C
Encoding: 67 67 42
Width: 630
GlyphClass: 2
Flags: HMW
HStem: -30.9971 114.001<255.598 317.598 269.931 317.598> 608.005 104.996<548.598 549.598>
LayerCount: 2
Fore
SplineSet
724.930664062 692 m 0
 724.930664062 666 721.264648438 638.336914062 713.931640625 609.00390625 c 0
 709.264648438 589.00390625 706.264648438 577.00390625 704.931640625 573.00390625 c 0
 700.931640625 556.336914062 691.431640625 539.50390625 676.431640625 522.50390625 c 0
 661.431640625 505.50390625 647.264648438 496.336914062 633.931640625 495.00390625 c 0
 631.264648438 495.00390625 628.264648438 494.670898438 624.931640625 494.00390625 c 0
 613.598632812 494.00390625 603.598632812 498.00390625 594.931640625 506.00390625 c 0
 584.67578125 514.208984375 579.546875 524.583984375 579.546875 537.12890625 c 0
 579.546875 540.891601562 580.008789062 544.850585938 580.931640625 549.00390625 c 0
 582.264648438 553.670898438 585.59765625 565.670898438 590.930664062 585.00390625 c 1
 583.59765625 590.336914062 578.930664062 593.836914062 576.930664062 595.50390625 c 0
 574.930664062 597.170898438 571.930664062 599.337890625 567.930664062 602.004882812 c 0
 560.59765625 606.004882812 553.264648438 608.004882812 545.931640625 608.004882812 c 0
 527.264648438 608.004882812 505.264648438 602.004882812 479.931640625 590.004882812 c 0
 454.598632812 578.004882812 428.931640625 560.504882812 402.931640625 537.504882812 c 0
 376.931640625 514.504882812 351.764648438 488.171875 327.431640625 458.504882812 c 0
 303.098632812 428.837890625 281.431640625 395.170898438 262.431640625 357.50390625 c 0
 243.431640625 319.836914062 229.598632812 282.336914062 220.931640625 245.00390625 c 0
 217.754882812 230.88671875 216.166992188 217.001953125 216.166992188 203.3515625 c 0
 216.166992188 191.217773438 217.421875 179.268554688 219.931640625 167.50390625 c 0
 225.264648438 142.50390625 235.764648438 122.170898438 251.431640625 106.50390625 c 0
 267.098632812 90.8369140625 285.598632812 83.00390625 306.931640625 83.00390625 c 0
 328.264648438 83.00390625 349.264648438 85.1708984375 369.931640625 89.50390625 c 0
 390.598632812 93.8369140625 409.598632812 99.3369140625 426.931640625 106.00390625 c 0
 444.264648438 112.670898438 459.431640625 119.50390625 472.431640625 126.50390625 c 0
 485.431640625 133.50390625 497.598632812 140.670898438 508.931640625 148.00390625 c 0
 518.931640625 154.670898438 527.931640625 160.00390625 535.931640625 164.00390625 c 0
 543.931640625 168.00390625 552.431640625 169.836914062 561.431640625 169.50390625 c 0
 570.431640625 169.170898438 577.931640625 166.00390625 583.931640625 160.00390625 c 0
 592.494140625 151.44140625 596.775390625 141.641601562 596.775390625 130.60546875 c 0
 596.775390625 127.034179688 596.327148438 123.333984375 595.430664062 119.50390625 c 0
 591.763671875 103.836914062 580.263671875 86.669921875 560.930664062 68.0029296875 c 0
 492.284179688 1.99609375 399.45703125 -31.0068359375 282.450195312 -31.0068359375 c 0
 281.279296875 -31.0068359375 280.106445312 -31.00390625 278.930664062 -30.9970703125 c 2
 269.930664062 -30.9970703125 l 2
 241.263671875 -30.9970703125 214.930664062 -26.330078125 190.930664062 -16.9970703125 c 0
 167.59765625 -7.6640625 149.264648438 5.0029296875 135.931640625 21.0029296875 c 0
 122.598632812 37.0029296875 111.931640625 55.3359375 103.931640625 76.0029296875 c 0
 95.931640625 96.669921875 91.5986328125 118.669921875 90.931640625 142.002929688 c 0
 90.857421875 144.596679688 90.8203125 147.190429688 90.8203125 149.784179688 c 0
 90.8203125 170.5234375 93.1904296875 191.262695312 97.9306640625 212.001953125 c 0
 109.263671875 260.001953125 124.763671875 306.501953125 144.430664062 351.501953125 c 0
 164.09765625 396.501953125 186.09765625 437.001953125 210.430664062 473.001953125 c 0
 234.763671875 509.001953125 261.596679688 542.334960938 290.9296875 573.001953125 c 0
 320.9296875 603.001953125 351.596679688 628.168945312 382.9296875 648.501953125 c 0
 414.262695312 668.834960938 445.262695312 684.66796875 475.9296875 696.000976562 c 0
 506.596679688 707.333984375 535.263671875 713.000976562 561.930664062 713.000976562 c 0
 583.263671875 713.000976562 602.930664062 711.333984375 620.930664062 708.000976562 c 1
 626.263671875 715.333984375 632.596679688 721.666992188 639.9296875 727 c 0
 650.596679688 735 661.263671875 739.333007812 671.930664062 740 c 0
 675.930664062 740.666992188 678.430664062 741 679.430664062 741 c 2
 680.930664062 741 l 2
 690.930664062 741 699.930664062 737.666992188 707.930664062 731 c 0
 719.263671875 721.666992188 724.930664062 708.666992188 724.930664062 692 c 0
EndSplineSet
Validated: 524289
EndChar

StartChar: D
Encoding: 68 68 43
Width: 630
GlyphClass: 2
Flags: HMW
HStem: -31 110.001<315.803 373.138 331.136 373.138> 694 20G<264.139 282.805>
LayerCount: 2
Fore
SplineSet
268.638671875 86 m 0
 295.638671875 81.3330078125 327.805664062 79.0009765625 365.138671875 79.0009765625 c 0
 381.138671875 79.0009765625 397.805664062 84.66796875 415.138671875 96.0009765625 c 0
 432.471679688 107.333984375 448.3046875 122.166992188 462.637695312 140.5 c 0
 476.970703125 158.833007812 489.970703125 179.333007812 501.637695312 202 c 0
 513.3046875 224.666992188 521.471679688 246.666992188 526.138671875 268 c 0
 533.09765625 297.98828125 536.576171875 326.2265625 536.576171875 352.71484375 c 0
 536.576171875 432.810546875 504.763671875 496.905273438 441.138671875 545 c 0
 411.138671875 567.666992188 365.138671875 591 303.138671875 615 c 1
 282.471679688 533.666992188 263.471679688 448.666992188 246.138671875 360 c 0
 240.138671875 331.333007812 231.638671875 289.5 220.638671875 234.5 c 0
 209.638671875 179.5 201.138671875 137.333007812 195.138671875 108 c 1
 217.138671875 98 241.638671875 90.6669921875 268.638671875 86 c 0
66.1376953125 62 m 0
 72.8046875 84.6669921875 81.8056640625 120 93.138671875 168 c 0
 113.138671875 256 135.471679688 360.666992188 160.138671875 482 c 0
 167.471679688 518 172.471679688 541.833007812 175.138671875 553.5 c 0
 177.805664062 565.166992188 182.47265625 583 189.139648438 607 c 0
 194.24609375 625.380859375 197.591796875 637.896484375 199.178710938 644.545898438 c 0
 199.283203125 645.229492188 199.603515625 647.046875 200.140625 649.999023438 c 0
 205.473632812 670.666015625 214.806640625 686.333007812 228.139648438 697 c 0
 241.47265625 708.333007812 256.139648438 714 272.139648438 714 c 0
 293.47265625 714 320.47265625 710.666992188 353.139648438 704 c 0
 373.806640625 700 394.806640625 694.5 416.139648438 687.5 c 0
 437.47265625 680.5 459.805664062 670.666992188 483.138671875 658 c 0
 506.471679688 645.333007812 528.138671875 630.833007812 548.138671875 614.5 c 0
 568.138671875 598.166992188 586.138671875 577.333984375 602.138671875 552.000976562 c 0
 616.805664062 527.333984375 628.138671875 500.166992188 636.138671875 470.5 c 0
 643.5234375 443.116210938 647.215820312 411.1875 647.215820312 374.715820312 c 0
 647.215820312 371.67578125 647.190429688 368.603515625 647.138671875 365.5 c 0
 646.471679688 325.166992188 640.8046875 281.666992188 630.137695312 235 c 0
 624.8046875 211.666992188 616.3046875 187.666992188 604.637695312 163 c 0
 592.970703125 138.333007812 578.303710938 114.666015625 560.63671875 91.9990234375 c 0
 542.969726562 69.33203125 523.469726562 48.83203125 502.13671875 30.4990234375 c 0
 480.803710938 12.166015625 456.13671875 -2.6669921875 428.13671875 -14 c 0
 400.979492188 -25.3681640625 373.522460938 -31.052734375 345.767578125 -31.052734375 c 0
 344.224609375 -31.052734375 342.681640625 -31.03515625 341.13671875 -31 c 2
 331.13671875 -31 l 2
 300.469726562 -31 270.13671875 -29.5 240.13671875 -26.5 c 0
 210.13671875 -23.5 186.13671875 -20 168.13671875 -16 c 0
 150.803710938 -12 136.470703125 -8.3330078125 125.137695312 -5 c 0
 113.8046875 -1.6669921875 106.8046875 0 104.137695312 0 c 0
 88.8046875 0 77.1376953125 5.6669921875 69.1376953125 17 c 0
 64.6923828125 23.6669921875 62.470703125 31.51953125 62.470703125 40.556640625 c 0
 62.470703125 45.0751953125 63.025390625 49.8896484375 64.13671875 55 c 0
 64.8037109375 57.6669921875 65.470703125 60 66.1376953125 62 c 0
199.6796875 646.7109375 m 1
 199.892578125 647.672851562 200.046875 648.435546875 200.140625 649 c 1
 199.962890625 648.11328125 199.809570312 647.349609375 199.6796875 646.7109375 c 1
EndSplineSet
Validated: 524289
EndChar

StartChar: E
Encoding: 69 69 44
Width: 630
GlyphClass: 2
Flags: HMW
HStem: -20 115 -6 115<485.208 544.873 492.208 544.873> 301 108.999 319 106<567.541 606.206> 589.998 107.998<483.538 514.206 464.206 535.872>
VStem: 206.207 1<640 640>
LayerCount: 2
Fore
SplineSet
282.205078125 704 m 2x8c
 297.538085938 704 309.206054688 698.663085938 317.206054688 687.99609375 c 1
 372.5390625 694.663085938 441.872070312 697.99609375 525.205078125 697.99609375 c 0
 546.538085938 697.99609375 566.87109375 697.663085938 586.204101562 696.99609375 c 0
 624.87109375 695.663085938 654.538085938 693.663085938 675.205078125 690.99609375 c 0
 691.872070312 688.99609375 703.0390625 683.829101562 708.706054688 675.49609375 c 0
 712.559570312 669.830078125 714.486328125 662.853515625 714.486328125 654.56640625 c 0
 714.486328125 650.666015625 714.059570312 646.4765625 713.206054688 641.99609375 c 0
 711.873046875 634.663085938 709.706054688 627.830078125 706.706054688 621.497070312 c 0
 703.706054688 615.1640625 699.873046875 609.331054688 695.206054688 603.998046875 c 0
 689.873046875 597.331054688 682.873046875 591.998046875 674.206054688 587.998046875 c 0
 668.206054688 585.998046875 661.873046875 584.998046875 655.206054688 584.998046875 c 2
 648.206054688 584.998046875 l 2
 606.206054688 588.331054688 561.5390625 589.998046875 514.206054688 589.998046875 c 2
 464.206054688 589.998046875 l 2
 404.873046875 588.665039062 352.873046875 585.33203125 308.206054688 579.999023438 c 1
 292.206054688 522.666015625 277.873046875 465.999023438 265.206054688 409.999023438 c 1
 313.206054688 410.666015625 378.5390625 413.333007812 461.206054688 418 c 0
 541.873046875 422.666992188 587.206054688 425 597.206054688 425 c 0
 615.206054688 425 627.0390625 420.333007812 632.706054688 411 c 0
 636.274414062 405.123046875 638.05859375 398.321289062 638.05859375 390.59375 c 0
 638.05859375 386.049804688 637.44140625 381.184570312 636.20703125 376 c 2
 636.20703125 375 l 2
 632.874023438 359 626.541015625 346.666992188 617.208007812 338 c 0
 605.208007812 325.333007812 590.541015625 319 573.208007812 319 c 0x9c
 561.875 319 513.208007812 316.333007812 427.208007812 311 c 0
 339.208007812 305 277.208007812 301.666992188 241.208007812 301 c 1
 237.875 285 234.375 269 230.708007812 253 c 0
 227.041015625 237 223.541015625 220.333007812 220.208007812 203 c 0
 210.208007812 158.333007812 204.208007812 127.333007812 202.208007812 110 c 0
 201.541015625 104 200.874023438 99 200.20703125 95 c 1xac
 212.20703125 93.6669921875 230.540039062 92.833984375 255.20703125 92.5009765625 c 0
 260.137695312 92.4345703125 265.321289062 92.4013671875 270.7578125 92.4013671875 c 0
 292.51953125 92.4013671875 318.3359375 92.9345703125 348.20703125 94.0009765625 c 0
 435.540039062 97.333984375 491.20703125 101.666992188 515.20703125 107 c 0
 525.20703125 108.333007812 533.874023438 109 541.20703125 109 c 0
 548.540039062 109 554.70703125 107.333007812 559.70703125 104 c 0
 564.70703125 100.666992188 568.70703125 97.1669921875 571.70703125 93.5 c 0
 574.70703125 89.8330078125 576.540039062 85.3330078125 577.20703125 80 c 0
 577.874023438 74.6669921875 578.20703125 70 578.20703125 66 c 0
 578.20703125 62 577.874023438 57.6669921875 577.20703125 53 c 0
 573.874023438 37.6669921875 565.541015625 23.6669921875 552.208007812 11 c 0
 540.208007812 -0.3330078125 526.208007812 -6.3330078125 510.208007812 -7 c 1
 507.541015625 1.6669921875 502.541015625 2 495.208007812 -6 c 1
 492.208007812 -6 l 2x4c
 478.208007812 -6 451.208007812 -7.3330078125 411.208007812 -10 c 0
 369.875 -12.6669921875 327.541992188 -15 284.208984375 -17 c 0
 240.875976562 -19 208.208984375 -20 186.208984375 -20 c 0
 164.875976562 -20 147.875976562 -19.3330078125 135.208984375 -18 c 0
 118.541992188 -16.6669921875 103.875 -8 91.2080078125 8 c 0
 80.744140625 20.666015625 75.5126953125 35.8349609375 75.5126953125 53.505859375 c 0
 75.5126953125 57.2265625 75.744140625 61.0576171875 76.2080078125 65 c 0
 77.541015625 81 82.8740234375 109 92.20703125 149 c 0
 100.874023438 185.666992188 109.70703125 222.5 118.70703125 259.5 c 0
 127.70703125 296.5 135.20703125 328 141.20703125 354 c 0
 147.20703125 380 154.540039062 415.666992188 163.20703125 461 c 0
 171.20703125 499.666992188 176.70703125 525.5 179.70703125 538.5 c 0
 182.70703125 551.5 187.540039062 570 194.20703125 594 c 0
 200.201171875 615.578125 204.0390625 630.150390625 205.721679688 637.716796875 c 1
 205.010742188 634.133789062 205.504882812 634.89453125 207.20703125 640 c 0
 212.540039062 660.666992188 221.873046875 676.5 235.206054688 687.5 c 0
 248.5390625 698.5 262.872070312 704 278.205078125 704 c 2
 282.205078125 704 l 2x8c
205.721679688 637.716796875 m 1
 205.846679688 638.344726562 206.008789062 639.10546875 206.20703125 640 c 1
 206.072265625 639.327148438 205.911132812 638.56640625 205.721679688 637.716796875 c 1
EndSplineSet
Validated: 524289
EndChar

StartChar: F
Encoding: 70 70 45
Width: 630
GlyphClass: 2
Flags: HMW
HStem: -21.002 21G<99.6157 107.283 107.283 110.283> 313.498 106.502 597 110<517.615 557.615> 694 20G<280.282 285.282 285.282 293.282>
LayerCount: 2
Fore
SplineSet
285.282226562 714 m 2xd0
 301.282226562 714 312.94921875 708.666992188 320.282226562 698 c 1
 401.615234375 704 479.948242188 707 555.28125 707 c 0
 604.614257812 707 644.947265625 705.333007812 676.280273438 702 c 0
 692.947265625 700.666992188 704.114257812 695.666992188 709.78125 687 c 0
 713.969726562 680.59375 716.063476562 672.548828125 716.063476562 662.865234375 c 0
 716.063476562 659.447265625 715.802734375 655.825195312 715.28125 651.999023438 c 0
 713.28125 643.33203125 712.948242188 643.33203125 714.28125 651.999023438 c 1
 710.948242188 636.666015625 703.615234375 623.333007812 692.282226562 612 c 0
 680.94921875 600.666992188 666.282226562 595 648.282226562 595 c 2
 646.282226562 595 l 2
 612.94921875 596.333007812 576.94921875 597 538.282226562 597 c 0xe0
 466.282226562 597 390.282226562 594.333007812 310.282226562 589 c 1
 307.615234375 579 303.282226562 563.666992188 297.282226562 543 c 0
 286.615234375 503.666992188 277.615234375 467 270.282226562 433 c 0
 268.94921875 427 267.616210938 421.333007812 266.283203125 416 c 1
 292.283203125 418.666992188 320.283203125 420 350.283203125 420 c 0
 358.283203125 420 366.283203125 419.666992188 374.283203125 419 c 0
 418.283203125 418.333007812 457.950195312 416.666015625 493.283203125 413.999023438 c 0
 529.283203125 411.33203125 556.116210938 408.165039062 573.783203125 404.498046875 c 0
 591.450195312 400.831054688 602.950195312 395.1640625 608.283203125 387.497070312 c 0
 612.162109375 381.920898438 614.1015625 374.846679688 614.1015625 366.2734375 c 0
 614.1015625 363.05859375 613.829101562 359.6328125 613.283203125 355.997070312 c 1
 613.283203125 356.6640625 612.950195312 356.6640625 612.283203125 355.997070312 c 0
 608.950195312 341.997070312 603.283203125 329.6640625 595.283203125 318.997070312 c 0
 589.950195312 312.330078125 582.6171875 307.330078125 573.284179688 303.997070312 c 0
 567.284179688 301.997070312 560.951171875 300.997070312 554.284179688 300.997070312 c 2
 547.284179688 300.997070312 l 2
 529.284179688 304.330078125 502.284179688 307.330078125 466.284179688 309.997070312 c 0
 431.909179688 312.368164062 396.348632812 313.553710938 359.603515625 313.553710938 c 0
 355.014648438 313.553710938 350.408203125 313.53515625 345.783203125 313.498046875 c 0
 304.116210938 313.165039062 269.616210938 311.665039062 242.283203125 308.998046875 c 1
 224.950195312 222.331054688 206.950195312 130.998046875 188.283203125 34.998046875 c 0
 182.283203125 16.998046875 170.616210938 2.998046875 153.283203125 -7.001953125 c 0
 139.283203125 -16.3349609375 124.950195312 -21.001953125 110.283203125 -21.001953125 c 2
 107.283203125 -21.001953125 l 2
 91.9501953125 -21.001953125 80.283203125 -15.3349609375 72.283203125 -4.001953125 c 0
 68.1162109375 2.248046875 66.033203125 9.669921875 66.033203125 18.263671875 c 0
 66.033203125 23.419921875 66.783203125 28.998046875 68.283203125 34.998046875 c 0
 68.9501953125 36.998046875 69.283203125 39.3310546875 69.283203125 41.998046875 c 0
 75.283203125 62.6650390625 84.283203125 97.33203125 96.283203125 145.999023438 c 0
 117.616210938 237.999023438 138.94921875 339.666015625 160.282226562 450.999023438 c 0
 168.94921875 494.33203125 175.116210938 523.499023438 178.783203125 538.499023438 c 0
 182.450195312 553.499023438 187.783203125 573.499023438 194.783203125 598.499023438 c 0
 201.783203125 623.499023438 206.283203125 640.666015625 208.283203125 649.999023438 c 0
 213.616210938 670.666015625 222.94921875 686.333007812 236.282226562 697 c 0
 249.615234375 708.333007812 264.282226562 714 280.282226562 714 c 2
 285.282226562 714 l 2xd0
EndSplineSet
Validated: 524289
EndChar

StartChar: G
Encoding: 71 71 46
Width: 630
GlyphClass: 2
Flags: HMW
HStem: -31 114<255.857 313.188> 619 105<550.523 551.52>
LayerCount: 2
Fore
SplineSet
89.1845703125 142 m 2
 89.1845703125 150 l 2
 89.1845703125 171 91.1845703125 191 96.1845703125 212 c 0
 107.184570312 261 123.184570312 308 143.184570312 354 c 0
 163.184570312 400 185.184570312 442 210.184570312 479 c 0
 235.184570312 516 262.184570312 549 291.184570312 580 c 0
 322.184570312 611 353.184570312 637 384.184570312 658 c 0
 415.184570312 679 445.184570312 695 476.184570312 706 c 0
 507.184570312 718 537.184570312 724 565.184570312 724 c 0
 593.184570312 724 623.184570312 717 654.184570312 704 c 0
 685.184570312 690 704.184570312 678 712.184570312 667 c 0
 718.184570312 658 721.184570312 649 721.184570312 639 c 0
 721.184570312 634 720.184570312 629 719.184570312 624 c 0
 717.184570312 616 714.184570312 607 709.184570312 598 c 0
 703.184570312 586 693.184570312 577 679.184570312 572 c 0
 672.184570312 569 666.184570312 568 659.184570312 568 c 0
 652.184570312 568 647.184570312 569 643.184570312 571 c 0
 639.184570312 573 630.184570312 578 618.184570312 587 c 0
 606.184570312 596 594.184570312 604 581.184570312 610 c 0
 568.184570312 616 557.184570312 619 546.184570312 619 c 0
 527.184570312 619 506.184570312 613 481.184570312 601 c 0
 456.184570312 589 430.184570312 571 403.184570312 547 c 0
 376.184570312 523 351.184570312 496 327.184570312 465 c 0
 303.184570312 434 281.184570312 400 262.184570312 361 c 0
 243.184570312 322 228.184570312 284 219.184570312 245 c 0
 216.184570312 231 214.184570312 217 214.184570312 203 c 0
 214.184570312 191 215.184570312 180 218.184570312 168 c 0
 223.184570312 143 234.184570312 123 250.184570312 107 c 0
 266.184570312 91 285.184570312 83 306.184570312 83 c 0
 320.184570312 83 336.184570312 88 353.184570312 97 c 0
 370.184570312 106 388.184570312 117 404.184570312 132 c 0
 420.184570312 147 436.184570312 163 452.184570312 182 c 0
 477.184570312 211 498.184570312 240 515.184570312 270 c 1
 479.184570312 268 442.184570312 265 404.184570312 260 c 0
 366.184570312 255 339.184570312 248 323.184570312 241 c 0
 315.184570312 237 308.184570312 235 300.184570312 235 c 0
 292.184570312 235 285.184570312 237 278.184570312 242 c 0
 268.184570312 249 263.184570312 259 263.184570312 270 c 2
 263.184570312 276 l 2
 263.184570312 279 263.184570312 283 264.184570312 286 c 0
 267.184570312 300 275.184570312 313 288.184570312 324 c 0
 297.184570312 332 309.184570312 339 324.184570312 345 c 0
 347.184570312 355 391.184570312 362 456.184570312 367 c 0
 503.184570312 370 541.184570312 372 572.184570312 373 c 0
 583.184570312 373 594.184570312 373 603.184570312 372 c 0
 620.184570312 371 632.184570312 367 639.184570312 360 c 0
 645.184570312 354 648.184570312 346 648.184570312 335 c 0
 648.184570312 330 647.184570312 325 646.184570312 319 c 0
 641.184570312 299 631.184570312 285 614.184570312 276 c 1
 610.184570312 264 l 2
 609.184570312 261 607.184570312 255 605.184570312 247 c 0
 595.184570312 218 574.184570312 182 542.184570312 138 c 0
 527.184570312 117 509.184570312 97 489.184570312 76 c 0
 468.184570312 56 446.184570312 38 423.184570312 22 c 0
 400.184570312 6 376.184570312 -6 349.184570312 -16 c 0
 322.184570312 -26 296.184570312 -31 271.184570312 -31 c 0
 240.184570312 -31 213.184570312 -26 190.184570312 -17 c 0
 167.184570312 -8 149.184570312 5 135.184570312 21 c 0
 121.184570312 37 110.184570312 55 102.184570312 76 c 0
 94.1845703125 97 90.1845703125 119 89.1845703125 142 c 2
EndSplineSet
Validated: 524289
EndChar

StartChar: H
Encoding: 72 72 47
Width: 630
GlyphClass: 2
Flags: HMW
HStem: -21 21G<106.867 114.534 114.534 117.534> 312 86.0049 694.005 20G<296.534 300.534 300.534 307.867>
LayerCount: 2
Fore
SplineSet
74.533203125 34 m 0
 75.2001953125 36.6669921875 76.2021484375 39.3369140625 77.53515625 42.00390625 c 0
 82.8681640625 60.00390625 93.53515625 104.336914062 109.53515625 175.00390625 c 0
 118.868164062 215.670898438 131.03515625 265.170898438 146.03515625 323.50390625 c 2
 173.03515625 428.50390625 l 2
 176.03515625 440.170898438 178.868164062 451.837890625 181.53515625 463.504882812 c 0
 184.202148438 475.171875 188.369140625 494.671875 194.036132812 522.004882812 c 0
 199.703125 549.337890625 203.703125 567.504882812 206.036132812 576.504882812 c 0
 208.369140625 585.504882812 210.702148438 594.671875 213.03515625 604.004882812 c 0
 215.368164062 613.337890625 216.868164062 619.170898438 217.53515625 621.50390625 c 0
 218.202148438 623.836914062 218.869140625 626.50390625 219.536132812 629.50390625 c 0
 220.203125 632.50390625 221.036132812 635.50390625 222.036132812 638.50390625 c 0
 223.036132812 641.50390625 223.869140625 644.170898438 224.536132812 646.50390625 c 2
 225.536132812 650.00390625 l 2
 230.869140625 670.670898438 240.202148438 686.337890625 253.53515625 697.004882812 c 0
 266.868164062 708.337890625 281.201171875 714.004882812 296.534179688 714.004882812 c 2
 300.534179688 714.004882812 l 2
 315.201171875 714.004882812 326.868164062 709.337890625 335.53515625 700.004882812 c 0
 342.056640625 693.047851562 345.317382812 683.681640625 345.317382812 671.904296875 c 0
 345.317382812 665.624023438 344.389648438 658.657226562 342.53515625 651.004882812 c 0
 341.202148438 643.671875 337.03515625 629.004882812 330.03515625 607.004882812 c 0
 323.03515625 585.004882812 317.53515625 565.171875 313.53515625 547.504882812 c 0
 309.53515625 529.837890625 304.202148438 505.004882812 297.53515625 473.004882812 c 0
 290.868164062 441.004882812 285.53515625 416.004882812 281.53515625 398.004882812 c 1
 336.202148438 398.671875 402.869140625 404.671875 481.536132812 416.004882812 c 0
 504.869140625 419.337890625 523.202148438 421.670898438 536.53515625 423.00390625 c 0
 537.202148438 425.670898438 538.03515625 430.170898438 539.03515625 436.50390625 c 0
 540.03515625 442.836914062 543.03515625 457.669921875 548.03515625 481.002929688 c 0
 553.03515625 504.3359375 557.03515625 522.502929688 560.03515625 535.502929688 c 0
 563.03515625 548.502929688 568.202148438 569.002929688 575.53515625 597.002929688 c 0
 582.868164062 625.002929688 587.53515625 642.002929688 589.53515625 648.002929688 c 0
 594.868164062 669.3359375 604.53515625 685.668945312 618.53515625 697.001953125 c 0
 632.53515625 708.334960938 646.868164062 714.001953125 661.53515625 714.001953125 c 2
 665.53515625 714.001953125 l 2
 680.868164062 714.001953125 692.53515625 709.334960938 700.53515625 700.001953125 c 0
 706.756835938 692.890625 709.868164062 683.41015625 709.868164062 671.55859375 c 0
 709.868164062 665.631835938 709.08984375 659.11328125 707.534179688 652.001953125 c 0
 704.8671875 639.334960938 698.534179688 614.334960938 688.534179688 577.001953125 c 0
 676.534179688 530.334960938 666.3671875 488.501953125 658.034179688 451.501953125 c 0
 649.701171875 414.501953125 643.201171875 385.168945312 638.534179688 363.501953125 c 0
 633.8671875 341.834960938 629.8671875 321.66796875 626.534179688 303.000976562 c 0
 617.8671875 266.333984375 605.8671875 219.500976562 590.534179688 162.500976562 c 0
 575.201171875 105.500976562 565.201171875 65.66796875 560.534179688 43.0009765625 c 2
 558.534179688 35.0009765625 l 2
 553.201171875 17.0009765625 542.201171875 3.0009765625 525.534179688 -6.9990234375 c 0
 511.534179688 -16.33203125 497.201171875 -20.9990234375 482.534179688 -20.9990234375 c 2
 479.534179688 -20.9990234375 l 2
 464.201171875 -20.9990234375 452.534179688 -15.33203125 444.534179688 -3.9990234375 c 0
 439.7890625 2.9033203125 437.416992188 10.921875 437.416992188 20.056640625 c 0
 437.416992188 25.0390625 438.122070312 30.3544921875 439.534179688 36.0009765625 c 0
 440.201171875 38.0009765625 440.534179688 40.333984375 440.534179688 43.0009765625 c 0
 465.8671875 126.333984375 490.534179688 219.666992188 514.534179688 323 c 2
 518.534179688 341 l 1
 497.201171875 339 456.534179688 333.833007812 396.534179688 325.5 c 0
 336.534179688 317.166992188 290.534179688 312.666992188 258.534179688 312 c 1
 257.201171875 307.333007812 256.534179688 304.333007812 256.534179688 303 c 0
 246.534179688 269.666992188 236.3671875 231 226.034179688 187 c 0
 215.701171875 143 205.201171875 92.6669921875 194.534179688 36 c 0
 187.8671875 17.3330078125 176.534179688 3 160.534179688 -7 c 0
 146.534179688 -16.3330078125 132.201171875 -21 117.534179688 -21 c 2
 114.534179688 -21 l 2
 99.201171875 -21 87.5341796875 -15.3330078125 79.5341796875 -4 c 0
 75.0888671875 2.6669921875 72.8671875 10.51953125 72.8671875 19.556640625 c 0
 72.8671875 24.0751953125 73.421875 28.8896484375 74.533203125 34 c 0
EndSplineSet
Validated: 524289
EndChar

StartChar: I
Encoding: 73 73 48
Width: 630
GlyphClass: 2
Flags: HMW
HStem: -11.002 103<513.82 525.32 513.82 513.82> -6.00098 97.999<410.487 534.824> 600.997 108.999<303.824 487.49 311.824 487.49>
LayerCount: 2
Fore
SplineSet
197.8203125 -12 m 1x60
 156.487304688 -13.3330078125 128.16015625 -14.001953125 112.827148438 -14.001953125 c 0
 94.16015625 -14.001953125 80.8271484375 -9.6689453125 72.8271484375 -1.001953125 c 0
 66.5673828125 5.2578125 63.4375 12.908203125 63.4375 21.9501953125 c 0
 63.4375 25.4267578125 63.900390625 29.109375 64.826171875 32.998046875 c 2
 64.826171875 35.998046875 l 2
 67.4931640625 49.3310546875 74.826171875 60.8310546875 86.826171875 70.498046875 c 0
 98.826171875 80.1650390625 114.159179688 85.6650390625 132.826171875 86.998046875 c 1
 134.159179688 92.3310546875 134.4921875 92.3310546875 133.825195312 86.998046875 c 1
 159.158203125 88.3310546875 203.825195312 89.6640625 267.825195312 90.9970703125 c 1
 288.4921875 160.330078125 307.4921875 232.663085938 324.825195312 307.99609375 c 0
 334.158203125 347.329101562 342.825195312 386.99609375 350.825195312 426.99609375 c 0
 356.158203125 455.663085938 362.491210938 486.663085938 369.82421875 519.99609375 c 0
 371.157226562 527.329101562 372.657226562 534.329101562 374.32421875 540.99609375 c 0
 375.991210938 547.663085938 378.82421875 557.830078125 382.82421875 571.497070312 c 0
 386.82421875 585.1640625 389.82421875 594.997070312 391.82421875 600.997070312 c 1
 311.82421875 600.997070312 l 2
 295.82421875 600.997070312 279.157226562 600.6640625 261.82421875 599.997070312 c 2
 259.82421875 599.997070312 l 2
 242.491210938 599.997070312 229.82421875 604.6640625 221.82421875 613.997070312 c 0
 215.82421875 620.997070312 212.82421875 629.68359375 212.82421875 640.05859375 c 0
 212.82421875 643.516601562 213.157226562 647.163085938 213.82421875 650.99609375 c 0
 213.82421875 651.663085938 214.157226562 652.663085938 214.82421875 653.99609375 c 0
 218.157226562 667.99609375 225.82421875 680.49609375 237.82421875 691.49609375 c 0
 249.82421875 702.49609375 265.491210938 707.99609375 284.82421875 707.99609375 c 0
 338.82421875 709.329101562 390.157226562 709.99609375 438.82421875 709.99609375 c 0
 536.157226562 709.99609375 615.157226562 706.99609375 675.82421875 700.99609375 c 0
 689.82421875 699.663085938 700.491210938 695.330078125 707.82421875 687.997070312 c 0
 714.701171875 681.120117188 718.139648438 672.071289062 718.139648438 660.850585938 c 0
 718.139648438 656.84375 717.701171875 652.559570312 716.82421875 647.998046875 c 0
 713.491210938 633.331054688 706.158203125 619.6640625 694.825195312 606.997070312 c 0
 688.825195312 599.6640625 681.158203125 593.997070312 671.825195312 589.997070312 c 0
 665.825195312 587.997070312 660.158203125 586.6640625 654.825195312 585.997070312 c 0
 651.4921875 585.997070312 648.159179688 586.330078125 644.826171875 586.997070312 c 0
 628.826171875 589.6640625 586.493164062 593.331054688 517.826171875 597.998046875 c 1
 515.826171875 590.665039062 512.493164062 577.33203125 507.826171875 557.999023438 c 0
 503.159179688 539.33203125 499.4921875 524.999023438 496.825195312 514.999023438 c 0
 494.158203125 504.999023438 491.491210938 494.666015625 488.82421875 483.999023438 c 0
 479.491210938 443.999023438 472.32421875 411.33203125 467.32421875 385.999023438 c 0
 462.32421875 360.666015625 456.657226562 334.666015625 450.32421875 307.999023438 c 0
 443.991210938 281.33203125 434.32421875 243.665039062 421.32421875 194.998046875 c 0
 408.32421875 146.331054688 399.491210938 112.331054688 394.82421875 92.998046875 c 1
 421.491210938 92.998046875 442.82421875 92.6650390625 458.82421875 91.998046875 c 2
 534.82421875 91.998046875 l 1
 536.157226562 97.3310546875 536.490234375 97.3310546875 535.823242188 91.998046875 c 1xa0
 537.15625 97.3310546875 537.489257812 97.3310546875 536.822265625 91.998046875 c 1
 538.155273438 97.3310546875 538.48828125 97.3310546875 537.821289062 91.998046875 c 1x60
 539.154296875 97.3310546875 539.487304688 97.3310546875 538.8203125 91.998046875 c 1
 556.8203125 91.998046875 568.653320312 87.498046875 574.3203125 78.498046875 c 0
 578.173828125 72.3779296875 580.100585938 65.1025390625 580.100585938 56.6708984375 c 0
 580.100585938 52.7021484375 579.673828125 48.478515625 578.8203125 43.998046875 c 0
 577.487304688 37.3310546875 575.487304688 30.998046875 572.8203125 24.998046875 c 0
 570.153320312 18.998046875 566.486328125 12.998046875 561.819335938 6.998046875 c 0
 555.819335938 -0.3349609375 548.486328125 -5.3349609375 539.819335938 -8.001953125 c 0
 534.486328125 -10.001953125 529.653320312 -11.001953125 525.3203125 -11.001953125 c 2
 513.8203125 -11.001953125 l 2xa0
 497.8203125 -8.3349609375 470.153320312 -6.66796875 430.8203125 -6.0009765625 c 0
 390.153320312 -6.0009765625 352.8203125 -6.66796875 318.8203125 -8.0009765625 c 1
 302.708007812 -5.22265625 286.306640625 -3.833984375 269.616210938 -3.833984375 c 0
 246.250976562 -3.833984375 222.319335938 -6.5556640625 197.8203125 -12 c 1x60
EndSplineSet
Validated: 524289
EndChar

StartChar: J
Encoding: 74 74 49
Width: 630
GlyphClass: 2
Flags: HMW
HStem: -34.998 125.999<293.813 299.482> 600.001 109.999<417.147 447.148>
LayerCount: 2
Fore
SplineSet
475.1484375 217 m 0
 437.815429688 101 398.48046875 26.3349609375 357.147460938 -6.998046875 c 0
 335.147460938 -25.6650390625 311.814453125 -34.998046875 287.147460938 -34.998046875 c 0
 262.48046875 -34.998046875 239.48046875 -30.6650390625 218.147460938 -21.998046875 c 0
 196.814453125 -13.3310546875 179.147460938 -2.3310546875 165.147460938 11.001953125 c 0
 152.48046875 25.001953125 141.313476562 40.1689453125 131.646484375 56.501953125 c 0
 121.979492188 72.8349609375 114.479492188 89.001953125 109.146484375 105.001953125 c 0
 103.813476562 121.001953125 100.146484375 135.501953125 98.146484375 148.501953125 c 0
 96.646484375 158.251953125 95.896484375 166.782226562 95.896484375 174.094726562 c 0
 95.896484375 176.532226562 95.9794921875 178.834960938 96.146484375 181.001953125 c 0
 96.146484375 188.334960938 97.646484375 196.501953125 100.646484375 205.501953125 c 0
 103.646484375 214.501953125 107.146484375 223.001953125 111.146484375 231.001953125 c 0
 115.813476562 241.001953125 122.646484375 249.501953125 131.646484375 256.501953125 c 0
 140.646484375 263.501953125 151.146484375 268.334960938 163.146484375 271.001953125 c 0
 167.146484375 271.668945312 171.146484375 271.668945312 175.146484375 271.001953125 c 0
 187.813476562 271.001953125 197.146484375 267.001953125 203.146484375 259.001953125 c 0
 208.479492188 251.890625 211.146484375 243.446289062 211.146484375 233.66796875 c 0
 211.146484375 228.779296875 210.479492188 223.556640625 209.146484375 218.000976562 c 0
 207.864257812 212.103515625 207.223632812 205.6640625 207.223632812 198.682617188 c 0
 207.223632812 187.510742188 208.864257812 174.950195312 212.146484375 161.000976562 c 0
 214.813476562 148.333984375 219.313476562 136.833984375 225.646484375 126.500976562 c 0
 231.979492188 116.16796875 241.8125 107.66796875 255.145507812 101.000976562 c 0
 268.478515625 94.333984375 284.478515625 91.0009765625 303.145507812 91.0009765625 c 0
 303.8125 91.0009765625 304.8125 91.333984375 306.145507812 92.0009765625 c 0
 310.8125 95.333984375 316.479492188 103.000976562 323.146484375 115.000976562 c 0
 338.479492188 143.000976562 353.479492188 186.333984375 368.146484375 245.000976562 c 2
 368.646484375 247.000976562 l 2
 368.979492188 248.333984375 370.479492188 255.166992188 373.146484375 267.5 c 0
 375.813476562 279.833007812 382.813476562 313 394.146484375 367 c 0
 410.813476562 447.666992188 428.48046875 525.333984375 447.147460938 600.000976562 c 1
 412.48046875 601.000976562 379.897460938 601.500976562 349.397460938 601.500976562 c 0
 318.897460938 601.500976562 290.48046875 601.000976562 264.147460938 600.000976562 c 2
 262.147460938 600.000976562 l 2
 244.814453125 600.000976562 232.147460938 604.66796875 224.147460938 614.000976562 c 0
 218.5 620.588867188 215.676757812 628.671875 215.676757812 638.25 c 0
 215.676757812 642.240234375 216.166992188 646.490234375 217.147460938 651 c 2
 217.147460938 654 l 2
 220.48046875 668 228.313476562 680.5 240.646484375 691.5 c 0
 252.979492188 702.5 268.479492188 708 287.146484375 708 c 0
 341.813476562 709.333007812 393.146484375 710 441.146484375 710 c 0
 538.479492188 710 617.479492188 707 678.146484375 701 c 0
 692.146484375 699.666992188 702.479492188 695.333984375 709.146484375 688.000976562 c 0
 716.405273438 680.7421875 720.034179688 671.063476562 720.034179688 658.965820312 c 0
 720.034179688 655.508789062 719.73828125 651.854492188 719.145507812 648.001953125 c 0
 715.8125 633.334960938 708.479492188 619.66796875 697.146484375 607.000976562 c 0
 691.146484375 599.66796875 683.479492188 594.000976562 674.146484375 590.000976562 c 0
 668.146484375 588.000976562 662.479492188 586.66796875 657.146484375 586.000976562 c 0
 653.813476562 586.000976562 650.146484375 586.333984375 646.146484375 587.000976562 c 0
 627.479492188 590.333984375 598.146484375 593.333984375 558.146484375 596.000976562 c 1
 554.813476562 579.333984375 543.48046875 521.000976562 524.147460938 421.000976562 c 0
 518.814453125 393.66796875 513.981445312 370.66796875 509.6484375 352.000976562 c 0
 505.315429688 333.333984375 502.815429688 321.666992188 502.1484375 317 c 0
 492.1484375 275 483.1484375 241.666992188 475.1484375 217 c 0
EndSplineSet
Validated: 524289
EndChar

StartChar: K
Encoding: 75 75 50
Width: 630
GlyphClass: 2
Flags: HMW
HStem: -21 21G<104.186 111.852 111.852 114.851> 693.998 21G
LayerCount: 2
Fore
SplineSet
114.850585938 -21 m 2
 111.8515625 -21 l 2
 96.5185546875 -21 84.5185546875 -16.6669921875 75.8515625 -8 c 0
 70.8095703125 -2.5 68.2890625 4.2607421875 68.2890625 12.2822265625 c 0
 68.2890625 15.927734375 68.8095703125 19.833984375 69.8515625 24 c 0
 70.5185546875 26.6669921875 71.5185546875 29.333984375 72.8515625 32.0009765625 c 0
 79.5185546875 53.333984375 88.185546875 88.6669921875 98.8525390625 138 c 0
 120.852539062 233.333007812 143.185546875 338.666015625 165.852539062 453.999023438 c 0
 174.51953125 495.999023438 180.51953125 524.999023438 183.852539062 540.999023438 c 0
 187.185546875 556.33203125 192.852539062 577.999023438 200.852539062 605.999023438 c 0
 208.852539062 634.666015625 213.852539062 652.666015625 215.852539062 659.999023438 c 0
 220.51953125 677.33203125 229.186523438 690.999023438 241.853515625 700.999023438 c 0
 254.296875 709.709960938 267.612304688 714.064453125 281.797851562 714.064453125 c 0
 282.811523438 714.064453125 283.830078125 714.04296875 284.852539062 713.998046875 c 2
 287.852539062 713.998046875 l 2
 302.51953125 713.998046875 314.51953125 710.331054688 323.852539062 702.998046875 c 0
 330.995117188 696.807617188 334.56640625 688.236328125 334.56640625 677.284179688 c 0
 334.56640625 672.90234375 333.995117188 668.140625 332.852539062 662.998046875 c 0
 329.51953125 646.998046875 321.51953125 615.331054688 308.852539062 567.998046875 c 0
 296.185546875 521.331054688 286.518554688 482.998046875 279.8515625 452.998046875 c 1
 307.184570312 472.998046875 346.517578125 501.665039062 397.850585938 538.998046875 c 0
 509.850585938 627.665039062 576.18359375 679.33203125 596.850585938 693.999023438 c 0
 609.517578125 702.666015625 620.850585938 708.666015625 630.850585938 711.999023438 c 0
 637.517578125 713.999023438 643.184570312 714.999023438 647.8515625 714.999023438 c 0
 652.518554688 714.999023438 656.185546875 714.666015625 658.852539062 713.999023438 c 0
 666.185546875 711.999023438 672.518554688 708.33203125 677.8515625 702.999023438 c 0
 685.184570312 694.999023438 687.8515625 685.999023438 685.8515625 675.999023438 c 0
 681.8515625 657.999023438 670.518554688 638.666015625 651.8515625 617.999023438 c 0
 639.184570312 605.33203125 597.184570312 568.999023438 525.8515625 508.999023438 c 0
 453.184570312 452.999023438 389.517578125 404.33203125 334.850585938 362.999023438 c 1
 352.850585938 338.999023438 382.18359375 303.33203125 422.850585938 255.999023438 c 0
 464.18359375 211.33203125 499.850585938 170.999023438 529.850585938 134.999023438 c 0
 545.18359375 112.999023438 556.18359375 95.666015625 562.850585938 82.9990234375 c 0
 570.18359375 67.666015625 573.850585938 56.9990234375 573.850585938 50.9990234375 c 0
 573.850585938 42.33203125 573.18359375 33.9990234375 571.850585938 25.9990234375 c 0
 570.517578125 20.666015625 568.184570312 15.3330078125 564.8515625 10 c 0
 558.184570312 0.6669921875 549.184570312 -6.666015625 537.8515625 -11.9990234375 c 0
 523.306640625 -18.0595703125 513.719726562 -21.08984375 509.091796875 -21.08984375 c 0
 508.62890625 -21.08984375 508.215820312 -21.0595703125 507.8515625 -20.9990234375 c 2
 506.8515625 -20.9990234375 l 2
 490.184570312 -20.9990234375 476.517578125 -12.666015625 465.850585938 4.0009765625 c 0
 461.850585938 12.0009765625 443.517578125 35.0009765625 410.850585938 73.0009765625 c 0
 378.18359375 110.333984375 343.18359375 151.333984375 305.850585938 196.000976562 c 0
 277.850585938 225.333984375 255.517578125 250.333984375 238.850585938 271.000976562 c 1
 190.850585938 25.0009765625 l 2
 185.517578125 10.333984375 174.517578125 -1.3330078125 157.850585938 -10 c 0
 143.850585938 -17.3330078125 129.517578125 -21 114.850585938 -21 c 2
EndSplineSet
Validated: 524289
EndChar

StartChar: L
Encoding: 76 76 51
Width: 630
GlyphClass: 2
Flags: HMW
HStem: -9 105 686 20G<306.855 309.855 309.855 317.522>
LayerCount: 2
Fore
SplineSet
68.8564453125 26 m 0
 68.8564453125 31 69.8564453125 36 70.8564453125 41 c 0
 71.8564453125 43 71.8564453125 46 72.8564453125 50 c 0
 73.8564453125 54 85.8564453125 90 108.856445312 159 c 0
 131.856445312 228 152.856445312 294 169.856445312 357 c 0
 174.856445312 376 180.856445312 400 187.856445312 428 c 0
 193.822265625 452.856445312 209.673828125 523.188476562 234.427734375 638.994140625 c 0
 234.541015625 639.791015625 234.68359375 640.791015625 234.856445312 642 c 0
 239.856445312 663 248.856445312 679 262.856445312 690 c 0
 276.856445312 701 291.856445312 706 306.856445312 706 c 2
 309.856445312 706 l 2
 324.856445312 706 336.856445312 701 345.856445312 692 c 0
 352.856445312 685 356.856445312 676 356.856445312 664 c 0
 356.856445312 658 355.856445312 652 353.856445312 645 c 0
 349.856445312 626 343.856445312 601 334.856445312 569 c 0
 323.856445312 526 312.856445312 485 302.856445312 447 c 0
 291.856445312 406 279.856445312 364 268.856445312 321 c 0
 261.856445312 294 249.856445312 256 234.856445312 208 c 0
 219.856445312 160 209.856445312 123 202.856445312 96 c 1
 205.856445312 104 205.856445312 104 204.856445312 96 c 1
 257.856445312 96 320.856445312 99 393.856445312 106 c 0
 464.856445312 113 512.856445312 119 536.856445312 125 c 0
 540.856445312 126 544.856445312 127 549.856445312 127 c 0
 554.856445312 127 558.856445312 126 562.856445312 125 c 0
 569.856445312 122 575.856445312 116 579.856445312 108 c 0
 582.856445312 101 583.856445312 94 583.856445312 87 c 0
 584.856445312 79 583.856445312 72 582.856445312 66 c 0
 579.856445312 51 572.856445312 40 562.856445312 30 c 0
 552.856445312 20 539.856445312 13 520.856445312 10 c 0
 475.856445312 1 405.856445312 -5 311.856445312 -9 c 0
 217.856445312 -13 150.856445312 -15 109.856445312 -15 c 0
 94.8564453125 -15 82.8564453125 -9 75.8564453125 2 c 0
 71.8564453125 9 68.8564453125 17 68.8564453125 26 c 0
EndSplineSet
Validated: 524289
EndChar

StartChar: M
Encoding: 77 77 52
Width: 630
GlyphClass: 2
Flags: HMW
HStem: -10.002 21G<83.0712 86.4052 86.4052 88.4052>
LayerCount: 2
Fore
SplineSet
159.407226562 63 m 2
 157.40234375 52.998046875 l 2
 153.40234375 34.998046875 145.069335938 19.998046875 132.40234375 7.998046875 c 0
 118.40234375 -4.001953125 103.735351562 -10.001953125 88.40234375 -10.001953125 c 2
 86.40234375 -10.001953125 l 2
 79.7353515625 -10.001953125 73.7353515625 -8.6689453125 68.40234375 -6.001953125 c 0
 61.0693359375 -2.001953125 56.40234375 5.3310546875 54.40234375 15.998046875 c 0
 54.1064453125 18.6640625 53.9580078125 21.52734375 53.9580078125 24.5888671875 c 0
 53.9580078125 35.3046875 55.7734375 48.44140625 59.4033203125 63.998046875 c 0
 61.4033203125 72.6650390625 65.4033203125 86.998046875 71.4033203125 106.998046875 c 0
 77.4033203125 126.331054688 85.736328125 151.998046875 96.4033203125 183.998046875 c 0
 107.736328125 217.998046875 120.403320312 258.331054688 134.403320312 304.998046875 c 0
 148.403320312 351.665039062 160.0703125 388.998046875 169.403320312 416.998046875 c 0
 199.403320312 512.998046875 221.736328125 579.665039062 236.403320312 616.998046875 c 0
 245.736328125 640.331054688 254.069335938 656.6640625 261.40234375 665.997070312 c 0
 272.069335938 679.997070312 285.736328125 689.997070312 302.403320312 695.997070312 c 0
 316.403320312 701.330078125 330.0703125 703.997070312 343.403320312 703.997070312 c 2
 349.403320312 703.997070312 l 2
 364.736328125 703.997070312 376.736328125 701.6640625 385.403320312 696.997070312 c 0
 398.0703125 690.997070312 405.0703125 680.997070312 406.403320312 666.997070312 c 0
 406.645507812 661.6640625 406.766601562 655.703125 406.766601562 649.114257812 c 0
 406.766601562 619.461914062 404.3125 577.08984375 399.403320312 521.998046875 c 0
 393.403320312 454.665039062 385.403320312 377.998046875 375.403320312 291.998046875 c 0
 373.403320312 272.665039062 371.403320312 254.665039062 369.403320312 237.998046875 c 1
 384.736328125 285.998046875 399.403320312 331.331054688 413.403320312 373.998046875 c 0
 432.0703125 429.331054688 453.0703125 484.331054688 476.403320312 538.998046875 c 0
 499.736328125 594.331054688 518.736328125 636.998046875 533.403320312 666.998046875 c 0
 538.736328125 676.998046875 547.736328125 685.331054688 560.403320312 691.998046875 c 0
 571.736328125 697.998046875 583.069335938 701.665039062 594.40234375 702.998046875 c 0
 601.735351562 703.665039062 607.735351562 704.165039062 612.40234375 704.498046875 c 0
 617.069335938 704.831054688 620.736328125 704.6640625 623.403320312 703.997070312 c 2
 627.403320312 703.997070312 l 1
 641.903320312 703.997070312 l 2
 645.5703125 703.997070312 650.403320312 702.997070312 656.403320312 700.997070312 c 0
 663.0703125 699.6640625 668.403320312 697.6640625 672.403320312 694.997070312 c 0
 676.403320312 692.330078125 679.736328125 688.330078125 682.403320312 682.997070312 c 0
 685.0703125 676.997070312 686.403320312 669.997070312 686.403320312 661.997070312 c 0
 684.403320312 641.997070312 669.0703125 544.997070312 640.403320312 370.997070312 c 0
 612.403320312 197.6640625 598.403320312 99.6640625 598.403320312 76.9970703125 c 0
 598.403320312 63.6640625 596.736328125 51.3310546875 593.403320312 39.998046875 c 0
 591.403320312 30.6650390625 587.736328125 22.6650390625 582.403320312 15.998046875 c 0
 575.0703125 6.6650390625 565.0703125 -0.001953125 552.403320312 -4.001953125 c 0
 545.0703125 -6.001953125 537.737304688 -7.1689453125 530.404296875 -7.501953125 c 0
 523.071289062 -7.8349609375 515.73828125 -6.001953125 508.405273438 -2.001953125 c 0
 495.73828125 4.6650390625 488.405273438 18.33203125 486.405273438 38.9990234375 c 0
 486.20703125 41.3798828125 486.107421875 44.16796875 486.107421875 47.36328125 c 0
 486.107421875 97.857421875 510.874023438 250.069335938 560.40625 503.999023438 c 1
 540.40625 452.666015625 523.40625 403.999023438 509.40625 357.999023438 c 0
 485.40625 281.999023438 460.739257812 209.999023438 435.40625 141.999023438 c 0
 409.40625 73.9990234375 391.073242188 32.33203125 380.40625 16.9990234375 c 0
 367.073242188 0.9990234375 343.073242188 -7.0009765625 308.40625 -7.0009765625 c 2
 303.40625 -7.0009765625 l 2
 290.073242188 -7.0009765625 279.073242188 -5.0009765625 270.40625 -1.0009765625 c 0
 259.739257812 3.666015625 253.739257812 10.3330078125 252.40625 19 c 0
 252.354492188 21.4619140625 252.329101562 24.16796875 252.329101562 27.115234375 c 0
 252.329101562 62.4775390625 256.021484375 132.772460938 263.40625 238 c 0
 268.739257812 316 274.40625 391.666992188 280.40625 465 c 1
 276.40625 451.666992188 269.073242188 427.666992188 258.40625 393 c 2
 243.40625 340 l 1
 216.40625 252 l 2
 208.40625 224.666992188 199.739257812 196.333984375 190.40625 167.000976562 c 0
 183.073242188 144.333984375 175.740234375 120.666992188 168.407226562 96 c 0
 163.740234375 81.3330078125 160.740234375 70.3330078125 159.407226562 63 c 2
EndSplineSet
Validated: 524289
EndChar

StartChar: N
Encoding: 78 78 53
Width: 630
GlyphClass: 2
Flags: HMW
HStem: -11.999 21G<96.3908 113.059> 685.001 20G<288.06 297.394 660.727 676.06>
VStem: 70.7234 100.002
LayerCount: 2
Fore
SplineSet
277.727539062 486 m 1
 271.727539062 456 266.39453125 431.000976562 261.727539062 411.000976562 c 0
 257.060546875 389.66796875 250.060546875 359.66796875 240.727539062 321.000976562 c 0
 231.39453125 283.000976562 219.727539062 237.000976562 205.727539062 183.000976562 c 0
 191.727539062 127.66796875 182.727539062 93.0009765625 178.727539062 79.0009765625 c 0
 175.39453125 65.0009765625 173.39453125 56.0009765625 172.727539062 52.0009765625 c 0
 172.060546875 48.66796875 171.393554688 45.66796875 170.7265625 43.0009765625 c 0
 166.7265625 25.0009765625 158.7265625 11.333984375 146.7265625 2.0009765625 c 0
 134.059570312 -7.33203125 120.392578125 -11.9990234375 105.725585938 -11.9990234375 c 0
 87.05859375 -11.9990234375 75.3916015625 -5.9990234375 70.724609375 6.0009765625 c 0
 69.7548828125 10.365234375 69.26953125 15.3017578125 69.26953125 20.8115234375 c 0
 69.26953125 30.453125 70.7548828125 41.849609375 73.724609375 55.0009765625 c 0
 76.3916015625 68.333984375 89.05859375 120.000976562 111.725585938 210.000976562 c 0
 146.392578125 348.66796875 170.059570312 444.000976562 182.7265625 496.000976562 c 0
 194.7265625 548.000976562 204.7265625 595.333984375 212.7265625 638.000976562 c 0
 213.393554688 640.66796875 214.060546875 643.66796875 214.727539062 647.000976562 c 0
 216.727539062 657.000976562 220.727539062 665.66796875 226.727539062 673.000976562 c 0
 233.39453125 682.333984375 241.727539062 689.333984375 251.727539062 694.000976562 c 0
 265.727539062 701.333984375 280.39453125 705.000976562 295.727539062 705.000976562 c 0
 299.060546875 705.000976562 302.393554688 704.66796875 305.7265625 704.000976562 c 0
 319.7265625 704.000976562 331.059570312 701.66796875 339.7265625 697.000976562 c 0
 352.393554688 691.000976562 359.393554688 681.000976562 360.7265625 667.000976562 c 0
 364.7265625 624.333984375 385.393554688 545.333984375 422.7265625 430.000976562 c 0
 454.059570312 332.66796875 482.059570312 251.66796875 506.7265625 187.000976562 c 1
 521.393554688 244.333984375 538.7265625 319.333984375 558.7265625 412.000976562 c 0
 584.7265625 530.000976562 600.059570312 608.000976562 604.7265625 646.000976562 c 0
 605.393554688 650.000976562 606.060546875 653.66796875 606.727539062 657.000976562 c 0
 609.39453125 669.000976562 615.727539062 679.333984375 625.727539062 688.000976562 c 0
 638.39453125 699.333984375 652.727539062 705.000976562 668.727539062 705.000976562 c 0
 683.39453125 705.000976562 694.727539062 702.333984375 702.727539062 697.000976562 c 0
 706.727539062 694.333984375 709.727539062 690.333984375 711.727539062 685.000976562 c 0
 712.39453125 679.66796875 712.727539062 675.000976562 712.727539062 671.000976562 c 0
 712.727539062 666.333984375 712.060546875 659.333984375 710.727539062 650.000976562 c 0
 710.060546875 638.66796875 698.727539062 585.334960938 676.727539062 490.001953125 c 0
 673.39453125 476.001953125 670.39453125 462.001953125 667.727539062 448.001953125 c 0
 648.39453125 364.668945312 627.39453125 278.668945312 604.727539062 190.001953125 c 0
 590.060546875 132.668945312 578.060546875 90.001953125 568.727539062 62.001953125 c 0
 560.060546875 35.3349609375 553.060546875 18.3349609375 547.727539062 11.001953125 c 0
 535.060546875 -4.998046875 512.727539062 -13.3310546875 480.727539062 -13.998046875 c 2
 476.727539062 -13.998046875 l 2
 464.727539062 -13.998046875 454.727539062 -11.6650390625 446.727539062 -6.998046875 c 0
 436.727539062 -1.6650390625 430.727539062 5.001953125 428.727539062 13.001953125 c 0
 425.39453125 26.3349609375 416.061523438 55.66796875 400.728515625 101.000976562 c 0
 384.728515625 148.333984375 368.061523438 193.666992188 350.728515625 237 c 0
 334.061523438 286.333007812 317.39453125 341 300.727539062 401 c 0
 291.39453125 431.666992188 283.727539062 460 277.727539062 486 c 1
EndSplineSet
Validated: 524289
EndChar

StartChar: O
Encoding: 79 79 54
Width: 630
GlyphClass: 2
Flags: HMW
HStem: -24 108<272.169 314.838> 612.001 105.999<475.171 482.504>
VStem: 118.169 111.999<161.501 244.667>
LayerCount: 2
Fore
SplineSet
669.170898438 480 m 0
 668.50390625 477.333007812 668.501953125 477.333984375 669.168945312 480.000976562 c 1
 657.8359375 406.000976562 641.502929688 333.333984375 620.169921875 262.000976562 c 0
 608.169921875 222.66796875 597.169921875 192.334960938 587.169921875 171.001953125 c 0
 571.836914062 139.668945312 555.336914062 112.668945312 537.669921875 90.001953125 c 0
 520.002929688 67.3349609375 501.8359375 48.66796875 483.168945312 34.0009765625 c 0
 464.501953125 19.333984375 443.501953125 7.6669921875 420.168945312 -1 c 0
 396.168945312 -9.6669921875 372.668945312 -15.6669921875 349.668945312 -19 c 0
 326.668945312 -22.3330078125 300.8359375 -24 272.168945312 -24 c 0
 228.168945312 -23.3330078125 192.168945312 -10.666015625 164.168945312 14.0009765625 c 0
 137.501953125 39.333984375 120.501953125 72.6669921875 113.168945312 114 c 0
 110.181640625 130.295898438 108.6875 147.14453125 108.6875 164.545898438 c 0
 108.6875 189.860351562 111.848632812 216.344726562 118.169921875 244 c 0
 118.169921875 245.333007812 118.502929688 247.333007812 119.169921875 250 c 0
 120.502929688 257.333007812 121.8359375 262.666015625 123.168945312 265.999023438 c 0
 129.8359375 294.666015625 135.502929688 317.833007812 140.169921875 335.5 c 0
 144.836914062 353.166992188 151.50390625 376.666992188 160.170898438 406 c 0
 177.50390625 463.333007812 200.50390625 516.666015625 229.170898438 565.999023438 c 0
 256.50390625 610.666015625 294.170898438 647.333007812 342.170898438 676 c 0
 393.50390625 704 447.170898438 718 503.170898438 718 c 0
 531.837890625 718 558.170898438 712.666992188 582.170898438 702 c 0
 605.50390625 691.333007812 624.50390625 676 639.170898438 656 c 0
 653.837890625 636 663.837890625 611 669.170898438 581 c 0
 671.836914062 566 673.170898438 550.083007812 673.170898438 533.25 c 0
 673.170898438 516.416015625 671.836914062 498.666015625 669.170898438 480 c 0
261.668945312 94.0009765625 m 0
 271.3359375 87.333984375 283.170898438 84 297.170898438 84 c 0
 332.50390625 84 365.836914062 92.3330078125 397.169921875 109 c 0
 413.169921875 117 428.502929688 128.166992188 443.169921875 142.5 c 0
 457.836914062 156.833007812 470.50390625 173.333007812 481.170898438 192 c 0
 485.170898438 199.333007812 492.00390625 217.833007812 501.670898438 247.5 c 0
 511.337890625 277.166992188 521.504882812 312.666992188 532.171875 354 c 0
 535.504882812 366 538.504882812 378 541.171875 390 c 0
 547.838867188 418.666992188 553.171875 447.333984375 557.171875 476.000976562 c 0
 558.46484375 485.697265625 559.111328125 494.962890625 559.111328125 503.797851562 c 0
 559.111328125 531.407226562 552.797851562 554.80859375 540.170898438 574.000976562 c 0
 523.50390625 599.333984375 498.836914062 612.000976562 466.169921875 612.000976562 c 0
 433.502929688 612.000976562 403.8359375 600.66796875 377.168945312 578.000976562 c 0
 349.168945312 554.000976562 324.501953125 520.66796875 303.168945312 478.000976562 c 0
 279.8359375 430.000976562 261.168945312 374.66796875 247.168945312 312.000976562 c 0
 237.8359375 272.66796875 232.168945312 239.000976562 230.168945312 211.000976562 c 0
 229.502929688 202.66796875 229.168945312 194.375976562 229.168945312 186.125976562 c 0
 229.168945312 177.875976562 229.502929688 169.66796875 230.168945312 161.500976562 c 0
 231.501953125 145.16796875 234.668945312 131.500976562 239.668945312 120.500976562 c 0
 244.668945312 109.500976562 252.001953125 100.66796875 261.668945312 94.0009765625 c 0
EndSplineSet
Validated: 524289
EndChar

StartChar: P
Encoding: 80 80 55
Width: 630
GlyphClass: 2
Flags: HMW
HStem: -18.998 21G<126.756 142.757> 218 106.003<344.423 353.757 344.423 369.761> 605.003 105.999<436.424 495.425>
VStem: 90.4219 120 219.423 0.999023
LayerCount: 2
Fore
SplineSet
262.423828125 334.002929688 m 1
 283.201171875 327.28125 307.8984375 323.919921875 336.517578125 323.919921875 c 0
 339.120117188 323.919921875 341.755859375 323.947265625 344.422851562 324.002929688 c 0
 363.08984375 324.002929688 380.58984375 325.3359375 396.922851562 328.002929688 c 0
 413.255859375 330.669921875 427.422851562 334.002929688 439.422851562 338.002929688 c 0
 451.422851562 342.002929688 462.422851562 347.3359375 472.422851562 354.002929688 c 0
 482.422851562 360.669921875 491.08984375 367.336914062 498.422851562 374.00390625 c 0
 505.755859375 380.670898438 512.422851562 388.50390625 518.422851562 397.50390625 c 0
 524.422851562 406.50390625 529.422851562 414.670898438 533.422851562 422.00390625 c 0
 537.422851562 429.336914062 541.08984375 438.169921875 544.422851562 448.502929688 c 0
 547.755859375 458.8359375 550.422851562 467.168945312 552.422851562 473.501953125 c 0
 554.422851562 479.834960938 556.422851562 488.001953125 558.422851562 498.001953125 c 0
 560.604492188 506.729492188 561.6953125 514.959960938 561.6953125 522.6953125 c 0
 561.6953125 529.141601562 560.9375 535.244140625 559.422851562 541.001953125 c 0
 556.08984375 553.668945312 550.756835938 563.8359375 543.423828125 571.502929688 c 0
 536.090820312 579.169921875 526.590820312 585.669921875 514.923828125 591.002929688 c 0
 503.256835938 596.3359375 491.756835938 600.002929688 480.423828125 602.002929688 c 0
 469.090820312 604.002929688 458.090820312 605.002929688 447.423828125 605.002929688 c 0
 425.423828125 605.002929688 385.756835938 603.002929688 328.423828125 599.002929688 c 1
 307.756835938 519.669921875 294.08984375 466.002929688 287.422851562 438.002929688 c 0
 278.08984375 400.669921875 269.756835938 366.002929688 262.423828125 334.002929688 c 1
221.427734375 109 m 0
 214.760742188 61 211.08984375 35.3359375 210.422851562 32.0029296875 c 0
 206.422851562 15.3359375 195.755859375 2.6689453125 178.422851562 -5.998046875 c 0
 164.422851562 -14.6650390625 150.08984375 -18.998046875 135.422851562 -18.998046875 c 0
 118.08984375 -18.998046875 105.08984375 -13.6650390625 96.4228515625 -2.998046875 c 0
 91.380859375 3.4189453125 88.8603515625 11.2529296875 88.8603515625 20.505859375 c 0
 88.8603515625 24.7109375 89.380859375 29.2099609375 90.4228515625 34.0009765625 c 0
 91.08984375 36.66796875 92.08984375 41.0009765625 93.4228515625 47.0009765625 c 0
 96.08984375 56.333984375 100.08984375 72.333984375 105.422851562 95.0009765625 c 0
 114.08984375 132.333984375 125.422851562 183.666992188 139.422851562 249 c 0
 162.755859375 359.666992188 176.422851562 425 180.422851562 445 c 0
 191.728515625 497.540039062 205.024414062 554.059570312 220.310546875 614.560546875 c 1
 219.0703125 609.7109375 218.774414062 610.524414062 219.422851562 617.001953125 c 1
 218.08984375 611.668945312 217.756835938 612.001953125 218.423828125 618.001953125 c 0
 215.090820312 626.668945312 214.423828125 635.3359375 216.423828125 644.002929688 c 0
 217.090820312 646.669921875 217.756835938 649.002929688 218.423828125 651.002929688 c 0
 222.423828125 661.002929688 228.7578125 670.002929688 237.424804688 678.002929688 c 0
 246.091796875 686.002929688 255.091796875 691.002929688 264.424804688 693.002929688 c 0
 288.424804688 698.3359375 323.424804688 703.002929688 369.424804688 707.002929688 c 0
 409.9765625 709.780273438 440.344726562 711.168945312 460.530273438 711.168945312 c 0
 464.569335938 711.168945312 468.201171875 711.11328125 471.424804688 711.001953125 c 0
 519.424804688 711.001953125 560.7578125 703.001953125 595.424804688 687.001953125 c 0
 626.091796875 670.334960938 647.924804688 645.16796875 660.924804688 611.500976562 c 0
 668.272460938 592.471679688 671.946289062 571.47265625 671.946289062 548.50390625 c 0
 671.946289062 530.834960938 669.772460938 512.000976562 665.424804688 492.000976562 c 0
 656.7578125 454.000976562 642.7578125 418.333984375 623.424804688 385.000976562 c 0
 604.091796875 351.66796875 581.258789062 322.66796875 554.92578125 298.000976562 c 0
 528.592773438 273.333984375 497.759765625 253.666992188 462.426757812 239 c 0
 426.426757812 225 389.09375 218 350.426757812 218 c 0
 305.09375 218 268.426757812 220.666992188 240.426757812 226 c 1
 233.09375 188 226.760742188 149 221.427734375 109 c 0
EndSplineSet
Validated: 524289
EndChar

StartChar: Q
Encoding: 81 81 56
Width: 630
GlyphClass: 2
Flags: HMW
HStem: -24.002 21G<281.287 306.287> 612.496 105.504
VStem: 293.952 104.002
LayerCount: 2
Fore
SplineSet
493.951171875 -204 m 0
 484.618164062 -209.333007812 475.2890625 -212.002929688 465.956054688 -212.002929688 c 0
 461.2890625 -212.002929688 456.622070312 -211.3359375 451.955078125 -210.002929688 c 0
 438.622070312 -206.002929688 428.955078125 -197.669921875 422.955078125 -185.002929688 c 0
 416.288085938 -171.669921875 405.62109375 -149.169921875 390.954101562 -117.502929688 c 0
 376.287109375 -85.8359375 362.287109375 -53.6689453125 348.954101562 -21.001953125 c 1
 332.954101562 -23.001953125 315.62109375 -24.001953125 296.954101562 -24.001953125 c 0
 265.62109375 -24.001953125 237.62109375 -19.001953125 212.954101562 -9.001953125 c 0
 188.287109375 0.998046875 168.954101562 14.3310546875 154.954101562 30.998046875 c 0
 140.954101562 48.3310546875 129.954101562 68.3310546875 121.954101562 90.998046875 c 0
 114.217773438 115.313476562 110.348632812 142.276367188 110.348632812 171.885742188 c 0
 110.348632812 195.85546875 112.883789062 221.559570312 117.954101562 248.998046875 c 0
 121.287109375 265.665039062 124.954101562 282.33203125 128.954101562 298.999023438 c 0
 152.954101562 403.666015625 185.954101562 491.333007812 227.954101562 562 c 0
 255.287109375 606.666992188 292.954101562 644 340.954101562 674 c 0
 392.287109375 703.333007812 445.620117188 718 500.953125 718 c 0
 559.620117188 718 604.953125 699.333007812 636.953125 662 c 0
 651.620117188 643.333007812 661.620117188 618.333007812 666.953125 587 c 0
 669.796875 570.290039062 671.219726562 552.252929688 671.219726562 532.888671875 c 0
 671.219726562 515.942382812 670.129882812 497.979492188 667.952148438 479 c 0
 663.28515625 443 655.28515625 401.333007812 643.952148438 354 c 0
 624.619140625 270 605.952148438 207 587.952148438 165 c 0
 559.28515625 97 518.618164062 47 465.951171875 15 c 1
 479.284179688 -14.3330078125 495.951171875 -48 515.951171875 -86 c 0
 527.319335938 -108.104492188 533.00390625 -120.038085938 533.00390625 -121.80078125 c 0
 533.00390625 -121.8984375 532.986328125 -121.96484375 532.951171875 -122 c 0
 535.034179688 -127 536.076171875 -132.130859375 536.076171875 -137.390625 c 0
 536.076171875 -140.546875 535.701171875 -143.75 534.951171875 -147 c 0
 534.284179688 -149 533.6171875 -151.333007812 532.950195312 -154 c 0
 528.950195312 -164 523.283203125 -173.666992188 515.950195312 -183 c 0
 508.6171875 -192.333007812 501.284179688 -199.333007812 493.951171875 -204 c 0
292.955078125 113.997070312 m 0
 291.76953125 121.704101562 291.17578125 129.08203125 291.17578125 136.130859375 c 0
 291.17578125 144.93359375 292.1015625 153.22265625 293.952148438 160.997070312 c 0
 298.619140625 182.330078125 310.286132812 198.997070312 328.953125 210.997070312 c 0
 340.286132812 218.330078125 351.286132812 222.330078125 361.953125 222.997070312 c 0
 370.620117188 222.997070312 378.287109375 219.997070312 384.954101562 213.997070312 c 0
 391.62109375 207.997070312 395.954101562 198.6640625 397.954101562 185.997070312 c 0
 401.954101562 157.330078125 409.62109375 125.663085938 420.954101562 90.99609375 c 1
 445.62109375 108.329101562 465.288085938 133.99609375 479.955078125 167.99609375 c 0
 483.955078125 177.329101562 490.622070312 196.99609375 499.955078125 226.99609375 c 0
 509.288085938 256.99609375 519.288085938 294.663085938 529.955078125 339.99609375 c 2
 533.955078125 355.99609375 l 2
 543.288085938 395.329101562 549.955078125 432.99609375 553.955078125 468.99609375 c 0
 555.008789062 479.08203125 555.536132812 488.692382812 555.536132812 497.827148438 c 0
 555.536132812 529.14453125 549.341796875 554.8671875 536.955078125 574.99609375 c 0
 521.821289062 600 498.081054688 612.502929688 465.735351562 612.502929688 c 0
 465.309570312 612.502929688 464.8828125 612.5 464.455078125 612.49609375 c 0
 431.455078125 612.163085938 401.288085938 600.330078125 373.955078125 576.997070312 c 0
 345.288085938 552.330078125 320.288085938 517.997070312 298.955078125 473.997070312 c 0
 274.955078125 421.997070312 256.622070312 367.997070312 243.955078125 311.997070312 c 0
 239.288085938 291.997070312 235.288085938 271.6640625 231.955078125 250.997070312 c 0
 228.682617188 230.997070312 227.045898438 212.137695312 227.045898438 194.41796875 c 0
 227.045898438 179.65234375 228.182617188 165.678710938 230.455078125 152.497070312 c 0
 235.455078125 123.497070312 245.622070312 100.6640625 260.955078125 83.9970703125 c 0
 273.622070312 70.6640625 288.622070312 62.9970703125 305.955078125 60.9970703125 c 1
 299.288085938 82.330078125 294.955078125 99.9970703125 292.955078125 113.997070312 c 0
EndSplineSet
Validated: 524289
EndChar

